<?xml version="1.0" encoding="UTF-8" standalone="no"?>
<svg width="460px" height="464px" viewBox="0 0 460 464" version="1.1" xmlns="http://www.w3.org/2000/svg" xmlns:xlink="http://www.w3.org/1999/xlink">
    <!-- Generator: Sketch 43.2 (39069) - http://www.bohemiancoding.com/sketch -->
    <title>shared-ws</title>
    <desc>Created with Sketch.</desc>
    <defs></defs>
    <g id="Page-1" stroke="none" stroke-width="1" fill="none" fill-rule="evenodd">
        <g id="Group-2" fill-rule="nonzero" fill="#000000">
            <path d="M260,383 C260,394 251,403 240,403 C229,403 220,394 220,383 C220,372 229,363 240,363 C251,363 260,372 260,383 Z M324,383 C324,394 315,403 304,403 C293,403 284,394 284,383 C284,372 293,363 304,363 C315,363 324,372 324,383 Z M352,423 L352,343 C352,338.75 348.25,335 344,335 L40,335 C35.75,335 32,338.75 32,343 L32,423 C32,427.25 35.75,431 40,431 L344,431 C348.25,431 352,427.25 352,423 Z M44.5,303 L339.5,303 L333.523438,278.234375 C332.805823,275.794486 276.540537,267.231734 235.746094,239 C194.95165,210.768266 187.877526,175 185.960938,175 L94.25,175 C89.75,175 85,178.25 83.75,182.5 L44.5,303 Z M384,343 L384,423 C384,445 366,463 344,463 L40,463 C18,463 0,445 0,423 L0,343 C0,336.25 2,330.5 4,324.25 L53.25,172.75 C59,155.25 75.75,143 94.25,143 L192,143 C201.280243,143 210.165069,210.64097 249.121094,239.488281 C288.077118,268.335592 356.618775,257.98564 359.484375,266.707031 L380,324.25 C382,330.5 384,336.25 384,343 Z" id="drive" stroke="#979797"></path>
            <g id="Group" transform="translate(174.000000, 0.000000)">
                <path d="M143,285.5 C64.2994232,285.5 0.5,221.700577 0.5,143 C0.5,64.2994232 64.2994232,0.5 143,0.5 C221.700577,0.5 285.5,64.2994232 285.5,143 C285.5,221.700577 221.700577,285.5 143,285.5 Z M143,250.5 C202.370611,250.5 250.5,202.370611 250.5,143 C250.5,83.6293894 202.370611,35.5 143,35.5 C83.6293894,35.5 35.5,83.6293894 35.5,143 C35.5,202.370611 83.6293894,250.5 143,250.5 Z" id="plus-circle"></path>
                <g id="plus" transform="translate(50.000000, 50.000000)">
                    <polygon id="plus1" points="76.5 0.5 76.5 185.835937 111.5 185.835937 111.5 0.5"></polygon>
                    <polygon id="plus2" points="0.5 109.5 185.835937 109.5 185.835937 74.5 0.5 74.5"></polygon>
                </g>
            </g>
        </g>
    </g>
</svg>