<?xml version="1.0" encoding="iso-8859-1"?>
<!-- Generator: Adobe Illustrator 16.0.0, SVG Export Plug-In . SVG Version: 6.00 Build 0)  -->
<!DOCTYPE svg PUBLIC "-//W3C//DTD SVG 1.1//EN" "http://www.w3.org/Graphics/SVG/1.1/DTD/svg11.dtd">
<svg version="1.1" id="Layer_1" xmlns="http://www.w3.org/2000/svg" xmlns:xlink="http://www.w3.org/1999/xlink" x="0px" y="0px"
	 width="128px" height="128px" viewBox="0 0 128 128" style="enable-background:new 0 0 128 128;" xml:space="preserve">
<path style="fill:#FFFFFF;stroke:#000000;stroke-miterlimit:10;" d="M44.989,95.721"/>
<path style="fill:none;stroke:#000000;stroke-miterlimit:10;" d="M130.125,57.234"/>
<path style="fill:none;stroke:#000000;stroke-miterlimit:10;" d="M-7.125,57.188"/>
<path style="fill:none;stroke:#000000;stroke-miterlimit:10;" d="M129.733,79.272"/>
<path style="fill:none;stroke:#000000;stroke-miterlimit:10;" d="M-7.517,71.931"/>
<path style="fill:#FFFFFF;stroke:#000000;stroke-miterlimit:10;" d="M127.529,36.138l-10.143-0.008l-0.002,37.85l10.145-0.02v15.746
	L0.47,89.628V73.962l14.395,0.053L14.811,36.12L0.47,36.138V20.37h127.059V36.138z M81.082,36.112H50.293v37.852h30.789V36.112z
	 M28.167,35.988h-5.915V73.84h5.915V35.988z M42.042,35.987h-5.915V73.84h5.915V35.987z M95.25,36.111h-5.916v37.852h5.916V36.111z
	 M109.416,36.111h-6.166v37.852h6.166V36.111z"/>
</svg>
