<?xml version="1.0" encoding="utf-8"?>
<!-- Generated by IcoMoon.io -->
<!DOCTYPE svg PUBLIC "-//W3C//DTD SVG 1.1//EN" "http://www.w3.org/Graphics/SVG/1.1/DTD/svg11.dtd">
<svg version="1.1" xmlns="http://www.w3.org/2000/svg" xmlns:xlink="http://www.w3.org/1999/xlink" width="448" height="448" viewBox="0 0 448 448">
<g id="icomoon-ignore">
</g>
<path d="M240 64q0-6.5-4.75-11.25t-11.25-4.75-11.25 4.75-4.75 11.25 4.75 11.25 11.25 4.75 11.25-4.75 4.75-11.25zM448 296v88q0 5.5-5 7.5-2 0.5-3 0.5-3.25 0-5.75-2.25l-23.25-23.25q-29.75 35.75-79.625 56.625t-107.375 20.875-107.375-20.875-79.625-56.625l-23.25 23.25q-2.25 2.25-5.75 2.25-1 0-3-0.5-5-2-5-7.5v-88q0-3.5 2.25-5.75t5.75-2.25h88q5.5 0 7.5 5 2 4.75-1.75 8.75l-25 25q16.75 22.75 47.375 38.375t67.875 20.625v-161.75h-48q-6.5 0-11.25-4.75t-4.75-11.25v-32q0-6.5 4.75-11.25t11.25-4.75h48v-40.75q-14.5-8.5-23.25-23.125t-8.75-32.125q0-26.5 18.75-45.25t45.25-18.75 45.25 18.75 18.75 45.25q0 17.5-8.75 32.125t-23.25 23.125v40.75h48q6.5 0 11.25 4.75t4.75 11.25v32q0 6.5-4.75 11.25t-11.25 4.75h-48v161.75q37.25-5 67.875-20.625t47.375-38.375l-25-25q-3.75-4-1.75-8.75 2-5 7.5-5h88q3.5 0 5.75 2.25t2.25 5.75z"></path>
</svg>
