<?xml version="1.0" encoding="utf-8"?>
<!-- Generated by IcoMoon.io -->
<!DOCTYPE svg PUBLIC "-//W3C//DTD SVG 1.1//EN" "http://www.w3.org/Graphics/SVG/1.1/DTD/svg11.dtd">
<svg version="1.1" xmlns="http://www.w3.org/2000/svg" xmlns:xlink="http://www.w3.org/1999/xlink" width="384" height="448" viewBox="0 0 384 448">
<g id="icomoon-ignore">
</g>
<path d="M288 200v48q0 3.25-2.375 5.625t-5.625 2.375h-88v48q0 3.5-2.25 5.75t-5.75 2.25q-3 0-6-2.5l-79.75-79.75q-2.25-2.25-2.25-5.75t2.25-5.75l80-80q2.25-2.25 5.75-2.25 3.25 0 5.625 2.375t2.375 5.625v48h88q3.25 0 5.625 2.375t2.375 5.625zM328 224q0-37-18.25-68.25t-49.5-49.5-68.25-18.25-68.25 18.25-49.5 49.5-18.25 68.25 18.25 68.25 49.5 49.5 68.25 18.25 68.25-18.25 49.5-49.5 18.25-68.25zM384 224q0 52.25-25.75 96.375t-69.875 69.875-96.375 25.75-96.375-25.75-69.875-69.875-25.75-96.375 25.75-96.375 69.875-69.875 96.375-25.75 96.375 25.75 69.875 69.875 25.75 96.375z"></path>
</svg>
