<?xml version="1.0" encoding="utf-8"?>
<!-- Generated by IcoMoon.io -->
<!DOCTYPE svg PUBLIC "-//W3C//DTD SVG 1.1//EN" "http://www.w3.org/Graphics/SVG/1.1/DTD/svg11.dtd">
<svg version="1.1" xmlns="http://www.w3.org/2000/svg" xmlns:xlink="http://www.w3.org/1999/xlink" width="416" height="448" viewBox="0 0 416 448">
<g id="icomoon-ignore">
</g>
<path d="M402.75 242.75q0 12.75-9.25 22.5l-18.75 18.75q-9.5 9.5-22.75 9.5-13.5 0-22.5-9.5l-73.5-73.25v176q0 13-9.375 21.125t-22.625 8.125h-32q-13.25 0-22.625-8.125t-9.375-21.125v-176l-73.5 73.25q-9 9.5-22.5 9.5t-22.5-9.5l-18.75-18.75q-9.5-9.5-9.5-22.5 0-13.25 9.5-22.75l162.75-162.75q8.75-9.25 22.5-9.25 13.5 0 22.75 9.25l162.75 162.75q9.25 9.75 9.25 22.75z"></path>
</svg>
