<?xml version="1.0" encoding="utf-8"?>
<!-- Generated by IcoMoon.io -->
<!DOCTYPE svg PUBLIC "-//W3C//DTD SVG 1.1//EN" "http://www.w3.org/Graphics/SVG/1.1/DTD/svg11.dtd">
<svg version="1.1" xmlns="http://www.w3.org/2000/svg" xmlns:xlink="http://www.w3.org/1999/xlink" width="384" height="448" viewBox="0 0 384 448">
<g id="icomoon-ignore">
</g>
<path d="M279.5 219q-2 5-7.5 5h-48v88q0 3.5-2.25 5.75t-5.75 2.25h-48q-3.5 0-5.75-2.25t-2.25-5.75v-88h-48q-3.5 0-5.75-2.25t-2.25-5.75q0-3 2.5-6l79.75-79.75q2.75-2.25 5.75-2.25t5.75 2.25l80 80q3.75 4 1.75 8.75zM192 88q-37 0-68.25 18.25t-49.5 49.5-18.25 68.25 18.25 68.25 49.5 49.5 68.25 18.25 68.25-18.25 49.5-49.5 18.25-68.25-18.25-68.25-49.5-49.5-68.25-18.25zM384 224q0 52.25-25.75 96.375t-69.875 69.875-96.375 25.75-96.375-25.75-69.875-69.875-25.75-96.375 25.75-96.375 69.875-69.875 96.375-25.75 96.375 25.75 69.875 69.875 25.75 96.375z"></path>
</svg>
