<?xml version="1.0" encoding="utf-8"?>
<!-- Generated by IcoMoon.io -->
<!DOCTYPE svg PUBLIC "-//W3C//DTD SVG 1.1//EN" "http://www.w3.org/Graphics/SVG/1.1/DTD/svg11.dtd">
<svg version="1.1" xmlns="http://www.w3.org/2000/svg" xmlns:xlink="http://www.w3.org/1999/xlink" width="368" height="448" viewBox="0 0 368 448">
<g id="icomoon-ignore">
</g>
<path d="M368 240q0 13.5-9.25 22.75l-162.75 162.75q-9.75 9.25-22.75 9.25-12.75 0-22.5-9.25l-18.75-18.75q-9.5-9.5-9.5-22.75t9.5-22.75l73.25-73.25h-176q-13 0-21.125-9.375t-8.125-22.625v-32q0-13.25 8.125-22.625t21.125-9.375h176l-73.25-73.5q-9.5-9-9.5-22.5t9.5-22.5l18.75-18.75q9.5-9.5 22.5-9.5 13.25 0 22.75 9.5l162.75 162.75q9.25 8.75 9.25 22.5z"></path>
</svg>
