<?xml version="1.0" encoding="utf-8"?>
<!-- Generated by IcoMoon.io -->
<!DOCTYPE svg PUBLIC "-//W3C//DTD SVG 1.1//EN" "http://www.w3.org/Graphics/SVG/1.1/DTD/svg11.dtd">
<svg version="1.1" xmlns="http://www.w3.org/2000/svg" xmlns:xlink="http://www.w3.org/1999/xlink" width="416" height="448" viewBox="0 0 416 448">
<g id="icomoon-ignore">
</g>
<path d="M402.75 208q0 13.25-9.25 22.5l-162.75 163q-9.75 9.25-22.75 9.25-13.25 0-22.5-9.25l-162.75-163q-9.5-9-9.5-22.5 0-13.25 9.5-22.75l18.5-18.75q9.75-9.25 22.75-9.25 13.25 0 22.5 9.25l73.5 73.5v-176q0-13 9.5-22.5t22.5-9.5h32q13 0 22.5 9.5t9.5 22.5v176l73.5-73.5q9.25-9.25 22.5-9.25 13 0 22.75 9.25l18.75 18.75q9.25 9.75 9.25 22.75z"></path>
</svg>
