<?xml version="1.0" encoding="utf-8"?>
<!-- Generated by IcoMoon.io -->
<!DOCTYPE svg PUBLIC "-//W3C//DTD SVG 1.1//EN" "http://www.w3.org/Graphics/SVG/1.1/DTD/svg11.dtd">
<svg version="1.1" xmlns="http://www.w3.org/2000/svg" xmlns:xlink="http://www.w3.org/1999/xlink" width="400" height="448" viewBox="0 0 400 448">
<g id="icomoon-ignore">
</g>
<path d="M384 224v32q0 13.25-8.125 22.625t-21.125 9.375h-176l73.25 73.5q9.5 9 9.5 22.5t-9.5 22.5l-18.75 19q-9.25 9.25-22.5 9.25-13 0-22.75-9.25l-162.75-163q-9.25-9.25-9.25-22.5 0-13 9.25-22.75l162.75-162.5q9.5-9.5 22.75-9.5 13 0 22.5 9.5l18.75 18.5q9.5 9.5 9.5 22.75t-9.5 22.75l-73.25 73.25h176q13 0 21.125 9.375t8.125 22.625z"></path>
</svg>
