<?xml version="1.0" encoding="utf-8"?>
<!-- Generated by IcoMoon.io -->
<!DOCTYPE svg PUBLIC "-//W3C//DTD SVG 1.1//EN" "http://www.w3.org/Graphics/SVG/1.1/DTD/svg11.dtd">
<svg version="1.1" xmlns="http://www.w3.org/2000/svg" xmlns:xlink="http://www.w3.org/1999/xlink" width="480" height="448" viewBox="0 0 480 448">
<g id="icomoon-ignore">
</g>
<path d="M240 168q29.75 0 50.875 21.125t21.125 50.875-21.125 50.875-50.875 21.125-50.875-21.125-21.125-50.875 21.125-50.875 50.875-21.125zM416 64q26.5 0 45.25 18.75t18.75 45.25v224q0 26.5-18.75 45.25t-45.25 18.75h-352q-26.5 0-45.25-18.75t-18.75-45.25v-224q0-26.5 18.75-45.25t45.25-18.75h56l12.75-34q4.75-12.25 17.375-21.125t25.875-8.875h128q13.25 0 25.875 8.875t17.375 21.125l12.75 34h56zM240 352q46.25 0 79.125-32.875t32.875-79.125-32.875-79.125-79.125-32.875-79.125 32.875-32.875 79.125 32.875 79.125 79.125 32.875z"></path>
</svg>
