<?xml version="1.0" encoding="utf-8"?>
<!-- Generated by IcoMoon.io -->
<!DOCTYPE svg PUBLIC "-//W3C//DTD SVG 1.1//EN" "http://www.w3.org/Graphics/SVG/1.1/DTD/svg11.dtd">
<svg version="1.1" xmlns="http://www.w3.org/2000/svg" xmlns:xlink="http://www.w3.org/1999/xlink" width="416" height="448" viewBox="0 0 416 448">
<g id="icomoon-ignore">
</g>
<path d="M352 232.5v79.5q0 29.75-21.125 50.875t-50.875 21.125h-208q-29.75 0-50.875-21.125t-21.125-50.875v-208q0-29.75 21.125-50.875t50.875-21.125h208q15.75 0 29.25 6.25 3.75 1.75 4.5 5.75 0.75 4.25-2.25 7.25l-12.25 12.25q-2.5 2.5-5.75 2.5-0.75 0-2.25-0.5-5.75-1.5-11.25-1.5h-208q-16.5 0-28.25 11.75t-11.75 28.25v208q0 16.5 11.75 28.25t28.25 11.75h208q16.5 0 28.25-11.75t11.75-28.25v-63.5q0-3.25 2.25-5.5l16-16q2.5-2.5 5.75-2.5 1.5 0 3 0.75 5 2 5 7.25zM409.75 110.25l-203.5 203.5q-6 6-14.25 6t-14.25-6l-107.5-107.5q-6-6-6-14.25t6-14.25l27.5-27.5q6-6 14.25-6t14.25 6l65.75 65.75 161.75-161.75q6-6 14.25-6t14.25 6l27.5 27.5q6 6 6 14.25t-6 14.25z"></path>
</svg>
