<?xml version="1.0" encoding="utf-8"?>
<!-- Generated by IcoMoon.io -->
<!DOCTYPE svg PUBLIC "-//W3C//DTD SVG 1.1//EN" "http://www.w3.org/Graphics/SVG/1.1/DTD/svg11.dtd">
<svg version="1.1" xmlns="http://www.w3.org/2000/svg" xmlns:xlink="http://www.w3.org/1999/xlink" width="384" height="448" viewBox="0 0 384 448">
<g id="icomoon-ignore">
</g>
<path d="M203.25 324.75l113.5-113.5q4.75-4.75 4.75-11.25t-4.75-11.25l-25.5-25.5q-4.75-4.75-11.25-4.75t-11.25 4.75l-76.75 76.75-76.75-76.75q-4.75-4.75-11.25-4.75t-11.25 4.75l-25.5 25.5q-4.75 4.75-4.75 11.25t4.75 11.25l113.5 113.5q4.75 4.75 11.25 4.75t11.25-4.75zM384 224q0 52.25-25.75 96.375t-69.875 69.875-96.375 25.75-96.375-25.75-69.875-69.875-25.75-96.375 25.75-96.375 69.875-69.875 96.375-25.75 96.375 25.75 69.875 69.875 25.75 96.375z"></path>
</svg>
