<?xml version="1.0" encoding="utf-8"?>
<!-- Generated by IcoMoon.io -->
<!DOCTYPE svg PUBLIC "-//W3C//DTD SVG 1.1//EN" "http://www.w3.org/Graphics/SVG/1.1/DTD/svg11.dtd">
<svg version="1.1" xmlns="http://www.w3.org/2000/svg" xmlns:xlink="http://www.w3.org/1999/xlink" width="416" height="448" viewBox="0 0 416 448">
<g id="icomoon-ignore">
</g>
<path d="M320 336q0-6.5-4.75-11.25t-11.25-4.75-11.25 4.75-4.75 11.25 4.75 11.25 11.25 4.75 11.25-4.75 4.75-11.25zM384 336q0-6.5-4.75-11.25t-11.25-4.75-11.25 4.75-4.75 11.25 4.75 11.25 11.25 4.75 11.25-4.75 4.75-11.25zM416 280v80q0 10-7 17t-17 7h-368q-10 0-17-7t-7-17v-80q0-10 7-17t17-7h116.25l33.75 34q14.5 14 34 14t34-14l34-34h116q10 0 17 7t7 17zM334.75 137.75q4.25 10.25-3.5 17.5l-112 112q-4.5 4.75-11.25 4.75t-11.25-4.75l-112-112q-7.75-7.25-3.5-17.5 4.25-9.75 14.75-9.75h64v-112q0-6.5 4.75-11.25t11.25-4.75h64q6.5 0 11.25 4.75t4.75 11.25v112h64q10.5 0 14.75 9.75z"></path>
</svg>
