<?xml version="1.0" encoding="utf-8"?>
<!-- Generated by IcoMoon.io -->
<!DOCTYPE svg PUBLIC "-//W3C//DTD SVG 1.1//EN" "http://www.w3.org/Graphics/SVG/1.1/DTD/svg11.dtd">
<svg version="1.1" xmlns="http://www.w3.org/2000/svg" xmlns:xlink="http://www.w3.org/1999/xlink" width="448" height="448" viewBox="0 0 448 448">
<g id="icomoon-ignore">
</g>
<path d="M448 296v48q0 3.25-2.375 5.625t-5.625 2.375h-344v48q0 3.25-2.375 5.625t-5.625 2.375q-3 0-6-2.5l-79.75-80q-2.25-2.25-2.25-5.5 0-3.5 2.25-5.75l80-80q2.25-2.25 5.75-2.25 3.25 0 5.625 2.375t2.375 5.625v48h344q3.25 0 5.625 2.375t2.375 5.625zM448 160q0 3.5-2.25 5.75l-80 80q-2.25 2.25-5.75 2.25-3.25 0-5.625-2.375t-2.375-5.625v-48h-344q-3.25 0-5.625-2.375t-2.375-5.625v-48q0-3.25 2.375-5.625t5.625-2.375h344v-48q0-3.5 2.25-5.75t5.75-2.25q3 0 6 2.5l79.75 79.75q2.25 2.25 2.25 5.75z"></path>
</svg>
