<?xml version="1.0" encoding="utf-8"?>
<!-- Generated by IcoMoon.io -->
<!DOCTYPE svg PUBLIC "-//W3C//DTD SVG 1.1//EN" "http://www.w3.org/Graphics/SVG/1.1/DTD/svg11.dtd">
<svg version="1.1" xmlns="http://www.w3.org/2000/svg" xmlns:xlink="http://www.w3.org/1999/xlink" width="448" height="448" viewBox="0 0 448 448">
<g id="icomoon-ignore">
</g>
<path d="M138.75 333.75l19.5-35.25q-21.75-15.75-34-39.75t-12.25-50.75q0-30.25 15.25-56.25-57.25 29.25-95.25 88.25 41.75 64.5 106.75 93.75zM236 144q0-5-3.5-8.5t-8.5-3.5q-31.25 0-53.625 22.375t-22.375 53.625q0 5 3.5 8.5t8.5 3.5 8.5-3.5 3.5-8.5q0-21.5 15.25-36.75t36.75-15.25q5 0 8.5-3.5t3.5-8.5zM326.75 96.25q0 1.75-0.25 2.25-26.25 47-78.75 141.5t-79 141.75l-12.25 22.25q-2.5 4-7 4-3 0-33.5-17.5-4-2.5-4-7 0-3 11-21.75-35.75-16.25-65.875-43.25t-52.125-61.25q-5-7.75-5-17.25t5-17.25q38.25-58.75 95-92.75t124-34q22.25 0 45 4.25l13.5-24.25q2.5-4 7-4 1.25 0 4.5 1.5t7.75 3.875 8.25 4.625 7.875 4.625 4.875 2.875q4 2.5 4 6.75zM336 208q0 34.75-19.75 63.375t-52.25 41.125l70-125.5q2 11.25 2 21zM448 240q0 8.75-5 17.25-9.75 16-27.25 36.25-37.5 43-86.875 66.75t-104.875 23.75l18.5-33q53-4.5 98.125-34.25t75.375-76.75q-28.75-44.75-70.5-73.5l15.75-28q23.75 16 45.625 38.25t36.125 46q5 8.5 5 17.25z"></path>
</svg>
