<?xml version="1.0" encoding="utf-8"?>
<!-- Generated by IcoMoon.io -->
<!DOCTYPE svg PUBLIC "-//W3C//DTD SVG 1.1//EN" "http://www.w3.org/Graphics/SVG/1.1/DTD/svg11.dtd">
<svg version="1.1" xmlns="http://www.w3.org/2000/svg" xmlns:xlink="http://www.w3.org/1999/xlink" width="448" height="448" viewBox="0 0 448 448">
<g id="icomoon-ignore">
</g>
<path d="M416 240q-38-59-95.25-88.25 15.25 26 15.25 56.25 0 46.25-32.875 79.125t-79.125 32.875-79.125-32.875-32.875-79.125q0-30.25 15.25-56.25-57.25 29.25-95.25 88.25 33.25 51.25 83.375 81.625t108.625 30.375 108.625-30.375 83.375-81.625zM236 144q0-5-3.5-8.5t-8.5-3.5q-31.25 0-53.625 22.375t-22.375 53.625q0 5 3.5 8.5t8.5 3.5 8.5-3.5 3.5-8.5q0-21.5 15.25-36.75t36.75-15.25q5 0 8.5-3.5t3.5-8.5zM448 240q0 8.5-5 17.25-35 57.5-94.125 92.125t-124.875 34.625-124.875-34.75-94.125-92q-5-8.75-5-17.25t5-17.25q35-57.25 94.125-92t124.875-34.75 124.875 34.75 94.125 92q5 8.75 5 17.25z"></path>
</svg>
