<?xml version="1.0" encoding="iso-8859-1"?>
<!-- Generator: Adobe Illustrator 16.0.0, SVG Export Plug-In . SVG Version: 6.00 Build 0)  -->
<!DOCTYPE svg PUBLIC "-//W3C//DTD SVG 1.1//EN" "http://www.w3.org/Graphics/SVG/1.1/DTD/svg11.dtd">
<svg version="1.1" id="Layer_1" xmlns="http://www.w3.org/2000/svg" xmlns:xlink="http://www.w3.org/1999/xlink" x="0px" y="0px"
	 width="128px" height="128px" viewBox="0 0 128 128" style="enable-background:new 0 0 128 128;" xml:space="preserve">
<g>
	<path d="M15.238,16.66l-7.781-4.312c-0.391-0.219-0.65-0.414-0.779-0.586s-0.193-0.391-0.193-0.656
		c0-0.336,0.121-0.625,0.363-0.867s0.527-0.363,0.855-0.363c0.203,0,0.516,0.113,0.938,0.34l11.59,6.445l-11.59,6.445
		c-0.422,0.234-0.734,0.352-0.938,0.352c-0.328,0-0.613-0.121-0.855-0.363s-0.363-0.535-0.363-0.879
		c0-0.266,0.064-0.484,0.193-0.656s0.389-0.367,0.779-0.586L15.238,16.66z"/>
	<path d="M27.086,15.265v5.836h3.422c0.578,0,0.99,0.111,1.236,0.334s0.369,0.514,0.369,0.873c0,0.352-0.123,0.639-0.369,0.861
		s-0.658,0.334-1.236,0.334h-7.254c-0.578,0-0.99-0.111-1.236-0.334s-0.369-0.514-0.369-0.873c0-0.352,0.123-0.639,0.369-0.861
		s0.658-0.334,1.236-0.334h1.43v-5.836h-1.148c-0.578,0-0.99-0.111-1.236-0.334s-0.369-0.514-0.369-0.873
		c0-0.352,0.123-0.639,0.369-0.861s0.658-0.334,1.236-0.334h1.148v-0.914c0-1.047,0.393-1.916,1.178-2.607s1.924-1.037,3.416-1.037
		c0.664,0,1.432,0.061,2.303,0.182s1.43,0.291,1.676,0.51s0.369,0.5,0.369,0.844c0,0.367-0.109,0.666-0.328,0.896
		s-0.488,0.346-0.809,0.346c-0.148,0-0.371-0.027-0.668-0.082c-0.992-0.195-1.871-0.293-2.637-0.293
		c-0.797,0-1.346,0.119-1.646,0.357s-0.451,0.533-0.451,0.885v0.914h3.703c0.578,0,0.99,0.111,1.236,0.334s0.369,0.514,0.369,0.873
		c0,0.352-0.123,0.639-0.369,0.861s-0.658,0.334-1.236,0.334H27.086z"/>
	<path d="M43.668,23.503v-0.562c-0.602,0.32-1.266,0.561-1.992,0.721s-1.387,0.24-1.98,0.24c-1.289,0-2.336-0.342-3.141-1.025
		s-1.207-1.439-1.207-2.268c0-1.008,0.514-1.943,1.541-2.807s2.447-1.295,4.26-1.295c0.727,0,1.566,0.078,2.52,0.234v-0.574
		c0-0.359-0.154-0.652-0.463-0.879s-0.896-0.34-1.764-0.34c-0.711,0-1.633,0.141-2.766,0.422c-0.422,0.102-0.75,0.152-0.984,0.152
		c-0.32,0-0.592-0.115-0.814-0.346s-0.334-0.525-0.334-0.885c0-0.203,0.039-0.379,0.117-0.527s0.188-0.268,0.328-0.357
		s0.434-0.197,0.879-0.322c0.594-0.164,1.199-0.295,1.816-0.393s1.176-0.146,1.676-0.146c1.492,0,2.65,0.322,3.475,0.967
		s1.236,1.525,1.236,2.643v4.945h0.41c0.578,0,0.99,0.111,1.236,0.334s0.369,0.514,0.369,0.873c0,0.352-0.123,0.639-0.369,0.861
		s-0.658,0.334-1.236,0.334H43.668z M43.668,19.203c-0.961-0.188-1.848-0.281-2.66-0.281c-0.977,0-1.816,0.238-2.52,0.715
		c-0.438,0.305-0.656,0.613-0.656,0.926c0,0.227,0.105,0.41,0.316,0.551c0.391,0.258,0.926,0.387,1.605,0.387
		c0.578,0,1.232-0.113,1.963-0.34s1.381-0.535,1.951-0.926V19.203z"/>
	<path d="M58.504,15.675c-0.391-0.242-0.801-0.424-1.23-0.545s-0.879-0.182-1.348-0.182c-0.93,0-1.668,0.152-2.215,0.457
		c-0.242,0.133-0.363,0.277-0.363,0.434c0,0.18,0.164,0.355,0.492,0.527c0.25,0.125,0.809,0.246,1.676,0.363
		c1.594,0.219,2.703,0.438,3.328,0.656c0.82,0.289,1.453,0.719,1.898,1.289s0.668,1.172,0.668,1.805
		c0,0.859-0.379,1.578-1.137,2.156c-1.086,0.836-2.496,1.254-4.23,1.254c-0.695,0-1.338-0.061-1.928-0.182s-1.131-0.299-1.623-0.533
		c-0.117,0.102-0.242,0.18-0.375,0.234s-0.27,0.082-0.41,0.082c-0.375,0-0.674-0.123-0.896-0.369s-0.334-0.658-0.334-1.236v-0.809
		c0-0.578,0.111-0.99,0.334-1.236s0.514-0.369,0.873-0.369c0.289,0,0.531,0.08,0.727,0.24s0.348,0.436,0.457,0.826
		c0.367,0.312,0.809,0.549,1.324,0.709s1.109,0.24,1.781,0.24c1.102,0,1.957-0.172,2.566-0.516c0.289-0.172,0.434-0.352,0.434-0.539
		c0-0.312-0.207-0.57-0.621-0.773s-1.27-0.375-2.566-0.516c-1.93-0.203-3.219-0.594-3.867-1.172
		c-0.648-0.57-0.973-1.273-0.973-2.109c0-0.859,0.363-1.574,1.09-2.145c0.984-0.781,2.273-1.172,3.867-1.172
		c0.555,0,1.088,0.053,1.6,0.158s1.002,0.268,1.471,0.486c0.148-0.109,0.287-0.191,0.416-0.246s0.248-0.082,0.357-0.082
		c0.328,0,0.602,0.123,0.82,0.369s0.328,0.658,0.328,1.236v0.586c0,0.523-0.062,0.879-0.188,1.066
		c-0.25,0.359-0.59,0.539-1.02,0.539c-0.289,0-0.543-0.09-0.762-0.27S58.566,15.972,58.504,15.675z"/>
	<path d="M69.719,15.265v4.816c0,0.516,0.105,0.855,0.316,1.02c0.328,0.258,0.914,0.387,1.758,0.387
		c1.227,0,2.359-0.262,3.398-0.785c0.398-0.203,0.711-0.305,0.938-0.305c0.312,0,0.584,0.117,0.814,0.352s0.346,0.52,0.346,0.855
		c0,0.312-0.125,0.582-0.375,0.809c-0.383,0.367-1.139,0.705-2.268,1.014s-2.08,0.463-2.854,0.463c-1.492,0-2.611-0.322-3.357-0.967
		s-1.119-1.436-1.119-2.373v-5.285h-0.867c-0.578,0-0.99-0.111-1.236-0.334s-0.369-0.514-0.369-0.873
		c0-0.352,0.123-0.639,0.369-0.861s0.658-0.334,1.236-0.334h0.867v-2.168c0-0.578,0.111-0.99,0.334-1.236s0.514-0.369,0.873-0.369
		c0.352,0,0.639,0.123,0.861,0.369s0.334,0.658,0.334,1.236v2.168h4.441c0.578,0,0.99,0.111,1.236,0.334s0.369,0.514,0.369,0.873
		c0,0.352-0.123,0.639-0.369,0.861s-0.658,0.334-1.236,0.334H69.719z"/>
	<path d="M86.875,23.503v-0.562c-0.602,0.32-1.266,0.561-1.992,0.721s-1.387,0.24-1.98,0.24c-1.289,0-2.336-0.342-3.141-1.025
		s-1.207-1.439-1.207-2.268c0-1.008,0.514-1.943,1.541-2.807s2.447-1.295,4.26-1.295c0.727,0,1.566,0.078,2.52,0.234v-0.574
		c0-0.359-0.154-0.652-0.463-0.879s-0.896-0.34-1.764-0.34c-0.711,0-1.633,0.141-2.766,0.422c-0.422,0.102-0.75,0.152-0.984,0.152
		c-0.32,0-0.592-0.115-0.814-0.346s-0.334-0.525-0.334-0.885c0-0.203,0.039-0.379,0.117-0.527s0.188-0.268,0.328-0.357
		s0.434-0.197,0.879-0.322c0.594-0.164,1.199-0.295,1.816-0.393s1.176-0.146,1.676-0.146c1.492,0,2.65,0.322,3.475,0.967
		s1.236,1.525,1.236,2.643v4.945h0.41c0.578,0,0.99,0.111,1.236,0.334s0.369,0.514,0.369,0.873c0,0.352-0.123,0.639-0.369,0.861
		s-0.658,0.334-1.236,0.334H86.875z M86.875,19.203c-0.961-0.188-1.848-0.281-2.66-0.281c-0.977,0-1.816,0.238-2.52,0.715
		c-0.438,0.305-0.656,0.613-0.656,0.926c0,0.227,0.105,0.41,0.316,0.551c0.391,0.258,0.926,0.387,1.605,0.387
		c0.578,0,1.232-0.113,1.963-0.34s1.381-0.535,1.951-0.926V19.203z"/>
	<path d="M16.904,51.553h-6.565l-0.659,1.648h0.659c0.65,0,1.114,0.125,1.391,0.375c0.276,0.251,0.415,0.578,0.415,0.982
		c0,0.396-0.139,0.719-0.415,0.969c-0.277,0.251-0.741,0.376-1.391,0.376H6.7c-0.65,0-1.114-0.125-1.391-0.376
		c-0.276-0.25-0.415-0.578-0.415-0.982s0.145-0.734,0.435-0.989s0.769-0.374,1.437-0.356l4.245-10.573H9.244
		c-0.65,0-1.114-0.125-1.391-0.375c-0.277-0.251-0.416-0.578-0.416-0.982s0.138-0.731,0.416-0.982
		c0.276-0.25,0.74-0.375,1.391-0.375l5.84,0.013l5.379,13.276c0.633,0,1.05,0.07,1.252,0.211c0.404,0.29,0.606,0.672,0.606,1.147
		c0,0.396-0.136,0.719-0.409,0.969c-0.272,0.251-0.734,0.376-1.384,0.376h-3.639c-0.65,0-1.114-0.125-1.391-0.376
		c-0.277-0.25-0.416-0.578-0.416-0.982c0-0.396,0.138-0.718,0.416-0.969c0.276-0.25,0.74-0.375,1.391-0.375h0.659L16.904,51.553z
		 M15.783,48.85l-2.175-5.353l-2.188,5.353H15.783z"/>
	<path d="M31.116,42.627v10.573h1.819c0.65,0,1.114,0.125,1.391,0.375c0.277,0.251,0.416,0.578,0.416,0.982
		c0,0.396-0.138,0.719-0.416,0.969c-0.276,0.251-0.74,0.376-1.391,0.376h-6.328c-0.65,0-1.114-0.125-1.391-0.376
		c-0.277-0.25-0.416-0.578-0.416-0.982c0-0.396,0.138-0.718,0.416-0.969c0.276-0.25,0.74-0.375,1.391-0.375h1.806V42.627h-2.927
		v2.558c0,0.65-0.125,1.114-0.375,1.391c-0.251,0.276-0.578,0.415-0.982,0.415c-0.396,0-0.719-0.139-0.969-0.415
		c-0.251-0.277-0.376-0.741-0.376-1.391v-5.273l14.001,0.013v5.26c0,0.65-0.125,1.114-0.376,1.391
		c-0.25,0.276-0.578,0.415-0.982,0.415c-0.396,0-0.718-0.139-0.969-0.415c-0.25-0.277-0.375-0.741-0.375-1.391v-2.558H31.116z"/>
	<path d="M50.245,40.61c0.167-0.229,0.35-0.4,0.547-0.514c0.198-0.114,0.411-0.171,0.64-0.171c0.396,0,0.719,0.136,0.969,0.409
		c0.251,0.272,0.376,0.734,0.376,1.384v2.294c0,0.65-0.125,1.114-0.376,1.391c-0.25,0.277-0.573,0.416-0.969,0.416
		c-0.36,0-0.65-0.101-0.87-0.303s-0.382-0.58-0.488-1.134c-0.062-0.369-0.185-0.655-0.369-0.857
		c-0.36-0.396-0.864-0.712-1.509-0.949c-0.646-0.237-1.294-0.356-1.945-0.356c-0.809,0-1.551,0.176-2.228,0.527
		s-1.274,0.923-1.793,1.714s-0.778,1.731-0.778,2.821v1.753c0,1.301,0.472,2.386,1.417,3.256c0.944,0.87,2.256,1.305,3.935,1.305
		c1.002,0,1.85-0.136,2.544-0.409c0.404-0.158,0.835-0.47,1.292-0.936c0.281-0.281,0.501-0.463,0.659-0.547
		c0.158-0.083,0.338-0.125,0.541-0.125c0.36,0,0.677,0.136,0.949,0.409s0.409,0.593,0.409,0.962s-0.185,0.765-0.554,1.187
		c-0.536,0.615-1.226,1.099-2.07,1.45c-1.134,0.475-2.386,0.712-3.757,0.712c-1.6,0-3.041-0.33-4.324-0.989
		c-1.037-0.527-1.92-1.36-2.65-2.499c-0.729-1.138-1.094-2.379-1.094-3.724v-1.833c0-1.406,0.327-2.718,0.982-3.936
		c0.654-1.217,1.562-2.155,2.722-2.814s2.391-0.989,3.691-0.989c0.782,0,1.514,0.09,2.195,0.27
		C49.021,39.967,49.656,40.241,50.245,40.61z"/>
	<path d="M69.018,50.959v3.625c-1.221,0.659-2.26,1.11-3.117,1.352c-0.857,0.241-1.782,0.362-2.775,0.362
		c-1.38,0-2.659-0.207-3.836-0.62c-0.923-0.316-1.65-0.716-2.182-1.2s-1.021-1.197-1.47-2.143c-0.448-0.944-0.672-2.001-0.672-3.17
		v-1.951c0-1.802,0.549-3.41,1.648-4.825c1.477-1.916,3.485-2.874,6.025-2.874c0.738,0,1.439,0.075,2.103,0.224
		c0.664,0.149,1.294,0.374,1.892,0.672c0.359-0.325,0.711-0.488,1.055-0.488c0.395,0,0.715,0.136,0.961,0.409
		s0.369,0.734,0.369,1.384v1.753c0,0.65-0.125,1.114-0.375,1.391c-0.25,0.276-0.574,0.415-0.969,0.415
		c-0.316,0-0.59-0.097-0.818-0.29c-0.176-0.132-0.322-0.424-0.441-0.877c-0.117-0.452-0.252-0.758-0.401-0.916
		c-0.237-0.255-0.657-0.481-1.259-0.679c-0.602-0.198-1.276-0.297-2.023-0.297c-1.072,0-2.004,0.22-2.795,0.659
		c-0.562,0.325-1.081,0.892-1.556,1.701s-0.712,1.688-0.712,2.637v1.951c0,1.45,0.419,2.551,1.259,3.302
		c0.839,0.752,2.173,1.127,4.001,1.127c1.239,0,2.369-0.233,3.389-0.699v-1.938h-2.756c-0.65,0-1.114-0.125-1.391-0.375
		c-0.276-0.251-0.415-0.578-0.415-0.982s0.139-0.731,0.415-0.982c0.277-0.25,0.741-0.375,1.391-0.375l4.799,0.013
		c0.65,0,1.113,0.123,1.391,0.369s0.416,0.571,0.416,0.976c0,0.316-0.096,0.593-0.283,0.831
		C69.693,50.669,69.404,50.845,69.018,50.959z"/>
	<path d="M82.65,40.61c0.167-0.229,0.35-0.4,0.547-0.514c0.198-0.114,0.411-0.171,0.64-0.171c0.396,0,0.719,0.136,0.969,0.409
		c0.251,0.272,0.376,0.734,0.376,1.384v2.294c0,0.65-0.125,1.114-0.376,1.391c-0.25,0.277-0.573,0.416-0.969,0.416
		c-0.36,0-0.65-0.101-0.87-0.303s-0.383-0.58-0.488-1.134c-0.062-0.369-0.184-0.655-0.369-0.857
		c-0.36-0.396-0.863-0.712-1.509-0.949c-0.646-0.237-1.295-0.356-1.944-0.356c-0.81,0-1.552,0.176-2.229,0.527
		s-1.274,0.923-1.793,1.714s-0.777,1.731-0.777,2.821v1.753c0,1.301,0.472,2.386,1.417,3.256c0.944,0.87,2.256,1.305,3.935,1.305
		c1.002,0,1.851-0.136,2.545-0.409c0.404-0.158,0.835-0.47,1.292-0.936c0.281-0.281,0.501-0.463,0.659-0.547
		c0.158-0.083,0.338-0.125,0.541-0.125c0.359,0,0.676,0.136,0.949,0.409c0.271,0.272,0.408,0.593,0.408,0.962
		s-0.185,0.765-0.554,1.187c-0.536,0.615-1.226,1.099-2.069,1.45c-1.135,0.475-2.387,0.712-3.758,0.712
		c-1.6,0-3.041-0.33-4.324-0.989c-1.037-0.527-1.921-1.36-2.65-2.499c-0.729-1.138-1.094-2.379-1.094-3.724v-1.833
		c0-1.406,0.327-2.718,0.982-3.936c0.654-1.217,1.562-2.155,2.723-2.814s2.39-0.989,3.691-0.989c0.781,0,1.514,0.09,2.194,0.27
		C81.427,39.967,82.062,40.241,82.65,40.61z"/>
	<path d="M101.424,50.959v3.625c-1.222,0.659-2.261,1.11-3.117,1.352c-0.857,0.241-1.782,0.362-2.775,0.362
		c-1.38,0-2.659-0.207-3.836-0.62c-0.924-0.316-1.65-0.716-2.183-1.2c-0.531-0.483-1.021-1.197-1.47-2.143
		c-0.448-0.944-0.672-2.001-0.672-3.17v-1.951c0-1.802,0.549-3.41,1.647-4.825c1.477-1.916,3.484-2.874,6.024-2.874
		c0.738,0,1.439,0.075,2.104,0.224c0.663,0.149,1.294,0.374,1.892,0.672c0.36-0.325,0.712-0.488,1.055-0.488
		c0.396,0,0.716,0.136,0.962,0.409s0.369,0.734,0.369,1.384v1.753c0,0.65-0.125,1.114-0.375,1.391
		c-0.251,0.276-0.574,0.415-0.969,0.415c-0.316,0-0.59-0.097-0.818-0.29c-0.176-0.132-0.322-0.424-0.441-0.877
		c-0.118-0.452-0.253-0.758-0.402-0.916c-0.236-0.255-0.656-0.481-1.259-0.679c-0.602-0.198-1.276-0.297-2.023-0.297
		c-1.072,0-2.004,0.22-2.795,0.659c-0.562,0.325-1.081,0.892-1.556,1.701s-0.712,1.688-0.712,2.637v1.951
		c0,1.45,0.42,2.551,1.259,3.302c0.84,0.752,2.173,1.127,4.002,1.127c1.238,0,2.368-0.233,3.388-0.699v-1.938h-2.755
		c-0.651,0-1.114-0.125-1.392-0.375c-0.276-0.251-0.415-0.578-0.415-0.982s0.139-0.731,0.415-0.982
		c0.277-0.25,0.74-0.375,1.392-0.375l4.799,0.013c0.649,0,1.113,0.123,1.391,0.369c0.276,0.246,0.415,0.571,0.415,0.976
		c0,0.316-0.095,0.593-0.283,0.831C102.099,50.669,101.811,50.845,101.424,50.959z"/>
	<path d="M117.626,50.959v3.625c-1.222,0.659-2.261,1.11-3.117,1.352c-0.857,0.241-1.782,0.362-2.775,0.362
		c-1.38,0-2.659-0.207-3.836-0.62c-0.924-0.316-1.65-0.716-2.183-1.2c-0.531-0.483-1.021-1.197-1.47-2.143
		c-0.448-0.944-0.672-2.001-0.672-3.17v-1.951c0-1.802,0.549-3.41,1.647-4.825c1.477-1.916,3.484-2.874,6.024-2.874
		c0.738,0,1.439,0.075,2.104,0.224c0.663,0.149,1.294,0.374,1.892,0.672c0.36-0.325,0.712-0.488,1.055-0.488
		c0.396,0,0.716,0.136,0.962,0.409s0.369,0.734,0.369,1.384v1.753c0,0.65-0.125,1.114-0.375,1.391
		c-0.251,0.276-0.574,0.415-0.969,0.415c-0.316,0-0.59-0.097-0.818-0.29c-0.176-0.132-0.322-0.424-0.441-0.877
		c-0.118-0.452-0.253-0.758-0.402-0.916c-0.236-0.255-0.656-0.481-1.259-0.679c-0.602-0.198-1.276-0.297-2.023-0.297
		c-1.072,0-2.004,0.22-2.795,0.659c-0.562,0.325-1.081,0.892-1.556,1.701s-0.712,1.688-0.712,2.637v1.951
		c0,1.45,0.42,2.551,1.259,3.302c0.84,0.752,2.173,1.127,4.002,1.127c1.238,0,2.368-0.233,3.388-0.699v-1.938h-2.755
		c-0.651,0-1.114-0.125-1.392-0.375c-0.276-0.251-0.415-0.578-0.415-0.982s0.139-0.731,0.415-0.982
		c0.277-0.25,0.74-0.375,1.392-0.375l4.799,0.013c0.649,0,1.113,0.123,1.391,0.369c0.276,0.246,0.415,0.571,0.415,0.976
		c0,0.316-0.095,0.593-0.283,0.831C118.301,50.669,118.013,50.845,117.626,50.959z"/>
	<path d="M17.84,73.011c0.167-0.229,0.35-0.399,0.547-0.515c0.198-0.113,0.411-0.171,0.64-0.171c0.396,0,0.719,0.136,0.969,0.409
		c0.251,0.271,0.376,0.733,0.376,1.384v2.294c0,0.65-0.125,1.114-0.376,1.391c-0.25,0.277-0.573,0.416-0.969,0.416
		c-0.36,0-0.65-0.102-0.87-0.304s-0.382-0.58-0.488-1.134c-0.062-0.369-0.185-0.654-0.369-0.857
		c-0.36-0.395-0.864-0.711-1.509-0.949c-0.646-0.236-1.294-0.355-1.945-0.355c-0.809,0-1.551,0.176-2.228,0.527
		s-1.274,0.923-1.793,1.714s-0.778,1.731-0.778,2.821v1.753c0,1.302,0.472,2.387,1.417,3.257c0.944,0.87,2.256,1.306,3.935,1.306
		c1.002,0,1.85-0.137,2.544-0.409c0.404-0.158,0.835-0.47,1.292-0.937c0.281-0.28,0.501-0.463,0.659-0.547
		c0.158-0.083,0.338-0.125,0.541-0.125c0.36,0,0.677,0.137,0.949,0.408c0.272,0.273,0.409,0.594,0.409,0.963
		s-0.185,0.765-0.554,1.187c-0.536,0.615-1.226,1.099-2.07,1.45c-1.134,0.475-2.386,0.712-3.757,0.712
		c-1.6,0-3.041-0.329-4.324-0.989c-1.037-0.527-1.92-1.359-2.65-2.498c-0.729-1.138-1.094-2.379-1.094-3.725v-1.832
		c0-1.406,0.327-2.718,0.982-3.936c0.654-1.217,1.562-2.155,2.722-2.814s2.391-0.989,3.691-0.989c0.782,0,1.514,0.091,2.195,0.271
		C16.616,72.367,17.251,72.642,17.84,73.011z"/>
	<path d="M31.116,75.027v10.573h1.819c0.65,0,1.114,0.126,1.391,0.376c0.277,0.251,0.416,0.578,0.416,0.982
		c0,0.396-0.138,0.719-0.416,0.969c-0.276,0.251-0.74,0.376-1.391,0.376h-6.328c-0.65,0-1.114-0.125-1.391-0.376
		c-0.277-0.25-0.416-0.577-0.416-0.981c0-0.396,0.138-0.719,0.416-0.97c0.276-0.25,0.74-0.376,1.391-0.376h1.806V75.027h-2.927
		v2.559c0,0.65-0.125,1.113-0.375,1.391c-0.251,0.276-0.578,0.415-0.982,0.415c-0.396,0-0.719-0.139-0.969-0.415
		c-0.251-0.277-0.376-0.74-0.376-1.391v-5.273l14.001,0.013v5.261c0,0.65-0.125,1.113-0.376,1.391
		c-0.25,0.276-0.578,0.415-0.982,0.415c-0.396,0-0.718-0.139-0.969-0.415c-0.25-0.277-0.375-0.74-0.375-1.391v-2.559H31.116z"/>
	<path d="M49.309,83.953h-6.565l-0.659,1.647h0.659c0.65,0,1.114,0.126,1.391,0.376c0.276,0.251,0.415,0.578,0.415,0.982
		c0,0.396-0.139,0.719-0.415,0.969c-0.277,0.251-0.741,0.376-1.391,0.376h-3.639c-0.65,0-1.114-0.125-1.391-0.376
		c-0.276-0.25-0.415-0.577-0.415-0.981s0.145-0.734,0.435-0.989s0.769-0.373,1.437-0.356l4.245-10.573h-1.767
		c-0.65,0-1.114-0.125-1.391-0.375c-0.277-0.251-0.416-0.578-0.416-0.982s0.138-0.731,0.416-0.982
		c0.276-0.25,0.74-0.375,1.391-0.375l5.84,0.013l5.379,13.275c0.633,0,1.05,0.071,1.252,0.211c0.404,0.291,0.606,0.673,0.606,1.147
		c0,0.396-0.136,0.719-0.409,0.969c-0.272,0.251-0.734,0.376-1.384,0.376h-3.639c-0.65,0-1.114-0.125-1.391-0.376
		c-0.277-0.25-0.416-0.577-0.416-0.981c0-0.396,0.138-0.719,0.416-0.97c0.276-0.25,0.74-0.376,1.391-0.376h0.659L49.309,83.953z
		 M48.188,81.251l-2.175-5.353l-2.188,5.353H48.188z"/>
	<path d="M69.018,83.36v3.625c-1.221,0.659-2.26,1.109-3.117,1.352c-0.857,0.241-1.782,0.362-2.775,0.362
		c-1.38,0-2.659-0.207-3.836-0.62c-0.923-0.316-1.65-0.716-2.182-1.199s-1.021-1.197-1.47-2.143
		c-0.448-0.944-0.672-2.001-0.672-3.17v-1.951c0-1.802,0.549-3.411,1.648-4.825c1.477-1.916,3.485-2.875,6.025-2.875
		c0.738,0,1.439,0.075,2.103,0.225c0.664,0.149,1.294,0.373,1.892,0.672c0.359-0.324,0.711-0.487,1.055-0.487
		c0.395,0,0.715,0.136,0.961,0.409c0.246,0.271,0.369,0.733,0.369,1.384v1.753c0,0.65-0.125,1.114-0.375,1.392
		c-0.25,0.276-0.574,0.415-0.969,0.415c-0.316,0-0.59-0.097-0.818-0.29c-0.176-0.132-0.322-0.424-0.441-0.877
		c-0.117-0.452-0.252-0.758-0.401-0.916c-0.237-0.255-0.657-0.481-1.259-0.679c-0.602-0.198-1.276-0.297-2.023-0.297
		c-1.072,0-2.004,0.22-2.795,0.659c-0.562,0.325-1.081,0.892-1.556,1.7s-0.712,1.688-0.712,2.638v1.951
		c0,1.449,0.419,2.551,1.259,3.302c0.839,0.752,2.173,1.128,4.001,1.128c1.239,0,2.369-0.233,3.389-0.699V83.36h-2.756
		c-0.65,0-1.114-0.126-1.391-0.376c-0.276-0.251-0.415-0.578-0.415-0.982s0.139-0.731,0.415-0.982
		c0.277-0.25,0.741-0.376,1.391-0.376l4.799,0.014c0.65,0,1.113,0.123,1.391,0.369s0.416,0.571,0.416,0.976
		c0,0.316-0.096,0.593-0.283,0.831C69.693,83.069,69.404,83.246,69.018,83.36z"/>
	<path d="M85.221,83.36v3.625c-1.222,0.659-2.261,1.109-3.117,1.352c-0.857,0.241-1.782,0.362-2.775,0.362
		c-1.38,0-2.659-0.207-3.836-0.62c-0.924-0.316-1.65-0.716-2.183-1.199c-0.531-0.483-1.021-1.197-1.47-2.143
		c-0.448-0.944-0.672-2.001-0.672-3.17v-1.951c0-1.802,0.549-3.411,1.647-4.825c1.477-1.916,3.484-2.875,6.024-2.875
		c0.738,0,1.439,0.075,2.104,0.225c0.663,0.149,1.294,0.373,1.892,0.672c0.36-0.324,0.712-0.487,1.055-0.487
		c0.396,0,0.716,0.136,0.962,0.409c0.246,0.271,0.369,0.733,0.369,1.384v1.753c0,0.65-0.125,1.114-0.375,1.392
		c-0.251,0.276-0.574,0.415-0.969,0.415c-0.316,0-0.59-0.097-0.818-0.29c-0.176-0.132-0.322-0.424-0.441-0.877
		c-0.118-0.452-0.253-0.758-0.402-0.916c-0.236-0.255-0.656-0.481-1.259-0.679c-0.602-0.198-1.276-0.297-2.023-0.297
		c-1.072,0-2.004,0.22-2.795,0.659c-0.562,0.325-1.081,0.892-1.556,1.7s-0.712,1.688-0.712,2.638v1.951
		c0,1.449,0.42,2.551,1.259,3.302c0.84,0.752,2.173,1.128,4.002,1.128c1.238,0,2.368-0.233,3.388-0.699V83.36h-2.755
		c-0.651,0-1.114-0.126-1.392-0.376c-0.276-0.251-0.415-0.578-0.415-0.982s0.139-0.731,0.415-0.982
		c0.277-0.25,0.74-0.376,1.392-0.376l4.799,0.014c0.649,0,1.113,0.123,1.391,0.369c0.276,0.246,0.415,0.571,0.415,0.976
		c0,0.316-0.095,0.593-0.283,0.831C85.896,83.069,85.607,83.246,85.221,83.36z"/>
	<path d="M97.918,83.953h-6.566l-0.658,1.647h0.658c0.65,0,1.114,0.126,1.392,0.376c0.276,0.251,0.415,0.578,0.415,0.982
		c0,0.396-0.139,0.719-0.415,0.969c-0.277,0.251-0.741,0.376-1.392,0.376h-3.639c-0.65,0-1.113-0.125-1.391-0.376
		c-0.276-0.25-0.415-0.577-0.415-0.981s0.146-0.734,0.435-0.989c0.291-0.255,0.77-0.373,1.438-0.356l4.245-10.573h-1.767
		c-0.65,0-1.114-0.125-1.391-0.375c-0.277-0.251-0.416-0.578-0.416-0.982s0.139-0.731,0.416-0.982
		c0.276-0.25,0.74-0.375,1.391-0.375l5.84,0.013l5.379,13.275c0.633,0,1.051,0.071,1.253,0.211c0.404,0.291,0.606,0.673,0.606,1.147
		c0,0.396-0.137,0.719-0.408,0.969c-0.273,0.251-0.734,0.376-1.385,0.376h-3.639c-0.65,0-1.114-0.125-1.391-0.376
		c-0.277-0.25-0.416-0.577-0.416-0.981c0-0.396,0.139-0.719,0.416-0.97c0.276-0.25,0.74-0.376,1.391-0.376h0.659L97.918,83.953z
		 M96.797,81.251l-2.176-5.353l-2.188,5.353H96.797z"/>
	<path d="M112.129,75.027v10.573h1.819c0.65,0,1.114,0.126,1.391,0.376c0.277,0.251,0.416,0.578,0.416,0.982
		c0,0.396-0.139,0.719-0.416,0.969c-0.276,0.251-0.74,0.376-1.391,0.376h-6.328c-0.65,0-1.114-0.125-1.391-0.376
		c-0.277-0.25-0.416-0.577-0.416-0.981c0-0.396,0.139-0.719,0.416-0.97c0.276-0.25,0.74-0.376,1.391-0.376h1.807V75.027h-2.928
		v2.559c0,0.65-0.125,1.113-0.375,1.391c-0.251,0.276-0.578,0.415-0.982,0.415c-0.396,0-0.719-0.139-0.969-0.415
		c-0.251-0.277-0.376-0.74-0.376-1.391v-5.273l14.001,0.013v5.261c0,0.65-0.125,1.113-0.376,1.391
		c-0.25,0.276-0.578,0.415-0.981,0.415c-0.396,0-0.719-0.139-0.97-0.415c-0.25-0.277-0.376-0.74-0.376-1.391v-2.559H112.129z"/>
	<path d="M16.904,116.353h-6.565L9.679,118h0.659c0.65,0,1.114,0.126,1.391,0.376c0.276,0.251,0.415,0.578,0.415,0.982
		c0,0.396-0.139,0.719-0.415,0.969c-0.277,0.251-0.741,0.376-1.391,0.376H6.7c-0.65,0-1.114-0.125-1.391-0.376
		c-0.276-0.25-0.415-0.577-0.415-0.981s0.145-0.734,0.435-0.989s0.769-0.373,1.437-0.356l4.245-10.572H9.244
		c-0.65,0-1.114-0.126-1.391-0.376c-0.277-0.251-0.416-0.578-0.416-0.982s0.138-0.731,0.416-0.982
		c0.276-0.25,0.74-0.376,1.391-0.376l5.84,0.014L20.463,118c0.633,0,1.05,0.071,1.252,0.211c0.404,0.291,0.606,0.673,0.606,1.147
		c0,0.396-0.136,0.719-0.409,0.969c-0.272,0.251-0.734,0.376-1.384,0.376h-3.639c-0.65,0-1.114-0.125-1.391-0.376
		c-0.277-0.25-0.416-0.577-0.416-0.981c0-0.396,0.138-0.719,0.416-0.97c0.276-0.25,0.74-0.376,1.391-0.376h0.659L16.904,116.353z
		 M15.783,113.65l-2.175-5.354l-2.188,5.354H15.783z"/>
	<path d="M33.106,116.353h-6.565L25.882,118h0.659c0.65,0,1.114,0.126,1.391,0.376c0.276,0.251,0.415,0.578,0.415,0.982
		c0,0.396-0.139,0.719-0.415,0.969c-0.277,0.251-0.741,0.376-1.391,0.376h-3.639c-0.65,0-1.114-0.125-1.391-0.376
		c-0.276-0.25-0.415-0.577-0.415-0.981s0.145-0.734,0.435-0.989s0.769-0.373,1.437-0.356l4.245-10.572h-1.767
		c-0.65,0-1.114-0.126-1.391-0.376c-0.277-0.251-0.416-0.578-0.416-0.982s0.138-0.731,0.416-0.982
		c0.276-0.25,0.74-0.376,1.391-0.376l5.84,0.014L36.666,118c0.633,0,1.05,0.071,1.252,0.211c0.404,0.291,0.606,0.673,0.606,1.147
		c0,0.396-0.136,0.719-0.409,0.969c-0.272,0.251-0.734,0.376-1.384,0.376h-3.639c-0.65,0-1.114-0.125-1.391-0.376
		c-0.277-0.25-0.416-0.577-0.416-0.981c0-0.396,0.138-0.719,0.416-0.97c0.276-0.25,0.74-0.376,1.391-0.376h0.659L33.106,116.353z
		 M31.986,113.65l-2.175-5.354l-2.188,5.354H31.986z"/>
	<path d="M52.816,115.76v3.625c-1.222,0.659-2.261,1.109-3.118,1.352c-0.857,0.241-1.782,0.362-2.775,0.362
		c-1.38,0-2.659-0.207-3.836-0.62c-0.923-0.316-1.65-0.716-2.182-1.199s-1.021-1.197-1.47-2.143
		c-0.448-0.944-0.672-2.001-0.672-3.17v-1.951c0-1.802,0.549-3.41,1.648-4.826c1.477-1.915,3.485-2.873,6.025-2.873
		c0.738,0,1.439,0.074,2.103,0.224c0.663,0.149,1.294,0.374,1.892,0.673c0.36-0.325,0.712-0.488,1.055-0.488
		c0.396,0,0.716,0.137,0.962,0.408c0.246,0.273,0.369,0.734,0.369,1.385v1.754c0,0.65-0.125,1.113-0.375,1.391
		c-0.251,0.276-0.574,0.415-0.969,0.415c-0.316,0-0.589-0.097-0.817-0.29c-0.176-0.132-0.323-0.424-0.442-0.877
		c-0.118-0.452-0.252-0.758-0.402-0.916c-0.237-0.255-0.657-0.481-1.259-0.679c-0.602-0.198-1.276-0.297-2.023-0.297
		c-1.072,0-2.004,0.22-2.795,0.659c-0.562,0.325-1.081,0.893-1.556,1.701s-0.712,1.688-0.712,2.637v1.951
		c0,1.449,0.419,2.551,1.259,3.302c0.839,0.752,2.173,1.128,4.001,1.128c1.239,0,2.369-0.233,3.388-0.699v-1.938h-2.755
		c-0.65,0-1.114-0.126-1.391-0.376c-0.276-0.251-0.415-0.578-0.415-0.982s0.139-0.731,0.415-0.982
		c0.277-0.25,0.741-0.376,1.391-0.376l4.799,0.014c0.65,0,1.114,0.123,1.391,0.369c0.276,0.246,0.415,0.571,0.415,0.976
		c0,0.316-0.095,0.593-0.283,0.831C53.49,115.469,53.203,115.646,52.816,115.76z"/>
	<path d="M69.018,115.76v3.625c-1.221,0.659-2.26,1.109-3.117,1.352c-0.857,0.241-1.782,0.362-2.775,0.362
		c-1.38,0-2.659-0.207-3.836-0.62c-0.923-0.316-1.65-0.716-2.182-1.199s-1.021-1.197-1.47-2.143
		c-0.448-0.944-0.672-2.001-0.672-3.17v-1.951c0-1.802,0.549-3.41,1.648-4.826c1.477-1.915,3.485-2.873,6.025-2.873
		c0.738,0,1.439,0.074,2.103,0.224c0.664,0.149,1.294,0.374,1.892,0.673c0.359-0.325,0.711-0.488,1.055-0.488
		c0.395,0,0.715,0.137,0.961,0.408c0.246,0.273,0.369,0.734,0.369,1.385v1.754c0,0.65-0.125,1.113-0.375,1.391
		c-0.25,0.276-0.574,0.415-0.969,0.415c-0.316,0-0.59-0.097-0.818-0.29c-0.176-0.132-0.322-0.424-0.441-0.877
		c-0.117-0.452-0.252-0.758-0.401-0.916c-0.237-0.255-0.657-0.481-1.259-0.679c-0.602-0.198-1.276-0.297-2.023-0.297
		c-1.072,0-2.004,0.22-2.795,0.659c-0.562,0.325-1.081,0.893-1.556,1.701s-0.712,1.688-0.712,2.637v1.951
		c0,1.449,0.419,2.551,1.259,3.302c0.839,0.752,2.173,1.128,4.001,1.128c1.239,0,2.369-0.233,3.389-0.699v-1.938h-2.756
		c-0.65,0-1.114-0.126-1.391-0.376c-0.276-0.251-0.415-0.578-0.415-0.982s0.139-0.731,0.415-0.982
		c0.277-0.25,0.741-0.376,1.391-0.376l4.799,0.014c0.65,0,1.113,0.123,1.391,0.369s0.416,0.571,0.416,0.976
		c0,0.316-0.096,0.593-0.283,0.831C69.693,115.469,69.404,115.646,69.018,115.76z"/>
	<path d="M82.65,105.41c0.167-0.229,0.35-0.399,0.547-0.514c0.198-0.114,0.411-0.172,0.64-0.172c0.396,0,0.719,0.137,0.969,0.408
		c0.251,0.273,0.376,0.734,0.376,1.385v2.294c0,0.65-0.125,1.114-0.376,1.391c-0.25,0.277-0.573,0.415-0.969,0.415
		c-0.36,0-0.65-0.101-0.87-0.303s-0.383-0.58-0.488-1.134c-0.062-0.369-0.184-0.654-0.369-0.856
		c-0.36-0.396-0.863-0.713-1.509-0.949c-0.646-0.238-1.295-0.356-1.944-0.356c-0.81,0-1.552,0.176-2.229,0.527
		s-1.274,0.923-1.793,1.714s-0.777,1.731-0.777,2.821v1.753c0,1.302,0.472,2.387,1.417,3.257c0.944,0.87,2.256,1.306,3.935,1.306
		c1.002,0,1.851-0.137,2.545-0.409c0.404-0.158,0.835-0.47,1.292-0.937c0.281-0.28,0.501-0.463,0.659-0.547
		c0.158-0.083,0.338-0.125,0.541-0.125c0.359,0,0.676,0.137,0.949,0.408c0.271,0.273,0.408,0.594,0.408,0.963
		s-0.185,0.765-0.554,1.187c-0.536,0.615-1.226,1.099-2.069,1.45c-1.135,0.475-2.387,0.712-3.758,0.712
		c-1.6,0-3.041-0.329-4.324-0.989c-1.037-0.527-1.921-1.359-2.65-2.498c-0.729-1.138-1.094-2.379-1.094-3.725v-1.832
		c0-1.406,0.327-2.718,0.982-3.936c0.654-1.217,1.562-2.155,2.723-2.814s2.39-0.988,3.691-0.988c0.781,0,1.514,0.09,2.194,0.27
		C81.427,104.767,82.062,105.041,82.65,105.41z"/>
	<path d="M95.927,107.428V118h1.819c0.65,0,1.114,0.126,1.391,0.376c0.277,0.251,0.416,0.578,0.416,0.982
		c0,0.396-0.139,0.719-0.416,0.969c-0.276,0.251-0.74,0.376-1.391,0.376h-6.328c-0.65,0-1.114-0.125-1.391-0.376
		c-0.277-0.25-0.416-0.577-0.416-0.981c0-0.396,0.139-0.719,0.416-0.97c0.276-0.25,0.74-0.376,1.391-0.376h1.807v-10.572h-2.928
		v2.557c0,0.651-0.125,1.114-0.375,1.392c-0.251,0.276-0.578,0.415-0.982,0.415c-0.396,0-0.719-0.139-0.969-0.415
		c-0.251-0.277-0.376-0.74-0.376-1.392v-5.273l14.001,0.014v5.26c0,0.651-0.125,1.114-0.376,1.392
		c-0.25,0.276-0.578,0.415-0.981,0.415c-0.396,0-0.719-0.139-0.97-0.415c-0.25-0.277-0.376-0.74-0.376-1.392v-2.557H95.927z"/>
	<path d="M117.626,115.76v3.625c-1.222,0.659-2.261,1.109-3.117,1.352c-0.857,0.241-1.782,0.362-2.775,0.362
		c-1.38,0-2.659-0.207-3.836-0.62c-0.924-0.316-1.65-0.716-2.183-1.199c-0.531-0.483-1.021-1.197-1.47-2.143
		c-0.448-0.944-0.672-2.001-0.672-3.17v-1.951c0-1.802,0.549-3.41,1.647-4.826c1.477-1.915,3.484-2.873,6.024-2.873
		c0.738,0,1.439,0.074,2.104,0.224c0.663,0.149,1.294,0.374,1.892,0.673c0.36-0.325,0.712-0.488,1.055-0.488
		c0.396,0,0.716,0.137,0.962,0.408c0.246,0.273,0.369,0.734,0.369,1.385v1.754c0,0.65-0.125,1.113-0.375,1.391
		c-0.251,0.276-0.574,0.415-0.969,0.415c-0.316,0-0.59-0.097-0.818-0.29c-0.176-0.132-0.322-0.424-0.441-0.877
		c-0.118-0.452-0.253-0.758-0.402-0.916c-0.236-0.255-0.656-0.481-1.259-0.679c-0.602-0.198-1.276-0.297-2.023-0.297
		c-1.072,0-2.004,0.22-2.795,0.659c-0.562,0.325-1.081,0.893-1.556,1.701s-0.712,1.688-0.712,2.637v1.951
		c0,1.449,0.42,2.551,1.259,3.302c0.84,0.752,2.173,1.128,4.002,1.128c1.238,0,2.368-0.233,3.388-0.699v-1.938h-2.755
		c-0.651,0-1.114-0.126-1.392-0.376c-0.276-0.251-0.415-0.578-0.415-0.982s0.139-0.731,0.415-0.982
		c0.277-0.25,0.74-0.376,1.392-0.376l4.799,0.014c0.649,0,1.113,0.123,1.391,0.369c0.276,0.246,0.415,0.571,0.415,0.976
		c0,0.316-0.095,0.593-0.283,0.831C118.301,115.469,118.013,115.646,117.626,115.76z"/>
</g>
</svg>
