<?xml version="1.0" encoding="utf-8"?>
<!-- Generated by IcoMoon.io -->
<!DOCTYPE svg PUBLIC "-//W3C//DTD SVG 1.1//EN" "http://www.w3.org/Graphics/SVG/1.1/DTD/svg11.dtd">
<svg version="1.1" xmlns="http://www.w3.org/2000/svg" xmlns:xlink="http://www.w3.org/1999/xlink" width="27" height="32" viewBox="0 0 27 32">
<path fill="#000" d="M26.214 6.786q0.5 0.5 0.857 1.357t0.357 1.571v20.571q0 0.714-0.5 1.214t-1.214 0.5h-24q-0.714 0-1.214-0.5t-0.5-1.214v-28.571q0-0.714 0.5-1.214t1.214-0.5h16q0.714 0 1.571 0.357t1.357 0.857zM18.286 2.429v6.714h6.714q-0.179-0.518-0.393-0.732l-5.589-5.589q-0.214-0.214-0.732-0.393zM25.143 29.714v-18.286h-7.429q-0.714 0-1.214-0.5t-0.5-1.214v-7.429h-13.714v27.429h22.857zM11.071 15.179q0.357 0.143 0.357 0.536v9.714q0 0.393-0.357 0.536-0.143 0.036-0.214 0.036-0.214 0-0.411-0.161l-2.964-2.982h-2.339q-0.25 0-0.411-0.161t-0.161-0.411v-3.429q0-0.25 0.161-0.411t0.411-0.161h2.339l2.964-2.982q0.286-0.268 0.625-0.125zM18.518 27.482q0.554 0 0.893-0.429 2.304-2.839 2.304-6.482t-2.304-6.482q-0.286-0.375-0.768-0.429t-0.839 0.25q-0.375 0.304-0.42 0.777t0.259 0.848q1.786 2.196 1.786 5.036t-1.786 5.036q-0.304 0.375-0.259 0.848t0.42 0.759q0.321 0.268 0.714 0.268zM14.75 24.839q0.482 0 0.839-0.357 1.554-1.661 1.554-3.911t-1.554-3.911q-0.321-0.339-0.804-0.357t-0.821 0.304-0.357 0.795 0.321 0.83q0.929 1.018 0.929 2.339t-0.929 2.339q-0.339 0.357-0.321 0.83t0.357 0.795q0.357 0.304 0.786 0.304z"></path>
</svg>
