<?xml version="1.0" encoding="utf-8"?>
<!-- Generated by IcoMoon.io -->
<!DOCTYPE svg PUBLIC "-//W3C//DTD SVG 1.1//EN" "http://www.w3.org/Graphics/SVG/1.1/DTD/svg11.dtd">
<svg version="1.1" xmlns="http://www.w3.org/2000/svg" xmlns:xlink="http://www.w3.org/1999/xlink" width="27" height="32" viewBox="0 0 27 32">
<path fill="#000" d="M26.214 6.786q0.5 0.5 0.857 1.357t0.357 1.571v20.571q0 0.714-0.5 1.214t-1.214 0.5h-24q-0.714 0-1.214-0.5t-0.5-1.214v-28.571q0-0.714 0.5-1.214t1.214-0.5h16q0.714 0 1.571 0.357t1.357 0.857zM18.286 2.429v6.714h6.714q-0.179-0.518-0.393-0.732l-5.589-5.589q-0.214-0.214-0.732-0.393zM25.143 29.714v-18.286h-7.429q-0.714 0-1.214-0.5t-0.5-1.214v-7.429h-13.714v27.429h22.857zM8.571 13.714q0.143-0.196 0.375-0.223t0.429 0.116l0.911 0.679q0.196 0.143 0.223 0.375t-0.116 0.429l-3.25 4.339 3.25 4.339q0.143 0.196 0.116 0.429t-0.223 0.375l-0.911 0.679q-0.196 0.143-0.429 0.116t-0.375-0.223l-4.036-5.375q-0.25-0.339 0-0.679zM22.893 19.089q0.25 0.339 0 0.679l-4.036 5.375q-0.143 0.196-0.375 0.223t-0.429-0.116l-0.911-0.679q-0.196-0.143-0.223-0.375t0.116-0.429l3.25-4.339-3.25-4.339q-0.143-0.196-0.116-0.429t0.223-0.375l0.911-0.679q0.196-0.143 0.429-0.116t0.375 0.223zM11.821 27.321q-0.232-0.036-0.366-0.232t-0.098-0.429l2.464-14.839q0.036-0.232 0.232-0.366t0.429-0.098l1.125 0.179q0.232 0.036 0.366 0.232t0.098 0.429l-2.464 14.839q-0.036 0.232-0.232 0.366t-0.429 0.098z"></path>
</svg>
