<?xml version="1.0" encoding="utf-8"?>
<!-- Generated by IcoMoon.io -->
<!DOCTYPE svg PUBLIC "-//W3C//DTD SVG 1.1//EN" "http://www.w3.org/Graphics/SVG/1.1/DTD/svg11.dtd">
<svg version="1.1" xmlns="http://www.w3.org/2000/svg" xmlns:xlink="http://www.w3.org/1999/xlink" width="27" height="32" viewBox="0 0 27 32">
<path fill="#000" d="M26.214 6.786q0.5 0.5 0.857 1.357t0.357 1.571v20.571q0 0.714-0.5 1.214t-1.214 0.5h-24q-0.714 0-1.214-0.5t-0.5-1.214v-28.571q0-0.714 0.5-1.214t1.214-0.5h16q0.714 0 1.571 0.357t1.357 0.857zM18.286 2.429v6.714h6.714q-0.179-0.518-0.393-0.732l-5.589-5.589q-0.214-0.214-0.732-0.393zM25.143 29.714v-18.286h-7.429q-0.714 0-1.214-0.5t-0.5-1.214v-7.429h-13.714v27.429h22.857zM7.661 25.536v1.893h5.018v-1.893h-1.339l1.839-2.875q0.089-0.125 0.179-0.295t0.134-0.241 0.063-0.071h0.036q0.018 0.071 0.089 0.179 0.036 0.071 0.080 0.134t0.107 0.143 0.116 0.152l1.911 2.875h-1.357v1.893h5.196v-1.893h-1.214l-3.429-4.875 3.482-5.036h1.196v-1.911h-4.982v1.911h1.321l-1.839 2.839q-0.071 0.125-0.179 0.295t-0.161 0.241l-0.036 0.054h-0.036q-0.018-0.071-0.089-0.179-0.107-0.196-0.304-0.411l-1.893-2.839h1.357v-1.911h-5.179v1.911h1.214l3.375 4.857-3.464 5.054h-1.214z"></path>
</svg>
