<?xml version="1.0" encoding="utf-8"?>
<!-- Generated by IcoMoon.io -->
<!DOCTYPE svg PUBLIC "-//W3C//DTD SVG 1.1//EN" "http://www.w3.org/Graphics/SVG/1.1/DTD/svg11.dtd">
<svg version="1.1" xmlns="http://www.w3.org/2000/svg" xmlns:xlink="http://www.w3.org/1999/xlink" width="27" height="32" viewBox="0 0 27 32">
<path fill="#000" d="M26.214 6.786q0.5 0.5 0.857 1.357t0.357 1.571v20.571q0 0.714-0.5 1.214t-1.214 0.5h-24q-0.714 0-1.214-0.5t-0.5-1.214v-28.571q0-0.714 0.5-1.214t1.214-0.5h16q0.714 0 1.571 0.357t1.357 0.857zM18.286 2.429v6.714h6.714q-0.179-0.518-0.393-0.732l-5.589-5.589q-0.214-0.214-0.732-0.393zM25.143 29.714v-18.286h-7.429q-0.714 0-1.214-0.5t-0.5-1.214v-7.429h-13.714v27.429h22.857zM15.964 19.125q0.589 0.464 1.5 1 1.054-0.125 2.089-0.125 2.625 0 3.161 0.875 0.286 0.393 0.036 0.929 0 0.018-0.018 0.036l-0.036 0.036v0.018q-0.107 0.679-1.268 0.679-0.857 0-2.054-0.357t-2.321-0.946q-3.946 0.429-7 1.482-2.732 4.679-4.321 4.679-0.268 0-0.5-0.125l-0.429-0.214q-0.018-0.018-0.107-0.089-0.179-0.179-0.107-0.643 0.161-0.714 1-1.634t2.357-1.723q0.25-0.161 0.411 0.107 0.036 0.036 0.036 0.071 0.929-1.518 1.911-3.518 1.214-2.429 1.857-4.679-0.429-1.464-0.545-2.848t0.116-2.277q0.196-0.714 0.75-0.714h0.393q0.411 0 0.625 0.268 0.321 0.375 0.161 1.214-0.036 0.107-0.071 0.143 0.018 0.054 0.018 0.143v0.536q-0.036 2.196-0.25 3.429 0.982 2.929 2.607 4.25zM5.679 26.464q0.929-0.429 2.446-2.821-0.911 0.714-1.563 1.5t-0.884 1.321zM12.786 10.036q-0.268 0.75-0.036 2.357 0.018-0.125 0.125-0.786 0-0.054 0.125-0.768 0.018-0.071 0.071-0.143-0.018-0.018-0.018-0.036t-0.009-0.027-0.009-0.027q-0.018-0.393-0.232-0.643 0 0.018-0.018 0.036v0.036zM10.571 21.839q2.411-0.964 5.071-1.446-0.036-0.018-0.232-0.17t-0.286-0.241q-1.357-1.196-2.268-3.143-0.482 1.536-1.482 3.518-0.536 1-0.804 1.482zM22.107 21.554q-0.429-0.429-2.5-0.429 1.357 0.5 2.214 0.5 0.25 0 0.321-0.018 0-0.018-0.036-0.054z"></path>
</svg>
