<?xml version="1.0" encoding="utf-8"?>
<!-- Generated by IcoMoon.io -->
<!DOCTYPE svg PUBLIC "-//W3C//DTD SVG 1.1//EN" "http://www.w3.org/Graphics/SVG/1.1/DTD/svg11.dtd">
<svg version="1.1" xmlns="http://www.w3.org/2000/svg" xmlns:xlink="http://www.w3.org/1999/xlink" width="27" height="32" viewBox="0 0 27 32">
<path fill="#000" d="M26.214 6.786q0.5 0.5 0.857 1.357t0.357 1.571v20.571q0 0.714-0.5 1.214t-1.214 0.5h-24q-0.714 0-1.214-0.5t-0.5-1.214v-28.571q0-0.714 0.5-1.214t1.214-0.5h16q0.714 0 1.571 0.357t1.357 0.857zM18.286 2.429v6.714h6.714q-0.179-0.518-0.393-0.732l-5.589-5.589q-0.214-0.214-0.732-0.393zM25.143 29.714v-18.286h-7.429q-0.714 0-1.214-0.5t-0.5-1.214v-7.429h-13.714v27.429h22.857zM4.161 13.714v1.911h1.25l2.929 11.804h2.839l2.286-8.661q0.125-0.357 0.179-0.821 0.036-0.286 0.036-0.429h0.071l0.054 0.429q0.018 0.054 0.063 0.357t0.098 0.464l2.286 8.661h2.839l2.929-11.804h1.25v-1.911h-5.357v1.911h1.607l-1.768 7.821q-0.089 0.357-0.125 0.821l-0.036 0.375h-0.071l-0.054-0.375q-0.018-0.089-0.071-0.375t-0.089-0.446l-2.571-9.732h-2.036l-2.571 9.732q-0.036 0.161-0.080 0.438t-0.063 0.384l-0.071 0.375h-0.071l-0.036-0.375q-0.036-0.464-0.125-0.821l-1.768-7.821h1.607v-1.911h-5.357z"></path>
</svg>
