<?xml version="1.0" encoding="utf-8"?>
<!-- Generated by IcoMoon.io -->
<!DOCTYPE svg PUBLIC "-//W3C//DTD SVG 1.1//EN" "http://www.w3.org/Graphics/SVG/1.1/DTD/svg11.dtd">
<svg version="1.1" xmlns="http://www.w3.org/2000/svg" xmlns:xlink="http://www.w3.org/1999/xlink" width="27" height="32" viewBox="0 0 27 32">
<path fill="#000" d="M26.214 6.786q0.5 0.5 0.857 1.357t0.357 1.571v20.571q0 0.714-0.5 1.214t-1.214 0.5h-24q-0.714 0-1.214-0.5t-0.5-1.214v-28.571q0-0.714 0.5-1.214t1.214-0.5h16q0.714 0 1.571 0.357t1.357 0.857zM18.286 2.429v6.714h6.714q-0.179-0.518-0.393-0.732l-5.589-5.589q-0.214-0.214-0.732-0.393zM25.143 29.714v-18.286h-7.429q-0.714 0-1.214-0.5t-0.5-1.214v-7.429h-13.714v27.429h22.857zM13.714 13.714q0.929 0 1.607 0.679t0.679 1.607v6.857q0 0.929-0.679 1.607t-1.607 0.679h-6.857q-0.929 0-1.607-0.679t-0.679-1.607v-6.857q0-0.929 0.679-1.607t1.607-0.679h6.857zM22.5 13.75q0.357 0.143 0.357 0.536v10.286q0 0.393-0.357 0.536-0.143 0.036-0.214 0.036-0.25 0-0.411-0.161l-4.732-4.75v-1.607l4.732-4.75q0.161-0.161 0.411-0.161 0.071 0 0.214 0.036z"></path>
</svg>
