<?xml version="1.0" encoding="utf-8"?>
<!-- Generated by IcoMoon.io -->
<!DOCTYPE svg PUBLIC "-//W3C//DTD SVG 1.1//EN" "http://www.w3.org/Graphics/SVG/1.1/DTD/svg11.dtd">
<svg version="1.1" xmlns="http://www.w3.org/2000/svg" xmlns:xlink="http://www.w3.org/1999/xlink" width="464" height="448" viewBox="0 0 464 448">
<g id="icomoon-ignore">
</g>
<path d="M208 250v-48q-45.25 4-96 29.25v46.25q51.25-24 96-27.5zM208 145.5v-49.25q-43 2-96 31.5v47.25q53.75-27.75 96-29.5zM416 261.25v-46q-58.75 29-96 17.75v-56q-5-1.5-9.75-3.75-1.25-0.75-8.25-4.25t-8.625-4.25-7.875-3.75-8.625-3.875-8.125-3.25-9-3.125-8.75-2.125-9.875-1.875-9.875-1-11-0.5q-5.75 0-12.25 0.75v55.5h4.75q25.5 0 48.125 7.25t49.375 20.5q4.75 2.25 9.75 3.75v47q10.5 4.25 22.75 4.25 30 0 73.25-23zM416 154.5v-47.25q-42.25 22.75-76.5 22.75-11.25 0-19.5-2v49q37 10.5 96-22.5zM80 64q0 8.75-4.375 16t-11.625 11.5v316.5q0 3.5-2.25 5.75t-5.75 2.25h-16q-3.5 0-5.75-2.25t-2.25-5.75v-316.5q-7.25-4.25-11.625-11.5t-4.375-16q0-13.25 9.375-22.625t22.625-9.375 22.625 9.375 9.375 22.625zM448 80v190.75q0 9.75-8.75 14.25-2.5 1.25-4.25 2.25-54.5 29-92.25 29-22 0-39.5-8.75l-7-3.5q-16-8.25-24.75-12t-22.75-7.25-28.5-3.5q-25.5 0-58.875 11t-57.125 25.5q-3.75 2.25-8.25 2.25-4 0-8-2-8-4.75-8-14v-185.5q0-8.75 7.75-13.75 8.75-5.25 19.625-10.625t28.5-13 38.125-12.375 38.75-4.75q28 0 52.25 7.75t52.25 21.5q9.5 4.75 22.25 4.75 30.5 0 77.5-28 5.5-3 7.75-4.25 7.75-4 15.5 0.5 7.75 5 7.75 13.75z"></path>
</svg>
