<?xml version="1.0" encoding="utf-8"?>
<!-- Generated by IcoMoon.io -->
<!DOCTYPE svg PUBLIC "-//W3C//DTD SVG 1.1//EN" "http://www.w3.org/Graphics/SVG/1.1/DTD/svg11.dtd">
<svg version="1.1" xmlns="http://www.w3.org/2000/svg" xmlns:xlink="http://www.w3.org/1999/xlink" width="32" height="32" viewBox="0 0 32 32">
<path fill="#000" d="M28.429 23.429v-12.571q0-0.714-0.5-1.214t-1.214-0.5h-12.571q-0.714 0-1.214-0.5t-0.5-1.214v-1.143q0-0.714-0.5-1.214t-1.214-0.5h-5.714q-0.714 0-1.214 0.5t-0.5 1.214v17.143q0 0.714 0.5 1.214t1.214 0.5h21.714q0.714 0 1.214-0.5t0.5-1.214zM30.714 10.857v12.571q0 1.643-1.179 2.821t-2.821 1.179h-21.714q-1.643 0-2.821-1.179t-1.179-2.821v-17.143q0-1.643 1.179-2.821t2.821-1.179h5.714q1.643 0 2.821 1.179t1.179 2.821v0.571h12q1.643 0 2.821 1.179t1.179 2.821z"></path>
</svg>
