<?xml version="1.0" encoding="utf-8"?>
<!-- Generated by IcoMoon.io -->
<!DOCTYPE svg PUBLIC "-//W3C//DTD SVG 1.1//EN" "http://www.w3.org/Graphics/SVG/1.1/DTD/svg11.dtd">
<svg version="1.1" xmlns="http://www.w3.org/2000/svg" xmlns:xlink="http://www.w3.org/1999/xlink" width="470" height="448" viewBox="0 0 470 448">
<g id="icomoon-ignore">
</g>
<path d="M469.75 238q0 7.75-7.75 16.5l-84 99q-10.75 12.75-30.125 21.625t-35.875 8.875h-272q-8.5 0-15.125-3.25t-6.625-10.75q0-7.75 7.75-16.5l84-99q10.75-12.75 30.125-21.625t35.875-8.875h272q8.5 0 15.125 3.25t6.625 10.75zM384 152v40h-208q-23.5 0-49.25 11.875t-41 29.875l-85.5 100.5q0-1-0.125-3.125t-0.125-3.125v-240q0-23 16.5-39.5t39.5-16.5h80q23 0 39.5 16.5t16.5 39.5v8h136q23 0 39.5 16.5t16.5 39.5z"></path>
</svg>
