<?xml version="1.0" encoding="iso-8859-1"?>
<!-- Generator: Adobe Illustrator 16.0.0, SVG Export Plug-In . SVG Version: 6.00 Build 0)  -->
<!DOCTYPE svg PUBLIC "-//W3C//DTD SVG 1.1//EN" "http://www.w3.org/Graphics/SVG/1.1/DTD/svg11.dtd">
<svg version="1.1" id="Layer_1" xmlns="http://www.w3.org/2000/svg" xmlns:xlink="http://www.w3.org/1999/xlink" x="0px" y="0px"
	 width="128px" height="128px" viewBox="0 0 128 128" style="enable-background:new 0 0 128 128;" xml:space="preserve">
<g>
	<path style="display:none;" d="M123.247,63.785c0,32.572-26.404,58.965-58.969,58.965c-32.555,0-58.951-26.393-58.951-58.965
		c0-32.557,26.396-58.957,58.951-58.957C96.843,4.828,123.247,31.229,123.247,63.785z M64.278,14.312
		c-27.314,0-49.471,22.15-49.471,49.473c0,27.332,22.156,49.479,49.471,49.479c27.324,0,49.48-22.146,49.48-49.479
		C113.759,36.463,91.603,14.312,64.278,14.312z"/>
	<g>
		<g>
			<path d="M64.2,15.266l2.338,0.043l0.275-4.703c0.459,0.023,0.926,0.055,1.377,0.084l-0.34,4.688l5.533,0.744l0.936-4.607
				c1.348,0.26,2.684,0.568,3.99,0.928l-1.127,4.51l2.314,0.717l1.512-4.408c0.514,0.172,1.021,0.348,1.527,0.529l-1.568,4.398
				l3.064,1.223l1.881-4.24c2.729,1.213,5.33,2.658,7.795,4.299l-2.621,3.871l2.736,1.91l3.012-3.535
				c1.123,0.869,2.205,1.787,3.258,2.742l-3.102,3.574l1.557,1.451l3.307-3.344c0.273,0.27,0.545,0.549,0.811,0.822l-3.195,3.332
				l0.873,0.908l3.352-3.137c3.275,3.609,6.066,7.67,8.271,12.076l-4.139,1.99l2.721,6.424l4.326-1.346
				c0.156,0.453,0.295,0.914,0.438,1.377l-4.367,1.303l0.344,1.43l4.441-1.227c0.127,0.408,0.227,0.82,0.328,1.238l-4.412,1.119
				l0.373,1.855l4.492-0.885c0.211,1.02,0.391,2.059,0.529,3.104l-4.551,0.701l0.326,2.557l4.553-0.373
				c0.062,0.852,0.107,1.705,0.141,2.564l-4.732,0.264l0.053,1.656l5.271,0.006c0-29.77-24.135-53.904-53.9-53.904l0,0"/>
			<path d="M112.829,63.885l-0.045,2.34l4.691,0.273c-0.014,0.463-0.045,0.918-0.074,1.381l-4.68-0.338l-0.748,5.521l4.607,0.945
				c-0.258,1.348-0.568,2.68-0.93,3.984l-4.506-1.131l-0.717,2.312l4.404,1.516c-0.16,0.516-0.35,1.02-0.537,1.527l-4.396-1.562
				l-1.217,3.07l4.242,1.873c-1.217,2.725-2.66,5.332-4.303,7.795l-3.867-2.619l-1.902,2.736l3.523,3.002
				c-0.873,1.129-1.777,2.219-2.736,3.26l-3.576-3.104l-1.451,1.568l3.352,3.297c-0.281,0.275-0.553,0.549-0.836,0.812l-3.326-3.188
				l-0.904,0.867l3.133,3.354c-3.609,3.273-7.67,6.066-12.084,8.271l-1.98-4.139l-6.424,2.719l1.34,4.328
				c-0.451,0.148-0.91,0.295-1.369,0.434l-1.303-4.369l-1.434,0.346l1.223,4.449c-0.406,0.111-0.816,0.221-1.23,0.318l-1.123-4.4
				l-1.855,0.371l0.889,4.492c-1.031,0.201-2.059,0.383-3.104,0.525l-0.709-4.551l-2.549,0.316l0.365,4.555
				c-0.85,0.07-1.705,0.121-2.564,0.152l-0.264-4.48l-1.654,0.049v5.021c29.766,0,53.9-24.141,53.9-53.902l0,0"/>
		</g>
		<g>
			<path d="M64.45,112.514l-2.348-0.043l-0.271,4.703c-0.467-0.023-0.93-0.053-1.389-0.086l0.344-4.684l-5.518-0.738l-0.953,4.605
				c-1.342-0.26-2.674-0.57-3.984-0.926l1.131-4.508l-2.307-0.723l-1.52,4.406c-0.508-0.17-1.023-0.344-1.52-0.531l1.557-4.398
				l-3.072-1.221l-1.869,4.246c-2.729-1.221-5.334-2.658-7.795-4.305l2.617-3.873l-2.736-1.9l-3,3.525
				c-1.123-0.865-2.215-1.781-3.268-2.742l3.111-3.57l-1.576-1.451l-3.297,3.344c-0.271-0.271-0.545-0.545-0.803-0.822l3.182-3.332
				l-0.873-0.908l-3.346,3.137c-3.281-3.615-6.072-7.67-8.271-12.08l4.141-1.992l-2.723-6.414l-4.324,1.344
				c-0.15-0.457-0.307-0.916-0.438-1.381l4.373-1.295l-0.35-1.436l-4.453,1.227c-0.107-0.412-0.217-0.826-0.311-1.242l4.395-1.109
				l-0.373-1.865l-4.49,0.898c-0.201-1.031-0.373-2.068-0.523-3.115l4.555-0.705l-0.32-2.551l-4.555,0.371
				c-0.076-0.852-0.123-1.703-0.154-2.566l4.74-0.26l-0.047-1.648l-5.277-0.006c0,29.766,24.137,53.895,53.908,53.895l0,0"/>
			<path d="M15.819,63.902l0.047-2.348l-4.709-0.266c0.025-0.463,0.047-0.924,0.086-1.387l4.688,0.338l0.738-5.52l-4.605-0.941
				c0.258-1.354,0.561-2.682,0.926-3.992l4.498,1.135l0.734-2.316l-4.414-1.518c0.172-0.51,0.344-1.02,0.529-1.521l4.4,1.562
				l1.221-3.068l-4.248-1.875c1.225-2.725,2.666-5.332,4.305-7.791l3.881,2.615l1.904-2.736l-3.539-3.006
				c0.871-1.121,1.791-2.213,2.75-3.262l3.57,3.109l1.459-1.57l-3.352-3.297c0.264-0.277,0.545-0.547,0.824-0.816l3.33,3.193
				l0.904-0.869l-3.125-3.344c3.602-3.283,7.662-6.078,12.066-8.275l2.043,4.264l6.424-2.713l-1.404-4.463
				c0.467-0.148,0.922-0.297,1.389-0.438l1.295,4.559l1.434-0.344l-1.232-4.643c0.422-0.105,0.826-0.211,1.248-0.316l1.145,4.541
				l1.863-0.373l-0.918-4.627c1.02-0.203,2.057-0.383,3.102-0.527l0.701,4.689l2.557-0.326l-0.373-4.684
				c0.852-0.068,1.699-0.125,2.564-0.15l0.258,4.748l1.65-0.051l0.018-5.281c-29.771,0-53.908,24.135-53.908,53.9l0,0"/>
		</g>
	</g>
	<g>
		<g>
			<path d="M102.104,25.775l1.785,1.863l3.881-3.457c0.344,0.379,0.68,0.76,1.016,1.15l-3.914,3.379l3.717,4.889l4.336-2.857
				c0.85,1.252,1.645,2.533,2.387,3.83l-4.398,2.637l1.24,2.365l4.621-2.256c0.266,0.529,0.533,1.064,0.781,1.609l-4.662,2.205
				l1.451,3.338l4.77-1.844c1.17,3.078,2.072,6.232,2.713,9.434l-5.053,0.98l0.639,3.613l5.102-0.41
				c0.201,1.557,0.344,3.121,0.404,4.688l-5.207,0.363l0.092,2.35l5.178-0.035c0.008,0.424,0,0.85,0,1.277l-5.098,0.107
				l-0.023,1.387l5.059,0.168c-0.258,5.369-1.248,10.711-2.971,15.867l-4.779-1.674l-2.885,7.123l4.43,2.328
				c-0.242,0.469-0.484,0.941-0.742,1.41l-4.42-2.393l-0.85,1.391l4.438,2.51c-0.234,0.406-0.484,0.812-0.734,1.215l-4.297-2.562
				l-1.16,1.734l4.193,2.811c-0.639,0.961-1.301,1.906-2.01,2.836l-4.092-3l-1.74,2.236l3.834,3.264
				c-0.605,0.717-1.229,1.424-1.885,2.119l-3.898-3.492l-1.246,1.33l4.117,4.117c23.199-23.209,23.199-60.848,0-84.059l0,0"/>
			<path d="M102.12,101.594l-1.871,1.787l3.461,3.879c-0.381,0.35-0.764,0.682-1.154,1.016l-3.381-3.914l-4.883,3.723l2.854,4.334
				c-1.248,0.846-2.535,1.643-3.834,2.389l-2.637-4.398l-2.361,1.234l2.254,4.625c-0.533,0.271-1.061,0.52-1.607,0.773l-2.207-4.652
				l-3.336,1.445l1.848,4.768c-3.088,1.178-6.234,2.086-9.441,2.725l-0.973-5.064l-3.617,0.65l0.406,5.1
				c-1.553,0.199-3.121,0.33-4.68,0.4l-0.367-5.205l-2.344,0.086l0.029,5.186c-0.422,0.004-0.85,0-1.279-0.01l-0.109-5.09
				l-1.379-0.021l-0.172,5.051c-5.371-0.26-10.719-1.25-15.863-2.967l1.676-4.777l-7.127-2.887l-2.33,4.422
				c-0.469-0.238-0.936-0.48-1.41-0.732l2.393-4.42l-1.387-0.85l-2.51,4.426c-0.406-0.229-0.812-0.473-1.217-0.715l2.564-4.305
				l-1.738-1.156l-2.809,4.195c-0.965-0.641-1.91-1.312-2.836-2.016l3.002-4.098l-2.244-1.74l-3.26,3.84
				c-0.709-0.611-1.428-1.234-2.115-1.885l3.291-3.695l-1.332-1.248l-3.912,3.91c23.207,23.207,60.846,23.207,84.055-0.004l0,0"/>
		</g>
		<g>
			<path d="M26.468,101.789l-1.791-1.855l-3.875,3.447c-0.352-0.375-0.688-0.756-1.016-1.143l3.924-3.389l-3.736-4.879l-4.326,2.855
				c-0.848-1.248-1.635-2.531-2.385-3.834l4.396-2.631l-1.246-2.367l-4.617,2.256c-0.266-0.537-0.523-1.068-0.77-1.609l4.646-2.201
				l-1.443-3.35l-4.771,1.854c-1.168-3.08-2.082-6.236-2.713-9.438l5.051-0.975l-0.646-3.617l-5.092,0.408
				c-0.201-1.553-0.332-3.121-0.402-4.686l5.207-0.361l-0.094-2.355l-5.186,0.039c-0.008-0.428,0.008-0.854,0.008-1.277l5.1-0.109
				l0.016-1.385L5.655,61.02c0.264-5.371,1.246-10.711,2.971-15.867l4.777,1.676l2.885-7.129l-4.43-2.322
				c0.242-0.473,0.484-0.945,0.734-1.412l4.428,2.389l0.844-1.387l-4.43-2.512c0.242-0.404,0.484-0.812,0.725-1.215l4.303,2.564
				l1.154-1.738l-4.186-2.811c0.631-0.959,1.311-1.902,2.012-2.832l4.1,3.004l1.73-2.248l-3.836-3.256
				c0.607-0.721,1.23-1.424,1.887-2.121l3.898,3.494l1.246-1.334l-4.113-4.113c-23.203,23.209-23.203,60.848,0,84.051l0,0"/>
			<path d="M26.452,25.971l1.871-1.789l-3.461-3.879c0.381-0.346,0.766-0.678,1.154-1.014l3.385,3.918l4.879-3.727l-2.855-4.334
				c1.25-0.844,2.527-1.639,3.838-2.381l2.627,4.395l2.361-1.238l-2.246-4.623c0.523-0.266,1.061-0.527,1.605-0.775l2.201,4.654
				l3.352-1.445l-1.857-4.77c3.08-1.172,6.24-2.08,9.436-2.725l0.982,5.068l3.617-0.656l-0.404-5.09
				c1.549-0.203,3.109-0.334,4.674-0.41l0.361,5.213l2.355-0.094l-0.033-5.18c0.422-0.004,0.852,0.004,1.279,0.012l0.102,5.082
				l1.389,0.027l0.16-5.057c5.383,0.258,10.721,1.252,15.875,2.975l-1.738,4.916l7.117,2.889l2.4-4.568
				c0.467,0.234,0.943,0.484,1.41,0.736l-2.549,4.564l1.396,0.85l2.658-4.576c0.404,0.238,0.812,0.475,1.215,0.721l-2.635,4.438
				l1.732,1.156l2.893-4.326c0.959,0.635,1.9,1.309,2.828,2.016l-3.102,4.201l2.244,1.736l3.352-3.941
				c0.717,0.611,1.428,1.234,2.121,1.879l-3.494,3.904l1.336,1.248l4.121-4.113C83.192-1.35,45.552-1.35,22.354,21.861l0,0"/>
		</g>
	</g>
</g>
<path d="M64.179,99.047c-20.107,0-34.232-14.119-34.232-34.225s14.125-34.229,34.232-34.229c20.104,0,34.23,14.123,34.23,34.229
	S84.282,99.047,64.179,99.047z M64.179,32.219c0.074,10.025-2.543-8.229-1.982,1.225c0.561,9.461-4.92-8.592-3.568-0.75
	c1.34,7.844-0.229,5.061-1.131,4.199c-1.094-1.049-3.135-6.736-3.703-4.834c-0.258,0.873,2.781,10.611,0.023,3.914
	c-2.76-6.697-0.568,2.078-2.957-0.9c-3.188-3.977-5.961-9.658-2.314,1.154c0.787,2.35,7.361,14.867,1.34,5.137
	c-6.016-9.729-0.482,2.301-1.605,1.545c-1.074-0.719-2.492-2.316-3.795-4.047c-3.408-4.545,0.131,5.473-2.199,1.832
	c-2.332-3.641-7.211-3.398-2.844,2.918c4.371,6.32,8.488,9.645-1.779,2.27c-10.266-7.379,2.611,5.547-1.412,2.141
	c-4.02-3.398,1.443,2.705-0.809,1.422c-2.256-1.285-5.902,0.99-1.584,3.395c1.52,0.842,2.418,1.674,2.744,2.316
	c0.607,1.186-0.74,1.75-3.756,0.65c-4.646-1.691-9.48-1.123-0.459,1.809c9.018,2.939,6.633,3.961-0.463,2.486
	c-7.109-1.477-8.387,1.436-0.264,2.391c8.121,0.963-9.572,2.254-0.08,2.332c9.496,0.082-5.893,1.207,0.033,1.367
	c5.924,0.156-7.811,2.092,0.109,1.609c7.904-0.486-10.025,4.973,0.389,2.889c10.416-2.088-18.678,8.945,1.746,3.674
	c20.418-5.273-2.244,3.229,0.062,2.578c5.066-1.414-7.438,4.518,0.748,1.709c8.186-2.805-4.412,4.592,1.078,2.1
	c5.494-2.492-4.834,4.775,1.135,1.863c5.973-2.9,6.084-1.084,1.188,1.709c-1.826,1.047,7.609-4.416,8.264-3.217
	c0.492,0.889-3.072,4.627-2.027,5.043c1.295,0.52,0.123,3.732,1.068,2.686c2.705-3.014-2.605,9.459,1.541,3.631
	c0.877-1.23,1.602-2.062,2.191-2.578c2.217-1.926,3.588-3.213,1.732,0.236c-2.33,4.361,4.967-2.303,2.586,3.537
	c-2.385,5.846,5.102-4.559,2.979,2.822c-2.127,7.373,4.904-8.434,3.666-2.713c-1.232,5.717,4.24-0.861,4.109,3.646
	c-0.135,4.506,2.359-1.105,2.135-5.225c-0.225-4.115,3.109,10.51,2.348,4.914c-0.75-5.59,0.451-0.059,0.684-0.098
	c0.439-0.07,1.943,4.475,1.328-0.236c-0.627-4.719,6.281,7.514,3.803-1.02c-2.488-8.527,3.57,4.947,1.404-0.506
	c-2.168-5.449,4.691,6.264,1.479-0.605c-3.227-6.881,1.172-0.549,1.732-0.836c0.406-0.215-2.059-6.225,1.217-0.664
	c3.266,5.564-3.461-10.154,2.213-1.383c5.674,8.77,6.969,6.479,2.082-1.549c-4.889-8.033-1.365-5.479,2.184-1.928
	c3.555,3.555,3.719,1.275,1.16-1.172c-2.549-2.461-3.041-4.238,1.076-1.203c0.967,0.709,7.771,4.844,2.773-0.676
	c-5.002-5.518,5.584,2.148,0.938-1.416c-4.654-3.568,4.225-2.047,1.451-3.5c-2.777-1.461,0.598-1.949,0.865-3.002
	c0.131-0.521-4.086-3.107,0.381-1.59c4.461,1.52-3.07-2.02,0.266-1.268c3.336,0.746,0.258-1.373,0.373-2.057
	c0.07-0.463-3.938-2.018,0.203-1.375c4.156,0.637,8.949-1.697,0.219-1.709c-8.73-0.014,17.697-0.854,0.188-2.045
	c-17.502-1.188,9.658-2.523,0.092-2.445c-9.555,0.082,11.896-2.613-0.055-1.969c-11.959,0.65,10.424-6.295-0.451-3.789
	c-10.867,2.506,5.949-3.684-0.412-1.98c-6.379,1.703,6.119-6.576-1.037-3.408c-7.166,3.178,5.416-4.072-0.445-1.145
	c-5.863,2.924,5.768-5.566-1.014-2.23c-6.775,3.33-0.77-1.484-1.199-2.193c-0.578-0.963-6.314,1.895-1.873-2.783
	c4.461-4.678,3.377-5.053-1.135-1.432c-4.502,3.621,3.467-6.17-1.375-1.539c-4.84,4.623,2.256-7.402-2.416-2.303
	c-4.678,5.102-5.52,6.609-1.186-0.955c4.334-7.566,1.109-5.068-1.357-1.006c-2.461,4.061,2.971-8.016-1.621-1.064
	c-4.598,6.945,1.506-7.838-1.918-1.092c-3.43,6.75-5.658,5.084-4.113-1.809c1.541-6.893-0.455-5.174-1.709-0.559
	c-1.254,4.611,0.787-6.91-1.254-0.342c-2.035,6.562-3.121,6.518-3.229-0.65c-0.094-7.164-2.15-7.699-2.9-0.297
	C65.339,39.68,64.099,22.201,64.179,32.219z"/>
<path d="M63.78,79.471c-8.5,0-15.406-6.914-15.406-15.4S55.28,48.672,63.78,48.672c8.49,0,15.396,6.912,15.396,15.398
	S72.271,79.471,63.78,79.471z M63.78,50.305c0.031,4.23-1.076-3.48-0.842,0.516c0.24,3.99-2.074-3.629-1.504-0.32
	c0.568,3.318-0.104,2.141-0.477,1.773c-0.469-0.441-1.326-2.842-1.568-2.039c-0.102,0.363,1.18,4.484,0.008,1.65
	c-1.16-2.828-0.24,0.875-1.246-0.383c-1.342-1.676-2.518-4.078-0.975,0.494c0.336,0.992,3.102,6.281,0.562,2.168
	c-2.545-4.107-0.197,0.971-0.68,0.65c-0.451-0.301-1.053-0.975-1.607-1.711c-1.434-1.918,0.062,2.312-0.918,0.775
	c-0.982-1.539-3.047-1.438-1.199,1.232c1.84,2.67,3.584,4.078-0.758,0.959c-4.334-3.115,1.105,2.342-0.602,0.908
	c-1.697-1.438,0.625,1.139-0.342,0.596c-0.951-0.541-2.479,0.422-0.654,1.438c0.631,0.357,1.012,0.703,1.152,0.977
	c0.252,0.502-0.312,0.736-1.59,0.271c-1.965-0.713-4-0.471-0.193,0.768c3.811,1.24,2.807,1.678-0.197,1.049
	c-3-0.623-3.539,0.609-0.107,1.01c3.43,0.406-4.055,0.951-0.031,0.984c4.006,0.033-2.496,0.51,0.016,0.58
	c2.494,0.068-3.307,0.881,0.037,0.678c3.348-0.203-4.232,2.1,0.164,1.225c4.398-0.881-7.891,3.775,0.742,1.547
	c8.623-2.225-0.951,1.363,0.023,1.09c2.143-0.6-3.135,1.906,0.32,0.723c3.453-1.182-1.865,1.941,0.459,0.883
	c2.322-1.041-2.045,2.018,0.475,0.793c2.52-1.232,2.564-0.459,0.508,0.717c-0.781,0.445,3.203-1.857,3.492-1.355
	c0.203,0.377-1.303,1.951-0.873,2.131c0.553,0.215,0.061,1.578,0.459,1.131c1.131-1.271-1.1,4,0.646,1.531
	c0.377-0.516,0.688-0.865,0.93-1.084c0.943-0.812,1.52-1.359,0.74,0.096c-0.99,1.848,2.09-0.967,1.082,1.498
	c-1.004,2.465,2.16-1.928,1.256,1.189c-0.895,3.119,2.076-3.562,1.561-1.141c-0.529,2.412,1.777-0.365,1.73,1.537
	c-0.064,1.906,0.996-0.469,0.895-2.203c-0.086-1.742,1.318,4.438,0.992,2.074c-0.312-2.363,0.193-0.027,0.295-0.043
	c0.188-0.027,0.811,1.891,0.553-0.104c-0.254-1.992,2.658,3.178,1.605-0.424s1.508,2.09,0.594-0.221
	c-0.912-2.299,1.988,2.648,0.631-0.254c-1.363-2.904,0.492-0.232,0.734-0.355c0.172-0.088-0.873-2.623,0.516-0.275
	c1.371,2.352-1.467-4.289,0.934-0.586c2.385,3.703,2.947,2.734,0.873-0.656c-2.057-3.387-0.578-2.314,0.922-0.811
	c1.496,1.502,1.574,0.537,0.496-0.5c-1.082-1.037-1.285-1.787,0.453-0.51c0.406,0.307,3.283,2.051,1.17-0.273
	c-2.105-2.342,2.354,0.902,0.389-0.607c-1.955-1.504,1.793-0.865,0.625-1.48c-1.178-0.609,0.248-0.824,0.357-1.26
	c0.062-0.223-1.721-1.314,0.164-0.676c1.881,0.645-1.303-0.852,0.111-0.537c1.408,0.316,0.115-0.574,0.162-0.867
	c0.029-0.191-1.67-0.854,0.078-0.578c1.754,0.27,3.789-0.721,0.094-0.725c-3.682-0.004,7.475-0.359,0.076-0.865
	c-7.389-0.498,4.088-1.064,0.049-1.031s5.027-1.105-0.033-0.832c-5.051,0.277,4.404-2.658-0.186-1.598
	c-4.592,1.061,2.518-1.555-0.172-0.838c-2.699,0.717,2.59-2.775-0.438-1.434c-3.023,1.336,2.277-1.727-0.186-0.492
	c-2.479,1.24,2.432-2.352-0.438-0.939c-2.852,1.406-0.328-0.623-0.5-0.924c-0.25-0.406-2.664,0.799-0.795-1.176
	c1.881-1.977,1.428-2.137-0.475-0.605c-1.902,1.527,1.459-2.607-0.586-0.654c-2.041,1.955,0.953-3.123-1.027-0.967
	c-1.965,2.154-2.324,2.791-0.492-0.406c1.834-3.199,0.461-2.139-0.57-0.424c-1.043,1.715,1.25-3.381-0.691-0.449
	c-1.934,2.932,0.646-3.314-0.803-0.465c-1.451,2.854-2.393,2.148-1.738-0.764c0.646-2.906-0.195-2.186-0.725-0.234
	c-0.523,1.951,0.336-2.918-0.523-0.143c-0.865,2.775-1.324,2.752-1.365-0.277c-0.045-3.025-0.91-3.246-1.225-0.125
	C64.265,53.455,63.749,46.068,63.78,50.305z"/>
</svg>
