<?xml version="1.0" encoding="utf-8"?>
<!-- Generator: Adobe Illustrator 16.0.0, SVG Export Plug-In . SVG Version: 6.00 Build 0)  -->
<!DOCTYPE svg PUBLIC "-//W3C//DTD SVG 1.1//EN" "http://www.w3.org/Graphics/SVG/1.1/DTD/svg11.dtd">
<svg version="1.1" id="Layer_1" xmlns="http://www.w3.org/2000/svg" xmlns:xlink="http://www.w3.org/1999/xlink" x="0px" y="0px"
	 width="128px" height="128px" viewBox="0 0 128 128" enable-background="new 0 0 128 128" xml:space="preserve">
<polyline points="121.01,51.943 7.602,51.943 7.602,45.75 121.01,45.75 "/>
<line fill="none" x1="46.129" y1="51.943" x2="36.168" y2="51.943"/>
<line fill="none" x1="91.221" y1="51.943" x2="79.877" y2="51.943"/>
<line fill="none" x1="79.877" y1="45.75" x2="91.221" y2="45.75"/>
<line fill="none" x1="36.168" y1="45.75" x2="46.129" y2="45.75"/>
<polyline points="36.168,32.668 36.16,64.912 15.18,64.912 15.18,32.668 "/>
<polyline points="80.164,32.668 80.16,64.912 46.004,64.912 46.004,32.668 "/>
<polyline points="113.586,32.668 113.586,64.912 90.932,64.912 90.932,32.668 "/>
<polygon points="104.459,102.693 104.459,93.935 7.602,93.935 7.602,77.741 104.459,77.741 104.459,68.979 119.092,85.976 "/>
</svg>
