<?xml version="1.0" encoding="utf-8"?>
<!-- Generator: Adobe Illustrator 16.0.0, SVG Export Plug-In . SVG Version: 6.00 Build 0)  -->
<!DOCTYPE svg PUBLIC "-//W3C//DTD SVG 1.1//EN" "http://www.w3.org/Graphics/SVG/1.1/DTD/svg11.dtd">
<svg version="1.1" id="Layer_1" xmlns="http://www.w3.org/2000/svg" xmlns:xlink="http://www.w3.org/1999/xlink" x="0px" y="0px"
	 width="128px" height="128px" viewBox="0 0 128 128" enable-background="new 0 0 128 128" xml:space="preserve">
<polyline points="122.051,72.943 8.643,72.943 8.643,66.75 122.051,66.75 "/>
<line fill="none" x1="47.17" y1="72.943" x2="37.209" y2="72.943"/>
<line fill="none" x1="92.262" y1="72.943" x2="80.918" y2="72.943"/>
<line fill="none" x1="80.918" y1="66.75" x2="92.262" y2="66.75"/>
<line fill="none" x1="37.209" y1="66.75" x2="47.17" y2="66.75"/>
<polyline points="37.209,53.668 37.201,85.912 16.221,85.912 16.221,53.668 "/>
<polyline points="81.205,53.668 81.201,85.912 47.045,85.912 47.045,53.668 "/>
<polyline points="114.627,53.668 114.627,85.912 91.973,85.912 91.973,53.668 "/>
<polygon points="105.5,122.193 105.5,113.564 8.643,113.564 8.643,97.611 105.5,97.611 105.5,88.979 120.133,105.724 "/>
<g>
	<path d="M51.908,41.816c-1.008,0.504-3.275,1.044-6.227,1.044c-8.387,0-12.707-5.219-12.707-12.13
		c0-8.279,5.903-12.886,13.247-12.886c2.843,0,5.003,0.576,5.975,1.08l-1.116,4.355c-1.116-0.468-2.664-0.9-4.607-0.9
		c-4.355,0-7.739,2.628-7.739,8.027c0,4.86,2.88,7.919,7.775,7.919c1.656,0,3.492-0.36,4.572-0.792L51.908,41.816z"/>
	<path d="M55.51,18.563c2.016-0.324,4.644-0.504,7.415-0.504c4.607,0,7.595,0.828,9.935,2.592c2.521,1.872,4.104,4.859,4.104,9.143
		c0,4.644-1.69,7.847-4.03,9.827c-2.557,2.124-6.443,3.132-11.194,3.132c-2.844,0-4.859-0.18-6.228-0.36v-23.83H55.51z
		 M61.017,38.36c0.468,0.108,1.224,0.108,1.908,0.108c4.968,0.036,8.207-2.7,8.207-8.495c0.036-5.04-2.915-7.703-7.631-7.703
		c-1.224,0-2.016,0.108-2.484,0.216V38.36z"/>
	<path d="M80.746,36.849c1.477,0.756,3.744,1.512,6.083,1.512c2.521,0,3.853-1.044,3.853-2.627c0-1.512-1.152-2.376-4.068-3.419
		c-4.03-1.404-6.658-3.636-6.658-7.163c0-4.14,3.456-7.307,9.179-7.307c2.736,0,4.753,0.576,6.191,1.224l-1.224,4.427
		c-0.973-0.468-2.701-1.151-5.076-1.151s-3.526,1.08-3.526,2.339c0,1.548,1.367,2.232,4.499,3.419
		c4.283,1.584,6.299,3.816,6.299,7.235c0,4.067-3.132,7.523-9.79,7.523c-2.771,0-5.508-0.72-6.875-1.476L80.746,36.849z"/>
</g>
</svg>
