<?xml version="1.0" encoding="iso-8859-1"?>
<!-- Generator: Adobe Illustrator 16.0.0, SVG Export Plug-In . SVG Version: 6.00 Build 0)  -->
<!DOCTYPE svg PUBLIC "-//W3C//DTD SVG 1.1//EN" "http://www.w3.org/Graphics/SVG/1.1/DTD/svg11.dtd">
<svg version="1.1" id="Layer_1" xmlns="http://www.w3.org/2000/svg" xmlns:xlink="http://www.w3.org/1999/xlink" x="0px" y="0px"
	 width="128px" height="128px" viewBox="0 0 128 128" style="enable-background:new 0 0 128 128;" xml:space="preserve">
<g>
	<g>
		<circle style="fill:#010101;stroke:#FFFFFF;stroke-miterlimit:10;" cx="38.797" cy="58.923" r="38"/>
		<g>
			<path style="display:none;fill:#FFFFFF;" d="M68.32,58.972c0,16.286-13.202,29.483-29.484,29.483
				c-16.277,0-29.475-13.197-29.475-29.483c0-16.279,13.198-29.479,29.475-29.479C55.118,29.493,68.32,42.693,68.32,58.972z
				 M38.836,34.235c-13.657,0-24.735,11.075-24.735,24.737c0,13.667,11.078,24.739,24.735,24.739
				c13.662,0,24.741-11.072,24.741-24.739C63.577,45.31,52.499,34.235,38.836,34.235z"/>
			<g>
				<g>
					<path style="fill:#FFFFFF;" d="M38.797,34.711l1.169,0.021l0.138-2.352c0.229,0.012,0.463,0.028,0.688,0.042l-0.17,2.344
						l2.767,0.372l0.468-2.303c0.674,0.13,1.342,0.284,1.995,0.464l-0.563,2.255l1.157,0.358l0.756-2.204
						c0.257,0.086,0.511,0.174,0.764,0.265l-0.784,2.199l1.532,0.611l0.94-2.12c1.364,0.606,2.665,1.329,3.897,2.149L52.24,38.75
						l1.368,0.955l1.506-1.768c0.562,0.435,1.103,0.894,1.628,1.371l-1.55,1.787l0.779,0.726l1.652-1.672
						c0.137,0.135,0.273,0.274,0.406,0.411l-1.598,1.666l0.436,0.454l1.678-1.569c1.637,1.805,3.031,3.835,4.135,6.039l-2.07,0.994
						l1.361,3.213l2.162-0.674c0.078,0.227,0.148,0.457,0.221,0.689l-2.184,0.65l0.172,0.715l2.221-0.613
						c0.062,0.205,0.113,0.41,0.164,0.619l-2.207,0.561l0.188,0.928l2.246-0.443c0.105,0.51,0.195,1.029,0.263,1.553l-2.275,0.35
						l0.162,1.279l2.277-0.188c0.031,0.426,0.053,0.854,0.07,1.283l-2.365,0.131l0.025,0.828l2.636,0.004
						c0-14.886-12.067-26.953-26.95-26.953l0,0"/>
					<path style="fill:#FFFFFF;" d="M63.112,59.021l-0.023,1.17l2.345,0.137c-0.006,0.232-0.021,0.459-0.037,0.691l-2.339-0.17
						l-0.373,2.762l2.303,0.473c-0.129,0.674-0.283,1.341-0.465,1.993L62.27,65.51l-0.359,1.156l2.201,0.758
						c-0.08,0.258-0.174,0.51-0.268,0.764l-2.197-0.781l-0.609,1.535l2.121,0.936c-0.609,1.363-1.33,2.666-2.152,3.898l-1.934-1.311
						l-0.949,1.369l1.76,1.5c-0.436,0.564-0.887,1.109-1.367,1.631l-1.787-1.553l-0.727,0.785l1.676,1.648
						c-0.141,0.137-0.275,0.273-0.418,0.406l-1.663-1.596l-0.452,0.434l1.566,1.678c-1.804,1.637-3.834,3.033-6.042,4.135
						l-0.989-2.068l-3.213,1.359l0.67,2.164c-0.225,0.074-0.454,0.146-0.684,0.217l-0.652-2.184l-0.717,0.172l0.611,2.225
						c-0.203,0.055-0.407,0.111-0.614,0.158l-0.562-2.199l-0.928,0.186l0.444,2.246c-0.516,0.1-1.029,0.191-1.552,0.262
						l-0.354-2.275l-1.274,0.158l0.183,2.277c-0.425,0.035-0.853,0.061-1.282,0.076l-0.132-2.24l-0.827,0.025v2.51
						c14.883,0,26.95-12.07,26.95-26.952l0,0"/>
				</g>
				<g>
					<path style="fill:#FFFFFF;" d="M38.922,83.336l-1.174-0.021l-0.135,2.352c-0.234-0.012-0.466-0.025-0.695-0.043l0.172-2.342
						l-2.759-0.369l-0.477,2.303c-0.671-0.129-1.337-0.285-1.991-0.463l0.564-2.254l-1.153-0.361l-0.76,2.203
						c-0.254-0.086-0.512-0.172-0.76-0.266l0.778-2.199l-1.536-0.609l-0.935,2.123c-1.364-0.611-2.667-1.33-3.897-2.154l1.309-1.936
						l-1.368-0.949l-1.5,1.762c-0.562-0.432-1.107-0.891-1.634-1.371l1.556-1.785l-0.788-0.725l-1.648,1.672
						c-0.136-0.137-0.272-0.273-0.401-0.412l1.591-1.666l-0.437-0.453l-1.673,1.568c-1.641-1.809-3.036-3.836-4.136-6.041
						l2.07-0.996l-1.361-3.207l-2.162,0.674c-0.075-0.229-0.153-0.459-0.219-0.691l2.187-0.648l-0.175-0.717l-2.227,0.613
						c-0.054-0.205-0.108-0.412-0.156-0.621l2.198-0.556l-0.187-0.932l-2.245,0.449c-0.101-0.516-0.187-1.035-0.262-1.559
						l2.277-0.352l-0.16-1.275l-2.278,0.186c-0.038-0.428-0.061-0.852-0.077-1.283l2.37-0.131l-0.024-0.824l-2.638-0.002
						c0,14.884,12.069,26.948,26.954,26.948l0,0"/>
					<path style="fill:#FFFFFF;" d="M14.606,59.03l0.024-1.174l-2.354-0.134c0.012-0.231,0.023-0.462,0.043-0.694l2.344,0.17
						l0.369-2.76l-2.302-0.471c0.129-0.678,0.28-1.342,0.463-1.996l2.249,0.567l0.367-1.157l-2.207-0.76
						c0.086-0.255,0.172-0.51,0.264-0.76l2.2,0.78l0.611-1.534l-2.124-0.938c0.613-1.362,1.333-2.666,2.153-3.895l1.94,1.307
						l0.952-1.367l-1.769-1.503c0.435-0.561,0.895-1.106,1.375-1.631l1.785,1.554l0.729-0.785l-1.676-1.648
						c0.132-0.138,0.272-0.273,0.412-0.408l1.665,1.596l0.452-0.435l-1.562-1.672c1.801-1.642,3.831-3.039,6.033-4.138l1.021,2.132
						l3.212-1.356l-0.702-2.231c0.233-0.074,0.461-0.149,0.694-0.219l0.647,2.28l0.717-0.172l-0.615-2.322
						c0.211-0.052,0.412-0.105,0.623-0.158l0.573,2.271l0.932-0.187l-0.459-2.313c0.51-0.102,1.028-0.191,1.551-0.263l0.351,2.344
						l1.278-0.163l-0.187-2.342c0.426-0.034,0.85-0.062,1.282-0.075l0.129,2.374l0.825-0.025l0.009-2.641
						c-14.886,0-26.954,12.067-26.954,26.949l0,0"/>
				</g>
			</g>
			<g>
				<g>
					<path style="fill:#FFFFFF;" d="M57.749,39.966l0.893,0.932l1.941-1.729c0.172,0.189,0.34,0.38,0.508,0.575l-1.957,1.689
						l1.857,2.445l2.168-1.429c0.426,0.626,0.824,1.267,1.195,1.915l-2.199,1.318l0.619,1.184l2.31-1.129
						c0.133,0.266,0.268,0.532,0.391,0.805l-2.33,1.103l0.725,1.669l2.384-0.922c0.586,1.539,1.037,3.115,1.357,4.717l-2.527,0.49
						l0.32,1.807l2.551-0.205c0.1,0.778,0.172,1.561,0.201,2.344l-2.604,0.182l0.047,1.176l2.588-0.018c0.004,0.211,0,0.424,0,0.639
						l-2.549,0.053l-0.012,0.693l2.529,0.084c-0.129,2.686-0.623,5.356-1.484,7.935l-2.39-0.836l-1.441,3.561l2.214,1.164
						c-0.121,0.234-0.242,0.471-0.371,0.705l-2.209-1.197l-0.426,0.695l2.219,1.256c-0.117,0.203-0.242,0.406-0.367,0.607
						l-2.148-1.281l-0.58,0.867l2.098,1.406c-0.32,0.48-0.652,0.953-1.006,1.418l-2.047-1.5l-0.869,1.117l1.916,1.633
						c-0.301,0.357-0.613,0.711-0.941,1.059l-1.949-1.746l-0.623,0.666l2.059,2.059c11.599-11.605,11.599-30.426,0-42.031l0,0"/>
					<path style="fill:#FFFFFF;" d="M57.756,77.877l-0.936,0.893l1.73,1.939c-0.189,0.176-0.381,0.342-0.576,0.508l-1.691-1.957
						l-2.441,1.863l1.428,2.166c-0.624,0.424-1.268,0.822-1.917,1.195l-1.319-2.199l-1.18,0.617l1.127,2.312
						c-0.267,0.135-0.531,0.26-0.804,0.387l-1.104-2.326l-1.668,0.723l0.924,2.383c-1.544,0.59-3.116,1.043-4.72,1.363l-0.487-2.533
						l-1.809,0.326l0.203,2.549c-0.776,0.1-1.561,0.166-2.34,0.201l-0.184-2.604l-1.172,0.043l0.015,2.594
						c-0.211,0.002-0.425,0-0.64-0.006l-0.055-2.545l-0.689-0.01l-0.086,2.525c-2.686-0.131-5.359-0.625-7.932-1.484l0.838-2.387
						l-3.563-1.445l-1.165,2.213c-0.234-0.119-0.468-0.24-0.705-0.367l1.197-2.209l-0.694-0.426l-1.255,2.213
						c-0.203-0.115-0.406-0.236-0.609-0.357l1.282-2.152l-0.869-0.578l-1.404,2.098c-0.482-0.32-0.955-0.656-1.418-1.008
						l1.501-2.049l-1.122-0.871l-1.63,1.92c-0.354-0.305-0.714-0.617-1.058-0.941l1.646-1.848l-0.666-0.625l-1.956,1.955
						c11.604,11.604,30.423,11.604,42.028-0.002l0,0"/>
				</g>
				<g>
					<path style="fill:#FFFFFF;" d="M19.931,77.975l-0.896-0.928l-1.938,1.723c-0.176-0.188-0.344-0.377-0.508-0.57l1.962-1.695
						l-1.868-2.439l-2.163,1.428c-0.424-0.623-0.817-1.266-1.192-1.916l2.198-1.316l-0.623-1.184l-2.309,1.129
						c-0.133-0.27-0.261-0.535-0.385-0.805l2.323-1.102l-0.722-1.674l-2.385,0.926c-0.584-1.539-1.041-3.117-1.356-4.72l2.525-0.488
						l-0.323-1.807l-2.546,0.203c-0.101-0.777-0.166-1.561-0.201-2.344l2.604-0.18l-0.047-1.178l-2.593,0.02
						c-0.004-0.215,0.004-0.428,0.004-0.639l2.55-0.055l0.008-0.691l-2.526-0.084c0.132-2.686,0.623-5.355,1.486-7.934l2.388,0.838
						l1.443-3.564l-2.215-1.161c0.121-0.237,0.242-0.472,0.367-0.706l2.214,1.195l0.422-0.694l-2.215-1.256
						c0.121-0.202,0.242-0.406,0.363-0.607l2.151,1.282l0.577-0.869l-2.093-1.406c0.315-0.479,0.656-0.951,1.006-1.416l2.05,1.502
						l0.865-1.124l-1.918-1.628c0.304-0.36,0.615-0.712,0.944-1.061l1.949,1.747l0.623-0.667l-2.057-2.057
						c-11.602,11.605-11.602,30.426,0,42.026l0,0"/>
					<path style="fill:#FFFFFF;" d="M19.923,40.064l0.936-0.895l-1.731-1.939c0.191-0.173,0.383-0.339,0.577-0.507l1.692,1.959
						l2.439-1.863l-1.427-2.167c0.625-0.422,1.264-0.82,1.919-1.19l1.313,2.197l1.18-0.619L25.7,32.728
						c0.261-0.133,0.531-0.264,0.802-0.388l1.101,2.327l1.676-0.723l-0.928-2.385c1.54-0.586,3.12-1.04,4.718-1.362l0.491,2.534
						l1.808-0.328l-0.201-2.545c0.774-0.102,1.555-0.167,2.337-0.205l0.181,2.606l1.178-0.047l-0.018-2.59
						c0.211-0.002,0.427,0.002,0.641,0.006l0.051,2.541l0.694,0.013l0.08-2.529c2.691,0.129,5.36,0.626,7.938,1.488l-0.869,2.458
						l3.559,1.445l1.199-2.284c0.234,0.117,0.472,0.242,0.705,0.368l-1.273,2.282l0.697,0.425l1.329-2.288
						c0.202,0.119,0.406,0.237,0.607,0.36l-1.317,2.219l0.866,0.578l1.446-2.163c0.479,0.317,0.951,0.654,1.414,1.008l-1.55,2.101
						l1.121,0.868l1.678-1.971c0.357,0.306,0.713,0.617,1.061,0.939L57.17,39.44l0.668,0.624l2.061-2.057
						c-11.606-11.604-30.426-11.604-42.025,0.002l0,0"/>
				</g>
			</g>
		</g>
		<path style="fill:#FFFFFF;" d="M38.787,76.604c-10.054,0-17.116-7.061-17.116-17.114c0-10.053,7.062-17.114,17.116-17.114
			c10.052,0,17.114,7.062,17.114,17.114C55.901,69.543,48.839,76.604,38.787,76.604z M38.787,43.188
			c0.037,5.012-1.271-4.114-0.991,0.612c0.28,4.73-2.46-4.296-1.784-0.375c0.67,3.922-0.114,2.531-0.565,2.099
			c-0.547-0.523-1.567-3.367-1.852-2.417c-0.129,0.437,1.391,5.305,0.012,1.958c-1.38-3.349-0.284,1.039-1.479-0.45
			c-1.595-1.989-2.98-4.829-1.157,0.577c0.394,1.175,3.681,7.434,0.67,2.568c-3.008-4.865-0.241,1.15-0.803,0.772
			c-0.537-0.36-1.246-1.158-1.897-2.024c-1.704-2.271,0.066,2.737-1.099,0.916c-1.166-1.82-3.605-1.698-1.422,1.459
			c2.186,3.16,4.244,4.823-0.889,1.136c-5.133-3.689,1.305,2.774-0.706,1.071c-2.01-1.699,0.721,1.352-0.405,0.711
			c-1.128-0.643-2.951,0.494-0.792,1.697c0.76,0.42,1.209,0.836,1.372,1.158c0.304,0.592-0.37,0.875-1.878,0.324
			c-2.323-0.846-4.74-0.561-0.229,0.904c4.509,1.471,3.316,1.98-0.231,1.244c-3.555-0.739-4.193,0.717-0.132,1.195
			c4.061,0.48-4.786,1.127-0.04,1.166c4.748,0.041-2.946,0.604,0.017,0.684c2.962,0.078-3.905,1.045,0.055,0.805
			c3.952-0.244-5.013,2.486,0.194,1.443c5.208-1.043-9.339,4.474,0.873,1.838c10.209-2.637-1.122,1.614,0.031,1.29
			c2.533-0.708-3.719,2.258,0.374,0.854c4.093-1.402-2.206,2.297,0.539,1.051c2.747-1.246-2.417,2.387,0.567,0.932
			c2.987-1.451,3.042-0.543,0.594,0.854c-0.913,0.523,3.805-2.207,4.132-1.607c0.246,0.443-1.536,2.312-1.014,2.521
			c0.647,0.26,0.062,1.865,0.534,1.342c1.353-1.506-1.303,4.73,0.771,1.816c0.438-0.615,0.801-1.031,1.096-1.289
			c1.108-0.963,1.794-1.607,0.866,0.117c-1.166,2.182,2.483-1.15,1.293,1.77c-1.193,2.922,2.551-2.279,1.489,1.41
			c-1.063,3.688,2.452-4.217,1.833-1.355c-0.616,2.857,2.12-0.432,2.055,1.822c-0.068,2.254,1.179-0.553,1.067-2.613
			c-0.113-2.057,1.555,5.256,1.174,2.457c-0.375-2.795,0.226-0.029,0.342-0.049c0.22-0.035,0.972,2.238,0.664-0.117
			c-0.313-2.359,3.141,3.758,1.901-0.51c-1.243-4.264,1.785,2.473,0.702-0.254c-1.084-2.725,2.346,3.133,0.739-0.303
			c-1.613-3.439,0.587-0.273,0.866-0.418c0.203-0.107-1.029-3.111,0.608-0.332c1.634,2.783-1.73-5.076,1.106-0.691
			s3.484,3.24,1.041-0.773c-2.444-4.018-0.682-2.74,1.092-0.965c1.777,1.777,1.859,0.639,0.58-0.586
			c-1.274-1.23-1.52-2.119,0.538-0.602c0.483,0.355,3.886,2.422,1.387-0.338c-2.501-2.758,2.792,1.074,0.469-0.707
			c-2.327-1.785,2.112-1.023,0.726-1.75c-1.389-0.73,0.299-0.975,0.433-1.502c0.065-0.26-2.043-1.554,0.19-0.796
			c2.23,0.761-1.535-1.01,0.133-0.633c1.667,0.373,0.129-0.688,0.187-1.029c0.035-0.232-1.969-1.01,0.102-0.688
			c2.079,0.318,4.475-0.848,0.11-0.855c-4.365-0.006,8.847-0.426,0.094-1.021c-8.751-0.594,4.828-1.262,0.046-1.223
			c-4.778,0.041,5.948-1.307-0.028-0.984c-5.979,0.324,5.212-3.148-0.225-1.895c-5.434,1.252,2.974-1.842-0.206-0.99
			c-3.189,0.852,3.059-3.288-0.519-1.704c-3.583,1.589,2.708-2.036-0.223-0.573c-2.932,1.463,2.884-2.782-0.507-1.114
			c-3.388,1.665-0.386-0.741-0.6-1.097c-0.289-0.48-3.157,0.947-0.937-1.391c2.23-2.34,1.688-2.527-0.567-0.717
			c-2.251,1.811,1.733-3.084-0.688-0.77c-2.42,2.312,1.128-3.701-1.208-1.151c-2.339,2.552-2.76,3.305-0.594-0.478
			c2.168-3.783,0.555-2.533-0.678-0.503c-1.23,2.03,1.485-4.008-0.811-0.532c-2.299,3.473,0.753-3.918-0.959-0.545
			c-1.715,3.375-2.829,2.541-2.057-0.905c0.771-3.447-0.228-2.587-0.854-0.28c-0.627,2.306,0.394-3.455-0.627-0.171
			c-1.018,3.282-1.561,3.259-1.614-0.325c-0.047-3.582-1.075-3.85-1.45-0.149C39.367,46.919,38.747,38.179,38.787,43.188z"/>
		<path style="fill:#FFFFFF;" d="M38.587,66.814c-4.25,0-7.702-3.458-7.702-7.7c0-4.243,3.452-7.699,7.702-7.699
			c4.245,0,7.698,3.455,7.698,7.699C46.285,63.356,42.833,66.814,38.587,66.814z M38.587,52.231c0.016,2.115-0.538-1.74-0.421,0.258
			c0.12,1.994-1.037-1.814-0.752-0.16c0.284,1.658-0.052,1.07-0.238,0.887c-0.234-0.221-0.663-1.422-0.784-1.02
			c-0.051,0.182,0.59,2.242,0.004,0.824c-0.58-1.414-0.12,0.438-0.623-0.191c-0.671-0.838-1.259-2.039-0.487,0.248
			c0.168,0.496,1.551,3.141,0.281,1.084c-1.272-2.055-0.099,0.484-0.34,0.324c-0.226-0.15-0.527-0.487-0.804-0.855
			c-0.717-0.959,0.031,1.156-0.459,0.388c-0.491-0.77-1.523-0.72-0.6,0.616c0.92,1.334,1.792,2.039-0.379,0.479
			c-2.167-1.557,0.553,1.172-0.301,0.455c-0.849-0.719,0.312,0.569-0.171,0.298c-0.476-0.271-1.24,0.211-0.327,0.719
			c0.315,0.179,0.506,0.352,0.575,0.489c0.127,0.25-0.155,0.367-0.795,0.135c-0.982-0.356-2-0.235-0.096,0.385
			c1.905,0.619,1.403,0.838-0.099,0.523c-1.5-0.311-1.77,0.305-0.054,0.506c1.715,0.203-2.027,0.475-0.016,0.492
			c2.003,0.016-1.248,0.254,0.008,0.289c1.247,0.035-1.653,0.441,0.019,0.34c1.675-0.102-2.116,1.049,0.082,0.611
			c2.199-0.439-3.945,1.889,0.371,0.773c4.312-1.111-0.476,0.682,0.012,0.545c1.071-0.299-1.567,0.953,0.16,0.363
			c1.727-0.592-0.933,0.969,0.229,0.441c1.161-0.521-1.022,1.008,0.237,0.396c1.26-0.617,1.282-0.23,0.254,0.357
			c-0.391,0.223,1.602-0.928,1.746-0.678c0.102,0.189-0.651,0.977-0.437,1.066c0.276,0.107,0.03,0.789,0.229,0.564
			c0.565-0.635-0.55,2.001,0.323,0.766c0.188-0.258,0.344-0.432,0.465-0.541c0.472-0.406,0.76-0.68,0.37,0.047
			c-0.495,0.925,1.045-0.482,0.541,0.751c-0.502,1.232,1.08-0.966,0.628,0.594c-0.447,1.561,1.038-1.782,0.78-0.57
			c-0.265,1.207,0.889-0.182,0.865,0.77c-0.032,0.953,0.498-0.234,0.447-1.103c-0.043-0.871,0.659,2.22,0.496,1.038
			c-0.156-1.183,0.097-0.014,0.147-0.021c0.094-0.014,0.405,0.945,0.276-0.053c-0.127-0.997,1.329,1.59,0.803-0.213
			c-0.526-1.802,0.754,1.045,0.297-0.109c-0.456-1.151,0.994,1.324,0.315-0.127c-0.682-1.454,0.246-0.117,0.367-0.178
			c0.086-0.045-0.437-1.313,0.258-0.137c0.686,1.176-0.733-2.146,0.467-0.294c1.192,1.851,1.474,1.366,0.437-0.328
			c-1.028-1.695-0.289-1.158,0.461-0.406c0.748,0.75,0.787,0.268,0.248-0.25c-0.541-0.52-0.643-0.895,0.227-0.256
			c0.203,0.154,1.642,1.025,0.585-0.135c-1.052-1.172,1.177,0.449,0.194-0.305c-0.977-0.752,0.896-0.432,0.312-0.74
			c-0.589-0.305,0.125-0.412,0.179-0.629c0.031-0.111-0.86-0.658,0.082-0.338c0.94,0.322-0.651-0.426,0.056-0.27
			c0.704,0.158,0.058-0.287,0.081-0.434c0.015-0.096-0.835-0.426,0.039-0.289c0.877,0.135,1.895-0.359,0.047-0.361
			c-1.841-0.002,3.737-0.18,0.038-0.434c-3.694-0.248,2.044-0.531,0.024-0.516c-2.02,0.018,2.514-0.553-0.017-0.416
			c-2.525,0.139,2.202-1.328-0.093-0.799c-2.296,0.531,1.259-0.777-0.086-0.418c-1.35,0.357,1.295-1.389-0.22-0.718
			c-1.511,0.668,1.139-0.864-0.092-0.246c-1.24,0.62,1.215-1.177-0.22-0.47c-1.426,0.703-0.164-0.311-0.25-0.461
			c-0.125-0.203-1.332,0.398-0.397-0.589c0.94-0.989,0.714-1.068-0.237-0.302c-0.951,0.763,0.729-1.305-0.293-0.328
			c-1.021,0.979,0.477-1.561-0.514-0.482c-0.982,1.076-1.162,1.395-0.246-0.203c0.917-1.6,0.23-1.07-0.285-0.213
			c-0.521,0.857,0.625-1.689-0.345-0.225c-0.968,1.467,0.322-1.656-0.402-0.232c-0.725,1.428-1.196,1.074-0.869-0.381
			c0.323-1.453-0.097-1.094-0.362-0.117c-0.261,0.975,0.168-1.459-0.261-0.072c-0.433,1.388-0.662,1.377-0.683-0.139
			c-0.022-1.512-0.455-1.623-0.613-0.062C38.83,53.806,38.572,50.112,38.587,52.231z"/>
	</g>
	<g>
		<circle style="fill:#010101;stroke:#FFFFFF;stroke-miterlimit:10;" cx="87.748" cy="41.5" r="38"/>
		<g>
			<path style="display:none;fill:#FFFFFF;" d="M117.271,41.549c0,16.285-13.202,29.484-29.485,29.484
				c-16.277,0-29.475-13.199-29.475-29.484c0-16.279,13.197-29.479,29.475-29.479C104.069,12.07,117.271,25.271,117.271,41.549z
				 M87.786,16.812c-13.656,0-24.735,11.075-24.735,24.737c0,13.666,11.079,24.74,24.735,24.74c13.662,0,24.741-11.074,24.741-24.74
				C112.527,27.887,101.45,16.812,87.786,16.812z"/>
			<g>
				<g>
					<path style="fill:#FFFFFF;" d="M87.747,17.289l1.17,0.021l0.137-2.352c0.23,0.012,0.463,0.028,0.689,0.042l-0.17,2.344
						l2.766,0.372l0.469-2.303c0.674,0.13,1.342,0.284,1.994,0.464l-0.562,2.255l1.156,0.358l0.756-2.204
						c0.258,0.086,0.512,0.174,0.764,0.265l-0.783,2.199l1.531,0.611l0.941-2.12c1.363,0.606,2.664,1.329,3.896,2.149l-1.311,1.936
						l1.369,0.955l1.506-1.768c0.561,0.435,1.102,0.894,1.629,1.371l-1.551,1.787l0.777,0.726l1.654-1.672
						c0.137,0.135,0.271,0.274,0.406,0.411l-1.598,1.666l0.436,0.454l1.676-1.569c1.639,1.805,3.032,3.835,4.136,6.039l-2.069,0.994
						l1.36,3.213l2.162-0.674c0.078,0.227,0.148,0.457,0.221,0.689l-2.184,0.65l0.172,0.715l2.221-0.613
						c0.062,0.205,0.113,0.41,0.164,0.619l-2.207,0.561l0.188,0.928l2.246-0.443c0.105,0.51,0.195,1.029,0.264,1.553l-2.275,0.35
						l0.162,1.279l2.277-0.188c0.031,0.426,0.053,0.854,0.07,1.283l-2.365,0.131l0.025,0.828l2.637,0.004
						c0-14.886-12.067-26.953-26.95-26.953l0,0"/>
					<path style="fill:#FFFFFF;" d="M112.062,41.598l-0.023,1.17l2.346,0.137c-0.006,0.232-0.021,0.459-0.037,0.691l-2.34-0.17
						l-0.373,2.762l2.303,0.473c-0.129,0.674-0.283,1.34-0.465,1.992l-2.252-0.566l-0.359,1.156L113.062,50
						c-0.08,0.258-0.174,0.51-0.268,0.764l-2.197-0.781l-0.609,1.535l2.121,0.936c-0.609,1.363-1.33,2.666-2.152,3.898l-1.933-1.311
						l-0.951,1.369l1.762,1.5c-0.436,0.564-0.889,1.109-1.367,1.631l-1.789-1.553l-0.725,0.785l1.676,1.648
						c-0.141,0.137-0.277,0.273-0.418,0.406l-1.664-1.596l-0.451,0.434l1.566,1.678c-1.805,1.638-3.836,3.034-6.043,4.136
						l-0.988-2.069l-3.213,1.359l0.67,2.165c-0.225,0.074-0.455,0.146-0.684,0.217l-0.652-2.184l-0.717,0.172l0.611,2.225
						c-0.203,0.055-0.408,0.111-0.615,0.158l-0.561-2.199l-0.928,0.186l0.443,2.246c-0.516,0.1-1.029,0.191-1.551,0.262
						l-0.355-2.275L89.808,65.9l0.182,2.277c-0.424,0.035-0.852,0.061-1.281,0.076l-0.133-2.24l-0.826,0.025v2.51
						c14.883,0,26.95-12.072,26.95-26.953l0,0"/>
				</g>
				<g>
					<path style="fill:#FFFFFF;" d="M87.872,65.914l-1.174-0.021l-0.135,2.352c-0.234-0.012-0.465-0.025-0.695-0.043l0.172-2.342
						l-2.758-0.369l-0.477,2.303c-0.672-0.129-1.338-0.285-1.992-0.463l0.564-2.254l-1.152-0.362l-0.76,2.204
						c-0.254-0.086-0.512-0.172-0.76-0.266l0.777-2.2l-1.535-0.609l-0.936,2.124c-1.363-0.611-2.666-1.331-3.896-2.155l1.309-1.937
						l-1.369-0.949l-1.5,1.762c-0.561-0.432-1.107-0.891-1.633-1.371l1.555-1.785l-0.787-0.725l-1.648,1.672
						c-0.137-0.137-0.273-0.273-0.402-0.412l1.592-1.666l-0.438-0.453l-1.672,1.568c-1.641-1.809-3.036-3.836-4.136-6.041
						l2.069-0.996l-1.36-3.207l-2.162,0.674c-0.075-0.229-0.154-0.459-0.219-0.691l2.186-0.648l-0.174-0.717l-2.227,0.613
						c-0.054-0.205-0.108-0.412-0.156-0.621l2.197-0.555l-0.186-0.932l-2.246,0.449c-0.101-0.516-0.187-1.035-0.262-1.559
						l2.277-0.352l-0.159-1.275l-2.278,0.186c-0.038-0.428-0.061-0.852-0.077-1.283l2.37-0.131l-0.024-0.824l-2.638-0.002
						c0,14.883,12.068,26.949,26.953,26.949l0,0"/>
					<path style="fill:#FFFFFF;" d="M63.557,41.608l0.024-1.174L61.227,40.3c0.012-0.231,0.023-0.462,0.043-0.694l2.344,0.17
						l0.369-2.76l-2.302-0.471c0.129-0.678,0.28-1.342,0.463-1.996l2.25,0.567l0.367-1.157l-2.207-0.76
						c0.086-0.255,0.172-0.51,0.264-0.76l2.199,0.78l0.611-1.534l-2.124-0.938c0.612-1.362,1.333-2.666,2.153-3.895l1.94,1.307
						l0.951-1.367l-1.77-1.503c0.436-0.561,0.896-1.106,1.375-1.631l1.785,1.554l0.729-0.785l-1.677-1.648
						c0.133-0.138,0.273-0.273,0.412-0.408l1.666,1.596l0.451-0.435l-1.562-1.672c1.801-1.642,3.832-3.039,6.033-4.138l1.021,2.132
						l3.213-1.356l-0.703-2.231c0.234-0.074,0.461-0.149,0.695-0.219l0.646,2.28l0.717-0.172l-0.615-2.322
						c0.211-0.052,0.412-0.105,0.623-0.158l0.574,2.271l0.932-0.187l-0.459-2.313c0.51-0.102,1.027-0.191,1.551-0.263l0.35,2.344
						l1.279-0.163l-0.188-2.342c0.426-0.034,0.85-0.062,1.283-0.075l0.129,2.374l0.824-0.025l0.01-2.641
						c-14.887,0-26.955,12.067-26.955,26.949l0,0"/>
				</g>
			</g>
			<g>
				<g>
					<path style="fill:#FFFFFF;" d="M106.7,22.544l0.893,0.932l1.939-1.729c0.172,0.189,0.341,0.38,0.509,0.575l-1.956,1.689
						l1.856,2.445l2.168-1.429c0.426,0.626,0.824,1.267,1.195,1.915l-2.199,1.318l0.619,1.184l2.311-1.129
						c0.133,0.266,0.268,0.532,0.391,0.805l-2.33,1.103l0.725,1.669l2.385-0.922c0.586,1.539,1.037,3.115,1.357,4.717l-2.527,0.49
						l0.32,1.807l2.551-0.205c0.1,0.778,0.172,1.561,0.201,2.344l-2.604,0.182l0.047,1.176l2.588-0.018c0.004,0.211,0,0.424,0,0.639
						l-2.549,0.053l-0.012,0.693l2.529,0.084c-0.129,2.686-0.623,5.355-1.484,7.934l-2.391-0.836l-1.441,3.561l2.215,1.164
						c-0.121,0.234-0.242,0.471-0.371,0.705l-2.209-1.197L111,54.956l2.219,1.256c-0.117,0.203-0.242,0.406-0.367,0.607
						l-2.148-1.281l-0.58,0.867l2.098,1.406c-0.32,0.48-0.652,0.953-1.006,1.418l-2.046-1.5l-0.869,1.117l1.915,1.633
						c-0.301,0.357-0.612,0.711-0.94,1.059l-1.949-1.746l-0.623,0.666l2.059,2.059c11.599-11.605,11.599-30.425,0-42.03l0,0"/>
					<path style="fill:#FFFFFF;" d="M106.708,60.454l-0.936,0.893l1.73,1.94c-0.189,0.176-0.383,0.342-0.576,0.508l-1.691-1.958
						l-2.441,1.864l1.428,2.167c-0.625,0.424-1.268,0.822-1.918,1.195l-1.318-2.2l-1.18,0.618l1.127,2.312
						c-0.268,0.135-0.531,0.26-0.805,0.387l-1.104-2.326l-1.668,0.723l0.924,2.383c-1.543,0.59-3.115,1.043-4.719,1.363
						l-0.488-2.533l-1.809,0.326l0.203,2.549c-0.775,0.1-1.561,0.166-2.34,0.201l-0.184-2.604l-1.172,0.043l0.016,2.594
						c-0.211,0.002-0.426,0-0.641-0.006l-0.055-2.545l-0.689-0.01l-0.086,2.525c-2.686-0.131-5.359-0.625-7.932-1.484l0.838-2.387
						l-3.562-1.445l-1.166,2.213c-0.234-0.119-0.467-0.24-0.704-0.367l1.196-2.209l-0.693-0.426l-1.255,2.213
						c-0.203-0.115-0.405-0.236-0.608-0.357l1.281-2.153l-0.869-0.578l-1.404,2.098c-0.482-0.32-0.955-0.656-1.418-1.008
						l1.502-2.049l-1.123-0.872l-1.629,1.921c-0.355-0.305-0.715-0.617-1.059-0.941l1.646-1.849l-0.666-0.625l-1.957,1.955
						c11.604,11.605,30.424,11.605,42.027-0.002l0,0"/>
				</g>
				<g>
					<path style="fill:#FFFFFF;" d="M68.882,60.551l-0.896-0.928l-1.938,1.723c-0.176-0.188-0.344-0.377-0.508-0.57l1.962-1.695
						l-1.868-2.439l-2.162,1.428c-0.425-0.623-0.818-1.266-1.193-1.916l2.198-1.316l-0.623-1.184l-2.309,1.129
						c-0.133-0.27-0.261-0.535-0.385-0.805l2.324-1.102l-0.723-1.674l-2.385,0.926c-0.584-1.539-1.041-3.117-1.356-4.719
						l2.525-0.488l-0.323-1.807l-2.546,0.203c-0.101-0.777-0.166-1.561-0.201-2.344l2.604-0.18l-0.047-1.178l-2.593,0.02
						c-0.004-0.215,0.004-0.428,0.004-0.639l2.55-0.055l0.008-0.691l-2.526-0.084c0.132-2.686,0.623-5.355,1.486-7.934l2.388,0.838
						l1.443-3.564l-2.215-1.161c0.121-0.237,0.242-0.472,0.367-0.706l2.214,1.195l0.422-0.694l-2.215-1.256
						c0.121-0.202,0.243-0.406,0.363-0.607l2.151,1.282l0.577-0.869l-2.093-1.406c0.314-0.479,0.655-0.951,1.006-1.416l2.05,1.502
						l0.865-1.124l-1.919-1.628c0.305-0.36,0.616-0.712,0.944-1.061l1.949,1.747l0.623-0.667l-2.057-2.057
						c-11.602,11.605-11.602,30.425,0,42.025l0,0"/>
					<path style="fill:#FFFFFF;" d="M68.874,22.642l0.936-0.895l-1.73-1.939c0.19-0.173,0.383-0.339,0.576-0.507l1.693,1.959
						l2.439-1.863l-1.428-2.167c0.625-0.422,1.264-0.82,1.92-1.19l1.312,2.197l1.181-0.619l-1.123-2.312
						c0.261-0.133,0.53-0.264,0.802-0.388l1.102,2.327l1.676-0.723l-0.928-2.385c1.539-0.586,3.119-1.04,4.717-1.362l0.492,2.534
						l1.807-0.328l-0.201-2.545c0.775-0.102,1.555-0.167,2.338-0.205l0.18,2.606l1.178-0.047l-0.018-2.59
						c0.211-0.002,0.428,0.002,0.641,0.006l0.051,2.541l0.695,0.013l0.08-2.529c2.691,0.129,5.359,0.626,7.938,1.488l-0.869,2.458
						l3.559,1.445l1.199-2.284c0.234,0.117,0.471,0.242,0.705,0.368l-1.273,2.282l0.697,0.425l1.328-2.288
						c0.203,0.119,0.406,0.237,0.607,0.36l-1.316,2.219l0.865,0.578l1.447-2.163c0.479,0.317,0.949,0.654,1.414,1.008l-1.551,2.101
						l1.121,0.868l1.676-1.971c0.359,0.306,0.715,0.617,1.061,0.939l-1.746,1.952l0.668,0.624l2.061-2.057
						C97.243,8.981,78.424,8.981,66.825,20.587l0,0"/>
				</g>
			</g>
		</g>
		<path style="fill:#FFFFFF;" d="M87.737,59.18c-10.053,0-17.115-7.061-17.115-17.113s7.062-17.114,17.115-17.114
			s17.115,7.062,17.115,17.114S97.79,59.18,87.737,59.18z M87.737,25.766c0.037,5.012-1.271-4.114-0.99,0.612
			c0.279,4.73-2.461-4.296-1.785-0.375c0.67,3.922-0.113,2.531-0.564,2.099c-0.547-0.523-1.568-3.367-1.852-2.417
			c-0.129,0.437,1.391,5.305,0.012,1.958c-1.381-3.349-0.285,1.039-1.479-0.45c-1.596-1.989-2.98-4.829-1.158,0.577
			c0.395,1.175,3.682,7.434,0.67,2.568c-3.008-4.865-0.24,1.15-0.803,0.772c-0.536-0.36-1.245-1.158-1.896-2.024
			c-1.704-2.271,0.065,2.737-1.1,0.916c-1.166-1.82-3.605-1.698-1.422,1.459c2.186,3.16,4.244,4.823-0.89,1.136
			c-5.134-3.689,1.306,2.774-0.706,1.071c-2.01-1.699,0.721,1.352-0.404,0.711c-1.129-0.643-2.951,0.494-0.793,1.697
			c0.761,0.42,1.209,0.836,1.373,1.158c0.303,0.592-0.371,0.875-1.879,0.324c-2.322-0.846-4.739-0.561-0.229,0.904
			c4.509,1.471,3.316,1.98-0.232,1.244c-3.555-0.739-4.193,0.717-0.131,1.195c4.061,0.48-4.787,1.127-0.041,1.166
			c4.748,0.041-2.945,0.604,0.018,0.684c2.961,0.078-3.906,1.045,0.055,0.805c3.951-0.244-5.014,2.486,0.193,1.443
			c5.209-1.043-9.338,4.473,0.873,1.838c10.209-2.637-1.121,1.613,0.031,1.289c2.533-0.707-3.719,2.258,0.374,0.854
			c4.093-1.402-2.206,2.297,0.539,1.051c2.747-1.246-2.417,2.387,0.567,0.932c2.986-1.451,3.042-0.543,0.594,0.854
			c-0.912,0.523,3.805-2.207,4.133-1.607c0.246,0.443-1.537,2.312-1.014,2.521c0.646,0.26,0.061,1.865,0.533,1.342
			c1.354-1.506-1.303,4.73,0.771,1.816c0.438-0.615,0.801-1.031,1.096-1.289c1.107-0.963,1.793-1.607,0.865,0.117
			c-1.166,2.182,2.484-1.15,1.293,1.77c-1.193,2.922,2.551-2.279,1.49,1.41c-1.064,3.688,2.451-4.217,1.832-1.355
			c-0.615,2.857,2.121-0.432,2.055,1.822c-0.068,2.254,1.18-0.553,1.068-2.613c-0.113-2.057,1.555,5.256,1.174,2.457
			c-0.375-2.795,0.225-0.029,0.342-0.049c0.219-0.035,0.971,2.238,0.664-0.117c-0.314-2.359,3.141,3.758,1.9-0.51
			c-1.242-4.264,1.785,2.473,0.703-0.254c-1.084-2.725,2.346,3.133,0.738-0.303c-1.613-3.439,0.588-0.273,0.867-0.418
			c0.203-0.107-1.029-3.111,0.607-0.332c1.635,2.783-1.73-5.076,1.107-0.691c2.836,4.385,3.484,3.24,1.041-0.773
			c-2.445-4.018-0.682-2.74,1.092-0.965c1.777,1.777,1.859,0.639,0.58-0.586c-1.275-1.23-1.52-2.119,0.537-0.602
			c0.484,0.355,3.887,2.422,1.387-0.338c-2.5-2.758,2.793,1.074,0.469-0.707c-2.326-1.785,2.113-1.023,0.727-1.75
			c-1.389-0.73,0.299-0.975,0.432-1.502c0.066-0.26-2.043-1.553,0.191-0.795c2.23,0.76-1.535-1.01,0.133-0.633
			c1.668,0.373,0.129-0.688,0.186-1.029c0.035-0.232-1.969-1.01,0.102-0.688c2.078,0.318,4.475-0.848,0.111-0.855
			c-4.365-0.006,8.847-0.426,0.094-1.021c-8.752-0.594,4.828-1.262,0.045-1.223c-4.777,0.041,5.948-1.307-0.027-0.984
			c-5.979,0.324,5.213-3.148-0.225-1.895c-5.434,1.252,2.975-1.842-0.207-0.99c-3.189,0.852,3.061-3.288-0.518-1.704
			c-3.584,1.589,2.707-2.036-0.223-0.573c-2.932,1.463,2.883-2.782-0.508-1.114c-3.387,1.665-0.385-0.741-0.6-1.097
			c-0.289-0.48-3.156,0.947-0.936-1.391c2.23-2.34,1.688-2.527-0.568-0.717c-2.25,1.811,1.734-3.084-0.688-0.77
			c-2.42,2.312,1.129-3.701-1.207-1.151c-2.34,2.552-2.76,3.305-0.594-0.478c2.168-3.783,0.555-2.533-0.678-0.503
			c-1.23,2.03,1.484-4.008-0.811-0.532c-2.299,3.473,0.752-3.918-0.959-0.545c-1.715,3.375-2.83,2.541-2.057-0.905
			c0.77-3.447-0.229-2.587-0.855-0.28c-0.627,2.306,0.395-3.455-0.627-0.171c-1.018,3.282-1.561,3.259-1.613-0.325
			c-0.047-3.582-1.076-3.85-1.451-0.149C88.317,29.497,87.698,20.757,87.737,25.766z"/>
		<path style="fill:#FFFFFF;" d="M87.538,49.391c-4.25,0-7.703-3.457-7.703-7.699c0-4.243,3.453-7.699,7.703-7.699
			c4.244,0,7.697,3.455,7.697,7.699C95.235,45.934,91.784,49.391,87.538,49.391z M87.538,34.809c0.016,2.115-0.539-1.74-0.422,0.258
			c0.121,1.994-1.037-1.814-0.752-0.16c0.285,1.658-0.051,1.07-0.238,0.887c-0.234-0.221-0.662-1.422-0.783-1.02
			c-0.051,0.182,0.59,2.242,0.004,0.824c-0.58-1.414-0.121,0.438-0.623-0.191c-0.672-0.838-1.26-2.039-0.488,0.248
			c0.168,0.496,1.551,3.141,0.281,1.084c-1.271-2.055-0.098,0.484-0.34,0.324c-0.225-0.15-0.527-0.487-0.803-0.855
			c-0.717-0.959,0.031,1.156-0.459,0.388c-0.492-0.77-1.523-0.72-0.6,0.616c0.92,1.334,1.791,2.039-0.379,0.479
			c-2.168-1.557,0.553,1.172-0.301,0.455c-0.85-0.719,0.312,0.569-0.172,0.298c-0.475-0.271-1.24,0.211-0.326,0.719
			c0.314,0.179,0.506,0.352,0.574,0.489c0.127,0.25-0.154,0.367-0.795,0.135c-0.982-0.356-1.999-0.235-0.096,0.385
			c1.906,0.619,1.404,0.838-0.098,0.523c-1.5-0.311-1.77,0.305-0.055,0.506c1.715,0.203-2.027,0.475-0.016,0.492
			c2.004,0.016-1.248,0.254,0.008,0.289c1.248,0.035-1.652,0.441,0.02,0.34c1.674-0.102-2.116,1.049,0.082,0.611
			c2.199-0.439-3.945,1.889,0.371,0.773c4.311-1.111-0.477,0.682,0.012,0.545c1.07-0.299-1.568,0.953,0.16,0.363
			c1.727-0.592-0.934,0.969,0.229,0.441c1.162-0.521-1.021,1.008,0.238,0.396c1.26-0.617,1.281-0.23,0.254,0.357
			c-0.391,0.223,1.602-0.928,1.746-0.678c0.102,0.189-0.652,0.977-0.438,1.066c0.277,0.107,0.031,0.789,0.23,0.564
			c0.564-0.635-0.551,2,0.322,0.766c0.189-0.258,0.344-0.432,0.465-0.541c0.473-0.406,0.76-0.68,0.371,0.047
			c-0.496,0.924,1.045-0.482,0.541,0.75c-0.502,1.232,1.08-0.965,0.627,0.594c-0.447,1.561,1.039-1.781,0.781-0.57
			c-0.266,1.207,0.889-0.182,0.865,0.77c-0.033,0.953,0.498-0.234,0.447-1.102c-0.043-0.871,0.658,2.219,0.496,1.037
			c-0.156-1.182,0.096-0.014,0.146-0.021c0.094-0.014,0.406,0.945,0.277-0.053c-0.127-0.996,1.328,1.59,0.803-0.213
			c-0.527-1.801,0.754,1.045,0.297-0.109c-0.457-1.15,0.994,1.324,0.314-0.127c-0.682-1.453,0.246-0.117,0.367-0.178
			c0.086-0.045-0.436-1.312,0.258-0.137c0.686,1.176-0.732-2.145,0.467-0.293c1.193,1.85,1.475,1.365,0.438-0.328
			c-1.029-1.695-0.289-1.158,0.461-0.406c0.748,0.75,0.787,0.268,0.248-0.25c-0.541-0.52-0.643-0.895,0.227-0.256
			c0.203,0.154,1.641,1.025,0.584-0.135c-1.051-1.172,1.178,0.449,0.195-0.305c-0.977-0.752,0.896-0.432,0.312-0.74
			c-0.59-0.305,0.125-0.412,0.178-0.629c0.031-0.111-0.859-0.658,0.082-0.338c0.941,0.322-0.65-0.426,0.057-0.27
			c0.703,0.158,0.057-0.287,0.08-0.434c0.016-0.096-0.834-0.426,0.039-0.289c0.877,0.135,1.895-0.359,0.047-0.361
			c-1.84-0.002,3.738-0.18,0.039-0.434c-3.695-0.248,2.043-0.531,0.023-0.516c-2.02,0.018,2.514-0.553-0.016-0.416
			c-2.525,0.139,2.201-1.328-0.094-0.799c-2.295,0.531,1.26-0.777-0.086-0.418c-1.35,0.357,1.295-1.389-0.219-0.718
			c-1.512,0.668,1.139-0.864-0.092-0.246c-1.24,0.62,1.215-1.177-0.221-0.47c-1.426,0.703-0.164-0.311-0.25-0.461
			c-0.125-0.203-1.332,0.398-0.396-0.589c0.939-0.989,0.713-1.068-0.238-0.302c-0.951,0.763,0.73-1.305-0.293-0.328
			c-1.02,0.979,0.477-1.561-0.514-0.482c-0.982,1.076-1.162,1.395-0.246-0.203c0.918-1.6,0.23-1.07-0.285-0.213
			c-0.521,0.857,0.625-1.689-0.344-0.225c-0.969,1.467,0.322-1.656-0.402-0.232c-0.725,1.428-1.197,1.074-0.869-0.381
			c0.322-1.453-0.098-1.094-0.363-0.117c-0.26,0.975,0.168-1.459-0.26-0.072c-0.434,1.388-0.662,1.377-0.684-0.139
			c-0.021-1.512-0.455-1.623-0.613-0.062C87.78,36.383,87.522,32.69,87.538,34.809z"/>
	</g>
	<g>
		<circle style="fill:#010101;stroke:#FFFFFF;stroke-miterlimit:10;" cx="62.012" cy="89.121" r="38"/>
		<g>
			<path style="display:none;fill:#FFFFFF;" d="M91.535,89.17c0,16.285-13.203,29.482-29.484,29.482
				c-16.277,0-29.476-13.197-29.476-29.482c0-16.279,13.198-29.479,29.476-29.479C78.332,59.69,91.535,72.891,91.535,89.17z
				 M62.051,64.432c-13.657,0-24.736,11.076-24.736,24.738c0,13.666,11.078,24.738,24.736,24.738
				c13.662,0,24.74-11.072,24.74-24.738C86.791,75.508,75.713,64.432,62.051,64.432z"/>
			<g>
				<g>
					<path style="fill:#FFFFFF;" d="M62.012,64.909l1.168,0.021l0.139-2.351c0.229,0.012,0.463,0.028,0.688,0.042l-0.17,2.344
						l2.767,0.373l0.467-2.304c0.674,0.13,1.342,0.284,1.996,0.464l-0.564,2.253l1.158,0.359l0.756-2.205
						c0.256,0.086,0.51,0.174,0.764,0.266l-0.785,2.199l1.533,0.611l0.939-2.121c1.365,0.607,2.666,1.33,3.898,2.15l-1.311,1.936
						l1.367,0.955l1.506-1.768c0.562,0.434,1.104,0.893,1.629,1.371l-1.551,1.787l0.779,0.725l1.652-1.672
						c0.137,0.135,0.273,0.275,0.406,0.412l-1.598,1.666l0.436,0.453l1.678-1.568c1.637,1.805,3.031,3.836,4.135,6.039l-2.07,0.994
						l1.361,3.213l2.162-0.674c0.078,0.227,0.148,0.457,0.221,0.689l-2.184,0.65l0.172,0.715l2.221-0.613
						c0.062,0.205,0.113,0.41,0.164,0.619l-2.207,0.561l0.188,0.928l2.246-0.443c0.105,0.51,0.195,1.029,0.264,1.553l-2.275,0.35
						l0.162,1.279l2.277-0.188c0.031,0.426,0.053,0.854,0.07,1.283l-2.365,0.131l0.025,0.828l2.637,0.004
						c0-14.887-12.068-26.953-26.951-26.953l0,0"/>
					<path style="fill:#FFFFFF;" d="M86.326,89.219l-0.023,1.17l2.346,0.137c-0.006,0.232-0.021,0.459-0.037,0.691l-2.34-0.17
						l-0.373,2.762l2.303,0.473c-0.129,0.674-0.283,1.34-0.465,1.992l-2.252-0.566l-0.359,1.156l2.201,0.758
						c-0.08,0.258-0.174,0.51-0.268,0.764l-2.197-0.781l-0.609,1.535l2.121,0.936c-0.609,1.363-1.33,2.666-2.152,3.898l-1.934-1.311
						l-0.949,1.369l1.76,1.5c-0.436,0.564-0.887,1.109-1.367,1.631l-1.787-1.553l-0.727,0.785l1.676,1.648
						c-0.141,0.137-0.275,0.273-0.418,0.406l-1.662-1.596l-0.453,0.434l1.566,1.678c-1.805,1.637-3.834,3.033-6.041,4.135
						l-0.99-2.068l-3.213,1.359l0.67,2.164c-0.225,0.074-0.453,0.146-0.684,0.217l-0.652-2.184l-0.717,0.172l0.611,2.225
						c-0.203,0.055-0.406,0.111-0.613,0.158l-0.562-2.199l-0.928,0.186l0.445,2.246c-0.516,0.1-1.029,0.191-1.553,0.262
						l-0.354-2.275l-1.275,0.158l0.184,2.277c-0.426,0.035-0.854,0.061-1.283,0.076l-0.131-2.24l-0.828,0.025v2.51
						c14.882,0,26.951-12.07,26.951-26.951l0,0"/>
				</g>
				<g>
					<path style="fill:#FFFFFF;" d="M62.137,113.533l-1.174-0.021l-0.135,2.352c-0.234-0.012-0.467-0.025-0.695-0.043l0.172-2.342
						l-2.76-0.369l-0.477,2.303c-0.67-0.129-1.336-0.285-1.99-0.463l0.564-2.254l-1.154-0.361l-0.76,2.203
						c-0.254-0.086-0.512-0.172-0.76-0.266l0.779-2.199l-1.537-0.609l-0.934,2.123c-1.365-0.611-2.668-1.33-3.898-2.154l1.309-1.936
						l-1.367-0.949l-1.5,1.762c-0.562-0.432-1.107-0.891-1.635-1.371l1.557-1.785l-0.789-0.725l-1.648,1.672
						c-0.135-0.137-0.271-0.273-0.4-0.412l1.59-1.666l-0.436-0.453l-1.674,1.568c-1.641-1.809-3.036-3.836-4.135-6.041l2.071-0.996
						l-1.362-3.207l-2.162,0.674c-0.075-0.229-0.153-0.459-0.219-0.691l2.187-0.648L38.59,95.51l-2.227,0.613
						c-0.054-0.205-0.108-0.412-0.156-0.621l2.198-0.555l-0.187-0.932l-2.245,0.449c-0.101-0.516-0.187-1.035-0.262-1.559
						l2.277-0.352l-0.16-1.275l-2.278,0.186c-0.038-0.428-0.061-0.852-0.077-1.283l2.37-0.131l-0.024-0.824l-2.638-0.002
						c0,14.883,12.069,26.947,26.954,26.947l0,0"/>
					<path style="fill:#FFFFFF;" d="M37.821,89.229l0.024-1.174l-2.354-0.135c0.012-0.23,0.023-0.461,0.043-0.693l2.344,0.17
						l0.369-2.76l-2.302-0.471c0.129-0.678,0.28-1.342,0.463-1.996l2.249,0.566l0.367-1.156l-2.207-0.76
						c0.086-0.256,0.172-0.51,0.264-0.76l2.2,0.779l0.611-1.533l-2.124-0.938c0.613-1.363,1.333-2.666,2.153-3.895l1.939,1.307
						l0.952-1.367l-1.769-1.504c0.435-0.561,0.895-1.107,1.375-1.631l1.784,1.553l0.729-0.783L43.256,70.4
						c0.132-0.139,0.271-0.273,0.412-0.408l1.664,1.596l0.453-0.434l-1.562-1.672c1.801-1.643,3.83-3.039,6.033-4.139l1.021,2.133
						l3.211-1.357l-0.701-2.23c0.232-0.074,0.461-0.149,0.693-0.22l0.648,2.28l0.717-0.172l-0.615-2.322
						c0.211-0.053,0.412-0.105,0.623-0.158l0.572,2.271l0.932-0.188l-0.459-2.313c0.51-0.102,1.029-0.191,1.551-0.263l0.352,2.344
						l1.277-0.163l-0.186-2.342c0.426-0.034,0.85-0.062,1.281-0.075l0.129,2.374l0.826-0.025l0.008-2.641
						c-14.885,0-26.954,12.067-26.954,26.95l0,0"/>
				</g>
			</g>
			<g>
				<g>
					<path style="fill:#FFFFFF;" d="M80.963,70.164l0.893,0.932l1.941-1.729c0.172,0.189,0.34,0.379,0.508,0.574l-1.957,1.689
						l1.857,2.445l2.168-1.43c0.426,0.627,0.824,1.268,1.195,1.916l-2.199,1.318l0.619,1.184l2.311-1.129
						c0.133,0.266,0.268,0.531,0.391,0.805l-2.33,1.102l0.725,1.67l2.385-0.922c0.586,1.539,1.037,3.115,1.357,4.717l-2.527,0.49
						l0.32,1.807l2.551-0.205c0.1,0.777,0.172,1.561,0.201,2.344l-2.604,0.182l0.047,1.176l2.588-0.018c0.004,0.211,0,0.424,0,0.639
						l-2.549,0.053l-0.012,0.693l2.529,0.084c-0.129,2.686-0.623,5.355-1.484,7.934l-2.391-0.836l-1.441,3.561l2.215,1.164
						c-0.121,0.234-0.242,0.471-0.371,0.705l-2.209-1.197l-0.426,0.695l2.219,1.256c-0.117,0.203-0.242,0.406-0.367,0.607
						l-2.148-1.281l-0.58,0.867l2.098,1.406c-0.32,0.48-0.652,0.953-1.006,1.418l-2.047-1.5l-0.869,1.117l1.916,1.633
						c-0.301,0.357-0.613,0.711-0.941,1.059l-1.949-1.746l-0.623,0.666l2.059,2.059c11.6-11.605,11.6-30.426,0-42.031l0,0"/>
					<path style="fill:#FFFFFF;" d="M80.971,108.074l-0.936,0.893l1.73,1.939c-0.189,0.176-0.381,0.342-0.576,0.508l-1.691-1.957
						l-2.441,1.863l1.428,2.166c-0.623,0.424-1.268,0.822-1.916,1.195l-1.32-2.199l-1.18,0.617l1.127,2.312
						c-0.266,0.135-0.531,0.26-0.803,0.387l-1.104-2.326l-1.668,0.723l0.924,2.383c-1.545,0.59-3.117,1.043-4.721,1.363
						l-0.486-2.533l-1.809,0.326l0.203,2.549c-0.777,0.1-1.56,0.166-2.339,0.201l-0.184-2.604l-1.172,0.043l0.014,2.594
						c-0.211,0.002-0.424,0-0.639-0.006l-0.055-2.545l-0.689-0.01l-0.086,2.525c-2.686-0.131-5.359-0.625-7.932-1.484l0.838-2.387
						l-3.564-1.445l-1.164,2.213c-0.234-0.119-0.469-0.24-0.705-0.367l1.197-2.209l-0.694-0.426l-1.255,2.213
						c-0.203-0.115-0.406-0.236-0.609-0.357l1.283-2.152l-0.869-0.578l-1.404,2.098c-0.482-0.32-0.955-0.656-1.418-1.008l1.5-2.049
						l-1.121-0.871l-1.631,1.92c-0.354-0.305-0.713-0.617-1.057-0.941l1.645-1.848l-0.666-0.625L41,110.133
						c11.604,11.604,30.421,11.604,42.027-0.002l0,0"/>
				</g>
				<g>
					<path style="fill:#FFFFFF;" d="M43.146,108.172l-0.896-0.928l-1.938,1.723c-0.176-0.188-0.344-0.377-0.508-0.57l1.962-1.695
						l-1.868-2.439l-2.163,1.428c-0.424-0.623-0.817-1.266-1.192-1.916l2.198-1.316l-0.623-1.184l-2.309,1.129
						c-0.133-0.27-0.261-0.535-0.385-0.805l2.323-1.102l-0.722-1.674l-2.385,0.926c-0.584-1.539-1.041-3.117-1.356-4.719
						l2.525-0.488l-0.323-1.807l-2.546,0.203c-0.101-0.777-0.166-1.561-0.201-2.344l2.604-0.18l-0.047-1.178l-2.593,0.02
						c-0.004-0.215,0.004-0.428,0.004-0.639l2.55-0.055l0.008-0.691l-2.526-0.084c0.132-2.686,0.623-5.355,1.486-7.934l2.388,0.838
						l1.443-3.564l-2.215-1.162c0.121-0.236,0.242-0.471,0.367-0.705l2.214,1.195l0.422-0.695l-2.215-1.256
						c0.121-0.201,0.242-0.406,0.363-0.607l2.151,1.283l0.577-0.869l-2.093-1.406c0.315-0.48,0.656-0.951,1.006-1.416l2.05,1.502
						l0.864-1.125l-1.917-1.627c0.304-0.361,0.615-0.713,0.944-1.061l1.948,1.746l0.623-0.666l-2.057-2.057
						c-11.601,11.605-11.601,30.426,0,42.025l0,0"/>
					<path style="fill:#FFFFFF;" d="M43.138,70.262l0.936-0.895l-1.731-1.939c0.191-0.174,0.384-0.34,0.578-0.508l1.691,1.959
						l2.439-1.863l-1.427-2.166c0.625-0.423,1.264-0.82,1.919-1.191l1.314,2.197l1.18-0.619l-1.123-2.311
						c0.262-0.133,0.531-0.264,0.803-0.388l1.1,2.328l1.677-0.723l-0.929-2.385c1.541-0.586,3.121-1.04,4.719-1.362l0.49,2.534
						l1.809-0.328l-0.201-2.545c0.773-0.102,1.555-0.167,2.336-0.205l0.182,2.606l1.178-0.047l-0.018-2.59
						c0.211-0.002,0.426,0.002,0.641,0.006l0.051,2.541l0.693,0.013l0.08-2.529c2.691,0.129,5.361,0.626,7.937,1.488l-0.869,2.458
						l3.559,1.444l1.199-2.283c0.234,0.117,0.473,0.243,0.705,0.368l-1.273,2.283l0.697,0.424l1.33-2.287
						c0.201,0.118,0.406,0.236,0.607,0.359l-1.318,2.218l0.867,0.578l1.445-2.162c0.48,0.316,0.951,0.654,1.414,1.007l-1.551,2.1
						l1.121,0.869l1.678-1.971c0.357,0.305,0.713,0.617,1.061,0.939l-1.748,1.951l0.668,0.625l2.061-2.057
						c-11.605-11.604-30.425-11.604-42.025,0.002l0,0"/>
				</g>
			</g>
		</g>
		<path style="fill:#FFFFFF;" d="M62.002,106.801c-10.055,0-17.117-7.061-17.117-17.113s7.062-17.115,17.117-17.115
			c10.05,0,17.113,7.062,17.113,17.115S72.053,106.801,62.002,106.801z M62.002,73.385c0.037,5.014-1.271-4.113-0.992,0.613
			c0.281,4.73-2.459-4.297-1.783-0.375c0.67,3.922-0.115,2.531-0.566,2.1c-0.547-0.523-1.566-3.367-1.852-2.418
			c-0.129,0.438,1.391,5.307,0.012,1.959c-1.379-3.35-0.283,1.039-1.479-0.451c-1.594-1.988-2.98-4.828-1.156,0.578
			c0.393,1.174,3.68,7.434,0.67,2.568c-3.008-4.865-0.242,1.15-0.803,0.771c-0.537-0.359-1.246-1.158-1.898-2.023
			c-1.703-2.271,0.066,2.736-1.099,0.916c-1.166-1.82-3.605-1.699-1.423,1.459c2.186,3.16,4.244,4.822-0.889,1.135
			c-5.133-3.689,1.305,2.775-0.706,1.072C46.028,79.59,48.76,82.641,47.633,82c-1.127-0.643-2.95,0.494-0.791,1.697
			c0.76,0.42,1.209,0.836,1.371,1.158c0.305,0.592-0.369,0.875-1.877,0.324c-2.323-0.846-4.74-0.561-0.23,0.904
			c4.51,1.471,3.316,1.98-0.23,1.244c-3.555-0.74-4.193,0.717-0.133,1.195c4.061,0.48-4.785,1.127-0.039,1.166
			c4.748,0.041-2.947,0.604,0.016,0.684c2.963,0.078-3.904,1.045,0.055,0.805c3.952-0.244-5.012,2.486,0.195,1.443
			s-9.339,4.473,0.873,1.838c10.209-2.637-1.123,1.613,0.03,1.289c2.532-0.707-3.72,2.258,0.374,0.854
			c4.094-1.402-2.206,2.297,0.539,1.051c2.747-1.246-2.417,2.387,0.567,0.932c2.987-1.451,3.042-0.543,0.595,0.854
			c-0.914,0.523,3.805-2.207,4.131-1.607c0.246,0.443-1.535,2.312-1.014,2.521c0.648,0.26,0.062,1.865,0.535,1.342
			c1.352-1.506-1.303,4.73,0.77,1.816c0.439-0.615,0.801-1.031,1.096-1.289c1.109-0.963,1.795-1.607,0.867,0.117
			c-1.166,2.182,2.482-1.15,1.293,1.77c-1.193,2.922,2.551-2.279,1.488,1.41c-1.062,3.688,2.453-4.217,1.834-1.355
			c-0.617,2.857,2.119-0.432,2.055,1.822c-0.068,2.254,1.178-0.553,1.066-2.613c-0.113-2.057,1.555,5.256,1.174,2.457
			c-0.375-2.795,0.227-0.029,0.342-0.049c0.221-0.035,0.972,2.238,0.664-0.117c-0.312-2.359,3.141,3.758,1.902-0.51
			c-1.244-4.264,1.785,2.473,0.701-0.254c-1.084-2.725,2.346,3.133,0.74-0.303c-1.613-3.439,0.586-0.273,0.865-0.418
			c0.203-0.107-1.029-3.111,0.609-0.332c1.633,2.783-1.73-5.076,1.105-0.691c2.838,4.385,3.484,3.24,1.041-0.773
			c-2.443-4.018-0.682-2.74,1.092-0.965c1.777,1.777,1.859,0.639,0.58-0.586c-1.273-1.23-1.52-2.119,0.539-0.602
			c0.482,0.355,3.885,2.422,1.387-0.338c-2.502-2.758,2.791,1.074,0.469-0.707c-2.328-1.785,2.111-1.023,0.725-1.75
			c-1.389-0.73,0.299-0.975,0.434-1.502c0.064-0.26-2.043-1.553,0.189-0.795c2.23,0.76-1.535-1.01,0.133-0.633
			c1.668,0.373,0.129-0.688,0.188-1.029c0.035-0.232-1.969-1.01,0.102-0.688c2.078,0.318,4.475-0.848,0.109-0.855
			c-4.365-0.006,8.848-0.426,0.094-1.021c-8.75-0.594,4.828-1.262,0.047-1.223c-4.779,0.041,5.947-1.307-0.029-0.984
			c-5.979,0.324,5.213-3.148-0.225-1.895c-5.434,1.252,2.975-1.842-0.205-0.99c-3.189,0.852,3.059-3.289-0.52-1.705
			c-3.582,1.59,2.709-2.035-0.223-0.572s2.885-2.783-0.506-1.115c-3.389,1.666-0.387-0.74-0.6-1.096
			c-0.289-0.48-3.158,0.947-0.938-1.391c2.23-2.34,1.689-2.527-0.566-0.717c-2.252,1.811,1.732-3.084-0.688-0.77
			c-2.42,2.312,1.127-3.701-1.209-1.152c-2.338,2.553-2.76,3.305-0.594-0.477c2.168-3.783,0.555-2.533-0.678-0.504
			c-1.23,2.031,1.486-4.008-0.811-0.531c-2.299,3.473,0.754-3.92-0.959-0.545c-1.715,3.375-2.828,2.541-2.057-0.906
			s-0.227-2.586-0.854-0.279s0.393-3.455-0.627-0.172c-1.017,3.283-1.56,3.26-1.615-0.324c-0.047-3.582-1.074-3.85-1.449-0.148
			C62.583,77.117,61.961,68.377,62.002,73.385z"/>
		<path style="fill:#FFFFFF;" d="M61.801,97.012c-4.25,0-7.701-3.457-7.701-7.699c0-4.244,3.451-7.699,7.701-7.699
			c4.246,0,7.699,3.455,7.699,7.699C69.5,93.555,66.047,97.012,61.801,97.012z M61.801,82.43c0.016,2.115-0.537-1.74-0.42,0.258
			c0.119,1.994-1.037-1.814-0.752-0.16c0.283,1.658-0.053,1.07-0.238,0.887c-0.234-0.221-0.664-1.422-0.785-1.02
			c-0.051,0.182,0.59,2.242,0.004,0.824c-0.58-1.414-0.119,0.438-0.623-0.191c-0.67-0.838-1.258-2.039-0.486,0.248
			c0.168,0.496,1.551,3.141,0.281,1.084c-1.273-2.055-0.1,0.484-0.34,0.324c-0.227-0.15-0.527-0.488-0.805-0.855
			c-0.717-0.959,0.031,1.156-0.459,0.387s-1.523-0.719-0.6,0.617c0.92,1.334,1.793,2.039-0.379,0.479
			c-2.166-1.557,0.553,1.172-0.301,0.455c-0.848-0.719,0.312,0.568-0.17,0.297c-0.477-0.27-1.24,0.211-0.328,0.719
			c0.316,0.18,0.506,0.352,0.576,0.49c0.127,0.25-0.156,0.367-0.795,0.135c-0.982-0.357-2-0.236-0.096,0.385
			c1.904,0.619,1.402,0.838-0.1,0.523c-1.5-0.311-1.77,0.305-0.053,0.506c1.715,0.203-2.027,0.475-0.016,0.492
			c2.002,0.016-1.248,0.254,0.008,0.289c1.246,0.035-1.654,0.441,0.018,0.34c1.676-0.102-2.115,1.049,0.082,0.611
			c2.199-0.439-3.945,1.889,0.371,0.773c4.312-1.111-0.475,0.682,0.012,0.545c1.072-0.299-1.566,0.953,0.16,0.363
			c1.727-0.592-0.932,0.969,0.23,0.441c1.16-0.521-1.023,1.008,0.236,0.396c1.26-0.617,1.283-0.23,0.254,0.357
			c-0.391,0.223,1.602-0.928,1.746-0.678c0.102,0.189-0.65,0.977-0.436,1.066c0.275,0.107,0.029,0.789,0.229,0.564
			c0.566-0.635-0.549,2,0.324,0.766c0.188-0.258,0.344-0.432,0.465-0.541c0.471-0.406,0.76-0.68,0.369,0.047
			c-0.494,0.924,1.045-0.482,0.541,0.75c-0.502,1.232,1.08-0.965,0.629,0.594c-0.447,1.561,1.037-1.781,0.779-0.57
			c-0.264,1.207,0.889-0.182,0.865,0.77c-0.031,0.953,0.498-0.234,0.447-1.102c-0.043-0.871,0.66,2.219,0.496,1.037
			c-0.156-1.182,0.098-0.014,0.148-0.021c0.094-0.014,0.404,0.945,0.275-0.053c-0.127-0.996,1.33,1.59,0.803-0.213
			c-0.525-1.801,0.754,1.045,0.297-0.109c-0.455-1.15,0.994,1.324,0.316-0.127c-0.682-1.453,0.246-0.117,0.367-0.178
			c0.085-0.045-0.438-1.312,0.257-0.137c0.686,1.176-0.734-2.145,0.467-0.293c1.191,1.85,1.473,1.365,0.436-0.328
			c-1.027-1.695-0.289-1.158,0.461-0.406c0.748,0.75,0.787,0.268,0.248-0.25c-0.541-0.52-0.643-0.895,0.227-0.256
			c0.203,0.154,1.643,1.025,0.586-0.135c-1.053-1.172,1.176,0.449,0.193-0.305c-0.977-0.752,0.896-0.432,0.312-0.74
			c-0.588-0.305,0.125-0.412,0.18-0.629c0.031-0.111-0.861-0.658,0.082-0.338c0.939,0.322-0.652-0.426,0.055-0.27
			c0.705,0.158,0.059-0.287,0.082-0.434c0.014-0.096-0.836-0.426,0.039-0.289c0.877,0.135,1.895-0.359,0.047-0.361
			c-1.842-0.002,3.736-0.18,0.037-0.434c-3.693-0.248,2.045-0.531,0.025-0.516c-2.02,0.018,2.514-0.553-0.018-0.416
			c-2.525,0.139,2.203-1.328-0.092-0.799c-2.297,0.531,1.258-0.777-0.086-0.418c-1.35,0.357,1.295-1.389-0.221-0.719
			c-1.51,0.668,1.139-0.863-0.092-0.246c-1.24,0.621,1.215-1.176-0.219-0.469c-1.426,0.703-0.164-0.311-0.25-0.461
			c-0.125-0.203-1.332,0.398-0.398-0.59c0.941-0.988,0.715-1.068-0.236-0.301c-0.951,0.762,0.729-1.305-0.293-0.328
			c-1.021,0.979,0.477-1.561-0.514-0.482c-0.982,1.076-1.162,1.395-0.246-0.203c0.916-1.6,0.23-1.07-0.285-0.213
			c-0.521,0.857,0.625-1.689-0.346-0.225c-0.966,1.467,0.322-1.656-0.402-0.232c-0.725,1.428-1.195,1.074-0.869-0.381
			c0.324-1.453-0.096-1.094-0.361-0.117c-0.262,0.975,0.168-1.459-0.262-0.072c-0.432,1.387-0.662,1.377-0.682-0.139
			c-0.023-1.512-0.455-1.623-0.613-0.062C62.045,84.004,61.788,80.311,61.801,82.43z"/>
	</g>
</g>
</svg>
