<?xml version="1.0" encoding="utf-8"?>
<!-- Generated by IcoMoon.io -->
<!DOCTYPE svg PUBLIC "-//W3C//DTD SVG 1.1//EN" "http://www.w3.org/Graphics/SVG/1.1/DTD/svg11.dtd">
<svg version="1.1" xmlns="http://www.w3.org/2000/svg" xmlns:xlink="http://www.w3.org/1999/xlink" width="384" height="512" viewBox="0 0 384 512">
<g id="icomoon-ignore">
</g>
<path d="M352 361s0-153 0-201-48-96-96-96c-32 0-32 0-32 0v-64l-96 96 96 96v-64s16 0 32 0 32 16 32 32 0 201 0 201c-19 11-32 31.5-32 55 0 35.5 28.5 64 64 64s64-28.5 64-64c0-23.5-13-44-32-55zM320 448c-17.5 0-32-14.5-32-32s14.5-32 32-32 32 14.5 32 32-14.5 32-32 32zM64 32c-35.5 0-64 28.5-64 64 0 23.5 13 44 32 55v209.5c-19 11-32 31.5-32 55 0 35.5 28.5 64 64 64s64-28.5 64-64c0-23.5-13-44-32-55v-209.5c19-11 32-31.5 32-55 0-35.5-28.5-64-64-64zM64 448c-17.5 0-32-14.5-32-32s14.5-32 32-32 32 14.5 32 32-14.5 32-32 32zM64 128c-17.5 0-32-14.5-32-32s14.5-32 32-32 32 14.5 32 32-14.5 32-32 32z"></path>
</svg>
