<svg xmlns="http://www.w3.org/2000/svg" xmlns:xlink="http://www.w3.org/1999/xlink" version="1.1" viewBox="0 0 100 100" x="0px" y="0px"><g><path d="M86.2,47a8.31,8.31,0,0,0-7.86,5.67l-11.5-2.78a21.75,21.75,0,0,0-4.16-17.47L73.2,23.51A13.23,13.23,0,1,0,71.92,22L61.39,30.9a21.77,21.77,0,0,0-29.54-2.24L20.8,16a8.22,8.22,0,1,0-1.5,1.32L30.34,30a21.79,21.79,0,0,0,1.83,33.11L24.06,74.78a13,13,0,1,0,1.65,1.13l8.1-11.69a21.76,21.76,0,0,0,23.09.07l11.68,17a5.75,5.75,0,1,0,1.65-1.13l-11.68-17a21.9,21.9,0,0,0,7.81-11.33l11.57,2.79c0,.22,0,.44,0,.66A8.3,8.3,0,1,0,86.2,47ZM71.43,14.36a11.1,11.1,0,1,1,2,6.33A11,11,0,0,1,71.43,14.36ZM18,15.78a6.28,6.28,0,1,1,1.51-1.31A6.34,6.34,0,0,1,18,15.78ZM28.52,86a11,11,0,1,1-4-8.45A11,11,0,0,1,28.52,86Zm41.23-3a3.7,3.7,0,1,1-.88,2.37A3.7,3.7,0,0,1,69.75,83ZM64.88,49.42A19.77,19.77,0,0,1,35,62.57,19.85,19.85,0,1,1,64.88,49.42ZM86.2,61.59a6.3,6.3,0,0,1-6.3-6.3c0-.06,0-.12,0-.19a6.29,6.29,0,1,1,6.29,6.48Z"/></g></svg>