<?xml version="1.0" encoding="utf-8"?>
<!-- Generated by IcoMoon.io -->
<!DOCTYPE svg PUBLIC "-//W3C//DTD SVG 1.1//EN" "http://www.w3.org/Graphics/SVG/1.1/DTD/svg11.dtd">
<svg version="1.1" xmlns="http://www.w3.org/2000/svg" xmlns:xlink="http://www.w3.org/1999/xlink" width="160" height="448" viewBox="0 0 160 448">
<g id="icomoon-ignore">
</g>
<path d="M160 336v32q0 6.5-4.75 11.25t-11.25 4.75h-128q-6.5 0-11.25-4.75t-4.75-11.25v-32q0-6.5 4.75-11.25t11.25-4.75h16v-96h-16q-6.5 0-11.25-4.75t-4.75-11.25v-32q0-6.5 4.75-11.25t11.25-4.75h96q6.5 0 11.25 4.75t4.75 11.25v144h16q6.5 0 11.25 4.75t4.75 11.25zM128 48v48q0 6.5-4.75 11.25t-11.25 4.75h-64q-6.5 0-11.25-4.75t-4.75-11.25v-48q0-6.5 4.75-11.25t11.25-4.75h64q6.5 0 11.25 4.75t4.75 11.25z"></path>
</svg>
