<svg xmlns="http://www.w3.org/2000/svg" version="1.1" x="0px" y="0px" viewBox="0 0 100 100"><g><path d="M 25 6 C 18.821328 6 14 11.49394 14 18 L 14 82 C 14 88.5061 18.821328 94 25 94 L 75 94 C 81.178672 94 86 88.5061 86 82 L 86 18 C 86 11.49394 81.178672 6 75 6 L 25 6 z M 25 10 L 75 10 C 78.793328 10 82 13.42607 82 18 L 82 82 C 82 86.5739 78.793328 90 75 90 L 25 90 C 21.206672 90 18 86.5739 18 82 L 18 18 C 18 13.42607 21.206672 10 25 10 z M 48 32 C 46.453397 32 45.117741 32.85343 44.28125 33.96875 C 43.444759 35.08407 43 36.48947 43 38 C 43 39.51053 43.444759 40.91593 44.28125 42.03125 C 45.117741 43.14657 46.453396 44 48 44 L 48 47 L 41.125 47 C 36.246219 47 32 50.54485 32 55.21875 L 32 56 C 30.453397 56 29.117741 56.85335 28.28125 57.96875 C 27.444759 59.08405 27 60.4895 27 62 C 27 63.5105 27.444759 64.91595 28.28125 66.03125 C 29.117741 67.14665 30.453396 68 32 68 L 36 68 C 37.546603 68 38.882259 67.14665 39.71875 66.03125 C 40.555241 64.91595 41 63.5105 41 62 C 41 60.4895 40.555241 59.08405 39.71875 57.96875 C 38.882259 56.85335 37.546604 56 36 56 L 36 55.21875 C 36 52.99835 38.124671 51 41.125 51 L 48 51 L 48 56 C 46.453397 56 45.117741 56.85335 44.28125 57.96875 C 43.444759 59.08405 43 60.4895 43 62 C 43 63.5105 43.444759 64.91595 44.28125 66.03125 C 45.117741 67.14665 46.453396 68 48 68 L 52 68 C 53.546603 68 54.882259 67.14665 55.71875 66.03125 C 56.555241 64.91595 57 63.5105 57 62 C 57 60.4895 56.555241 59.08405 55.71875 57.96875 C 54.882259 56.85335 53.546604 56 52 56 L 52 51 L 58.875 51 C 61.875329 51 64 52.99835 64 55.21875 L 64 56 C 62.453397 56 61.117741 56.85335 60.28125 57.96875 C 59.444759 59.08405 59 60.4895 59 62 C 59 63.5105 59.444759 64.91595 60.28125 66.03125 C 61.117741 67.14665 62.453396 68 64 68 L 68 68 C 69.546603 68 70.882259 67.14665 71.71875 66.03125 C 72.555241 64.91595 73 63.5105 73 62 C 73 60.4895 72.555241 59.08405 71.71875 57.96875 C 70.882259 56.85335 69.546604 56 68 56 L 68 55.21875 C 68 50.54485 63.753781 47 58.875 47 L 52 47 L 52 44 C 53.546603 44 54.882259 43.14657 55.71875 42.03125 C 56.555241 40.91593 57 39.51053 57 38 C 57 36.48947 56.555241 35.08407 55.71875 33.96875 C 54.882259 32.85343 53.546604 32 52 32 L 48 32 z M 48 36 L 52 36 C 52.115398 36 52.283241 36.0131 52.53125 36.34375 C 52.779259 36.67443 53 37.29453 53 38 C 53 38.70547 52.77926 39.29432 52.53125 39.625 C 52.28324 39.95568 52.115397 40 52 40 L 48 40 C 47.884602 40 47.716759 39.9557 47.46875 39.625 C 47.220741 39.29432 47 38.70547 47 38 C 47 37.29453 47.22074 36.67443 47.46875 36.34375 C 47.71676 36.01307 47.884603 36 48 36 z M 32 60 L 36 60 C 36.115398 60 36.283241 60.01295 36.53125 60.34375 C 36.779259 60.67435 37 61.2945 37 62 C 37 62.7055 36.77926 63.2943 36.53125 63.625 C 36.28324 63.9557 36.115397 64 36 64 L 32 64 C 31.884602 64 31.716759 63.956 31.46875 63.625 C 31.220741 63.2943 31 62.7055 31 62 C 31 61.2945 31.22074 60.67435 31.46875 60.34375 C 31.71676 60.01305 31.884603 60 32 60 z M 48 60 L 52 60 C 52.115398 60 52.283241 60.01295 52.53125 60.34375 C 52.779259 60.67435 53 61.2945 53 62 C 53 62.7055 52.77926 63.2943 52.53125 63.625 C 52.28324 63.9557 52.115397 64 52 64 L 48 64 C 47.884602 64 47.716759 63.956 47.46875 63.625 C 47.220741 63.2943 47 62.7055 47 62 C 47 61.2945 47.22074 60.67435 47.46875 60.34375 C 47.71676 60.01305 47.884603 60 48 60 z M 64 60 L 68 60 C 68.115398 60 68.283241 60.01295 68.53125 60.34375 C 68.779259 60.67435 69 61.2945 69 62 C 69 62.7055 68.77926 63.2943 68.53125 63.625 C 68.28324 63.9557 68.115397 64 68 64 L 64 64 C 63.884602 64 63.716759 63.956 63.46875 63.625 C 63.220741 63.2943 63 62.7055 63 62 C 63 61.2945 63.22074 60.67435 63.46875 60.34375 C 63.71676 60.01305 63.884603 60 64 60 z "/></g></svg>