<?xml version="1.0" encoding="utf-8"?>
<!-- Generated by IcoMoon.io -->
<!DOCTYPE svg PUBLIC "-//W3C//DTD SVG 1.1//EN" "http://www.w3.org/Graphics/SVG/1.1/DTD/svg11.dtd">
<svg version="1.1" xmlns="http://www.w3.org/2000/svg" xmlns:xlink="http://www.w3.org/1999/xlink" width="256" height="448" viewBox="0 0 256 448">
<g id="icomoon-ignore">
</g>
<path d="M184 144q0 3.25-2.375 5.625t-5.625 2.375-5.625-2.375-2.375-5.625q0-11.5-13.5-17.75t-26.5-6.25q-3.25 0-5.625-2.375t-2.375-5.625 2.375-5.625 5.625-2.375q12.5 0 24.875 4t21.75 13.5 9.375 22.5zM224 144q0-18-8.625-33.5t-22.5-25.375-30.75-15.5-34.125-5.625-34.125 5.625-30.75 15.5-22.5 25.375-8.625 33.5q0 25.25 17 45 2.5 2.75 7.625 8.25t7.625 8.25q32 38.25 35.25 74.5h57q3.25-36.25 35.25-74.5 2.5-2.75 7.625-8.25t7.625-8.25q17-19.75 17-45zM256 144q0 38.75-25.75 67-11.25 12.25-18.625 21.75t-14.875 23.875-8.5 26.875q11.75 7 11.75 20.5 0 9.25-6.25 16 6.25 6.75 6.25 16 0 13-11.25 20.25 3.25 5.75 3.25 11.75 0 11.5-7.875 17.75t-19.375 6.25q-5 11-15 17.5t-21.75 6.5-21.75-6.5-15-17.5q-11.5 0-19.375-6.25t-7.875-17.75q0-6 3.25-11.75-11.25-7.25-11.25-20.25 0-9.25 6.25-16-6.25-6.75-6.25-16 0-13.5 11.75-20.5-1-12.5-8.5-26.875t-14.875-23.875-18.625-21.75q-25.75-28.25-25.75-67 0-24.75 11.125-46.125t29.25-35.5 41-22.25 46.625-8.125 46.625 8.125 41 22.25 29.25 35.5 11.125 46.125z"></path>
</svg>
