<?xml version="1.0" encoding="utf-8"?>
<!-- Generated by IcoMoon.io -->
<!DOCTYPE svg PUBLIC "-//W3C//DTD SVG 1.1//EN" "http://www.w3.org/Graphics/SVG/1.1/DTD/svg11.dtd">
<svg version="1.1" xmlns="http://www.w3.org/2000/svg" xmlns:xlink="http://www.w3.org/1999/xlink" width="288" height="448" viewBox="0 0 288 448">
<g id="icomoon-ignore">
</g>
<path d="M80 192h128v-48q0-26.5-18.75-45.25t-45.25-18.75-45.25 18.75-18.75 45.25v48zM288 216v144q0 10-7 17t-17 7h-240q-10 0-17-7t-7-17v-144q0-10 7-17t17-7h8v-48q0-46 33-79t79-33 79 33 33 79v48h8q10 0 17 7t7 17z"></path>
</svg>
