<?xml version="1.0" encoding="utf-8"?>
<!-- Generated by IcoMoon.io -->
<!DOCTYPE svg PUBLIC "-//W3C//DTD SVG 1.1//EN" "http://www.w3.org/Graphics/SVG/1.1/DTD/svg11.dtd">
<svg version="1.1" xmlns="http://www.w3.org/2000/svg" xmlns:xlink="http://www.w3.org/1999/xlink" width="512" height="448" viewBox="0 0 512 448">
<g id="icomoon-ignore">
</g>
<path d="M505 2.75q7 5 7 13.25v352q0 5-2.75 9t-7.25 5.75l-160 64q-6 2.75-12 0l-154-61.5-154 61.5q-2.5 1.25-6 1.25-4.75 0-9-2.75-7-5-7-13.25v-352q0-5 2.75-9t7.25-5.75l160-64q6-2.75 12 0l154 61.5 154-61.5q8-3.25 15 1.5zM184 36.5v317.5l144 57.5v-317.5zM32 90.75v317.5l136-54.25v-317.5zM480 357.25v-317.5l-136 54.25v317.5z"></path>
</svg>
