<?xml version="1.0" encoding="utf-8"?>
<!-- Generated by IcoMoon.io -->
<!DOCTYPE svg PUBLIC "-//W3C//DTD SVG 1.1//EN" "http://www.w3.org/Graphics/SVG/1.1/DTD/svg11.dtd">
<svg version="1.1" xmlns="http://www.w3.org/2000/svg" xmlns:xlink="http://www.w3.org/1999/xlink" width="512" height="448" viewBox="0 0 512 448">
<g id="icomoon-ignore">
</g>
<path d="M512 96h-32v256h32v96h-96v-32h-320v32h-96v-96h32v-256h-32v-96h96v32h320v-32h96v96zM448 32v32h32v-32h-32zM32 32v32h32v-32h-32zM64 416v-32h-32v32h32zM416 384v-32h32v-256h-32v-32h-320v32h-32v256h32v32h320zM480 416v-32h-32v32h32zM320 160h96v192h-224v-64h-96v-192h224v64zM128 256h160v-128h-160v128zM384 320v-128h-64v96h-96v32h160z"></path>
</svg>
