<?xml version="1.0" encoding="utf-8"?>
<!-- Generated by IcoMoon.io -->
<!DOCTYPE svg PUBLIC "-//W3C//DTD SVG 1.1//EN" "http://www.w3.org/Graphics/SVG/1.1/DTD/svg11.dtd">
<svg version="1.1" xmlns="http://www.w3.org/2000/svg" xmlns:xlink="http://www.w3.org/1999/xlink" width="447" height="448" viewBox="0 0 447 448">
<g id="icomoon-ignore">
</g>
<path d="M403.75 0q17.5 0 30.625 11.625t13.125 29.125q0 15.75-11.25 37.75-83 157.25-116.25 188-24.25 22.75-54.5 22.75-31.5 0-54.125-23.125t-22.625-54.875q0-32 23-53l159.5-144.75q14.75-13.5 32.5-13.5zM176.5 258.5q9.75 19 26.625 32.5t37.625 19l0.25 17.75q1 53.25-32.375 86.75t-87.125 33.5q-30.75 0-54.5-11.625t-38.125-31.875-21.625-45.75-7.25-55q1.75 1.25 10.25 7.5t15.5 11.125 14.75 9.125 11.5 4.25q10.25 0 13.75-9.25 6.25-16.5 14.375-28.125t17.375-19 22-11.875 25.75-6.375 31.25-2.625z"></path>
</svg>
