<?xml version="1.0" encoding="utf-8"?>
<!-- Generated by IcoMoon.io -->
<!DOCTYPE svg PUBLIC "-//W3C//DTD SVG 1.1//EN" "http://www.w3.org/Graphics/SVG/1.1/DTD/svg11.dtd">
<svg version="1.1" xmlns="http://www.w3.org/2000/svg" xmlns:xlink="http://www.w3.org/1999/xlink" width="384" height="448" viewBox="0 0 384 448">
<g id="icomoon-ignore">
</g>
<path d="M101 277l38 38-13 13h-14v-24h-24v-14zM204.5 179.5q3.5 3.25-0.75 7.5l-72.75 72.75q-4.25 4.25-7.5 0.75-3.5-3.25 0.75-7.5l72.75-72.75q4.25-4.25 7.5-0.75zM136 352l136-136-72-72-136 136v72h72zM288 200l23-23q7-7 7-17t-7-17l-38-38q-7-7-17-7t-17 7l-23 23zM384 104v240q0 29.75-21.125 50.875t-50.875 21.125h-240q-29.75 0-50.875-21.125t-21.125-50.875v-240q0-29.75 21.125-50.875t50.875-21.125h240q29.75 0 50.875 21.125t21.125 50.875z"></path>
</svg>
