<?xml version="1.0" encoding="UTF-8" standalone="no"?>
<!-- Created with Inkscape (http://www.inkscape.org/) -->

<svg
   xmlns:dc="http://purl.org/dc/elements/1.1/"
   xmlns:cc="http://creativecommons.org/ns#"
   xmlns:rdf="http://www.w3.org/1999/02/22-rdf-syntax-ns#"
   xmlns:svg="http://www.w3.org/2000/svg"
   xmlns="http://www.w3.org/2000/svg"
   xmlns:sodipodi="http://sodipodi.sourceforge.net/DTD/sodipodi-0.dtd"
   xmlns:inkscape="http://www.inkscape.org/namespaces/inkscape"
   width="128"
   height="128"
   viewBox="0 0 128 128"
   id="svg2"
   version="1.1"
   inkscape:version="0.91 r13725"
   sodipodi:docname="GenomePerspective.svg">
  <defs
     id="defs4" />
  <sodipodi:namedview
     id="base"
     pagecolor="#ffffff"
     bordercolor="#666666"
     borderopacity="1.0"
     inkscape:pageopacity="0.0"
     inkscape:pageshadow="2"
     inkscape:zoom="3.959798"
     inkscape:cx="45.836517"
     inkscape:cy="70.993262"
     inkscape:document-units="px"
     inkscape:current-layer="layer1"
     showgrid="false"
     units="px"
     inkscape:window-width="966"
     inkscape:window-height="777"
     inkscape:window-x="939"
     inkscape:window-y="228"
     inkscape:window-maximized="0" />
  <metadata
     id="metadata7">
    <rdf:RDF>
      <cc:Work
         rdf:about="">
        <dc:format>image/svg+xml</dc:format>
        <dc:type
           rdf:resource="http://purl.org/dc/dcmitype/StillImage" />
        <dc:title></dc:title>
      </cc:Work>
    </rdf:RDF>
  </metadata>
  <g
     inkscape:label="Layer 1"
     inkscape:groupmode="layer"
     id="layer1"
     transform="translate(0,-924.3622)">
    <path
       style="fill:#000000;fill-opacity:1;fill-rule:evenodd;stroke:#000000;stroke-width:0.61994535px;stroke-linecap:butt;stroke-linejoin:miter;stroke-opacity:1"
       d="m 56.514591,949.85602 -42.949418,-17.33674 4.960825,-8.54164 -17.91615498,7.07036 5.26675088,18.89512 5.0930991,-10.80204 41.573168,16.91015 0.330775,83.10307 -10.930698,0 14.542171,12.5233 14.871358,-12.3321 -10.059492,-0.1043 -0.681053,-83.20404 55.923958,-16.73799 4.26479,9.53239 6.38439,-17.30415 -16.7818,-7.17696 3.97916,8.63915 z"
       id="path4195"
       inkscape:connector-curvature="0"
       sodipodi:nodetypes="ccccccccccccccccccc" />
    <g
       transform="matrix(0.90460093,-0.24556511,-0.05710701,1.1860058,-3.4744899,-25.022426)"
       style="font-style:normal;font-variant:normal;font-weight:bold;font-stretch:normal;font-size:83.35790253px;line-height:125%;font-family:'.Arial Hebrew Desk Interface';-inkscape-font-specification:'.Arial Hebrew Desk Interface Bold';letter-spacing:0px;word-spacing:0px;fill:#000000;fill-opacity:1;fill-rule:evenodd;stroke:none;stroke-width:1px;stroke-linecap:butt;stroke-linejoin:miter;stroke-opacity:1"
       id="text4224-0">
      <path
         d="m 191.49998,917.40852 q -5.8611,2.84915 -12.16992,4.27372 -6.30883,1.42457 -13.02468,1.42457 -15.18188,0 -24.05494,-8.46603 -8.87306,-8.50674 -8.87306,-23.03739 0,-14.69346 9.03587,-23.1188 9.03587,-8.42533 24.74688,-8.42533 6.06461,0 11.6001,1.13966 5.57618,1.13966 10.50114,3.37827 l 0,12.57695 q -5.08776,-2.88985 -10.13483,-4.31442 -5.00635,-1.42457 -10.05341,-1.42457 -9.36149,0 -14.44925,5.25057 -5.04706,5.20987 -5.04706,14.93767 0,9.6464 4.88425,14.89697 4.88425,5.25057 13.87942,5.25057 2.44212,0 4.51793,-0.28492 2.11651,-0.32561 3.7853,-0.97685 l 0,-11.80361 -9.565,0 0,-10.50114 24.42126,0 0,29.22411 z"
         id="path3492"
         inkscape:connector-curvature="0" />
    </g>
  </g>
</svg>
