<?xml version="1.0" encoding="UTF-8" standalone="no"?>
<!-- Created with Inkscape (http://www.inkscape.org/) -->

<svg
   xmlns:dc="http://purl.org/dc/elements/1.1/"
   xmlns:cc="http://creativecommons.org/ns#"
   xmlns:rdf="http://www.w3.org/1999/02/22-rdf-syntax-ns#"
   xmlns:svg="http://www.w3.org/2000/svg"
   xmlns="http://www.w3.org/2000/svg"
   xmlns:sodipodi="http://sodipodi.sourceforge.net/DTD/sodipodi-0.dtd"
   xmlns:inkscape="http://www.inkscape.org/namespaces/inkscape"
   width="128"
   height="128"
   viewBox="0 0 128 128"
   id="svg2"
   version="1.1"
   inkscape:version="0.91 r13725"
   sodipodi:docname="perspective-GenomeGroup.svg">
  <defs
     id="defs4" />
  <sodipodi:namedview
     id="base"
     pagecolor="#ffffff"
     bordercolor="#666666"
     borderopacity="1.0"
     inkscape:pageopacity="0.0"
     inkscape:pageshadow="2"
     inkscape:zoom="3.959798"
     inkscape:cx="45.583979"
     inkscape:cy="80.631374"
     inkscape:document-units="px"
     inkscape:current-layer="layer1"
     showgrid="false"
     units="px"
     inkscape:window-width="1318"
     inkscape:window-height="952"
     inkscape:window-x="1009"
     inkscape:window-y="293"
     inkscape:window-maximized="0" />
  <metadata
     id="metadata7">
    <rdf:RDF>
      <cc:Work
         rdf:about="">
        <dc:format>image/svg+xml</dc:format>
        <dc:type
           rdf:resource="http://purl.org/dc/dcmitype/StillImage" />
        <dc:title></dc:title>
      </cc:Work>
    </rdf:RDF>
  </metadata>
  <g
     inkscape:label="Layer 1"
     inkscape:groupmode="layer"
     id="layer1"
     transform="translate(0,-924.3622)">
    <path
       style="fill:#000000;fill-opacity:1;fill-rule:evenodd;stroke:#000000;stroke-width:0.61994535px;stroke-linecap:butt;stroke-linejoin:miter;stroke-opacity:1"
       d="m 56.262053,951.11871 -42.949418,-17.33674 4.960825,-8.54164 -17.91615511,7.07036 5.26675091,18.89512 5.0930992,-10.80204 41.573168,16.91015 0.330775,83.10308 -10.930698,0 14.542171,12.5233 14.871358,-12.3321 -10.059492,-0.1043 -0.681053,-83.20405 55.923956,-16.73799 4.26479,9.53239 6.38439,-17.30415 -16.7818,-7.17696 3.97916,8.63915 z"
       id="path4195"
       inkscape:connector-curvature="0"
       sodipodi:nodetypes="ccccccccccccccccccc" />
    <text
       xml:space="preserve"
       style="font-style:normal;font-weight:bold;font-size:80px;line-height:125%;font-family:'.Arial Hebrew Desk Interface';letter-spacing:0px;word-spacing:0px;fill:#000000;fill-opacity:1;stroke:none;stroke-width:1px;stroke-linecap:butt;stroke-linejoin:miter;stroke-opacity:1;-inkscape-font-specification:'.Arial Hebrew Desk Interface Bold';font-stretch:normal;font-variant:normal;"
       x="72.73098"
       y="969.52966"
       id="text4576"
       sodipodi:linespacing="125%"><tspan
         sodipodi:role="line"
         id="tspan4578"
         x="72.73098"
         y="969.52966" /></text>
    <g
       id="g4232"
       transform="matrix(0.96302756,-0.24773307,0.21270227,1.1068179,-204.08352,-85.904332)">
      <path
         id="rect4156"
         d="m 66.670067,960.69086 13.889597,0 0,12.12183 -13.889597,0 z"
         style="fill:#000000;fill-opacity:1;stroke:none;stroke-opacity:1"
         inkscape:connector-curvature="0" />
      <path
         id="rect4201"
         d="m 85.105354,960.69086 13.889597,0 0,12.12183 -13.889597,0 z"
         style="fill:#000000;fill-opacity:1;stroke:none;stroke-opacity:1"
         inkscape:connector-curvature="0" />
      <path
         id="rect4203"
         d="m 102.53049,960.69086 13.88959,0 0,12.12183 -13.88959,0 z"
         style="fill:#000000;fill-opacity:1;stroke:none;stroke-opacity:1"
         inkscape:connector-curvature="0" />
      <g
         id="text4213"
         style="font-style:normal;font-weight:normal;font-size:40px;line-height:125%;font-family:sans-serif;letter-spacing:0px;word-spacing:0px;fill:#000000;fill-opacity:1;stroke:none;stroke-width:1px;stroke-linecap:butt;stroke-linejoin:miter;stroke-opacity:1">
        <path
           id="path4227"
           style="font-style:normal;font-variant:normal;font-weight:bold;font-stretch:normal;font-family:sans-serif;-inkscape-font-specification:'sans-serif Bold'"
           d="m 104.88663,1003.7271 q -2.8125,1.3672 -5.839839,2.0508 -3.027344,0.6836 -6.25,0.6836 -7.285156,0 -11.542969,-4.0625 -4.257812,-4.08204 -4.257812,-11.0547 0,-7.05078 4.335937,-11.09375 4.335938,-4.04297 11.875,-4.04297 2.910157,0 5.566407,0.54688 2.675776,0.54687 5.039066,1.62109 l 0,6.03516 q -2.44141,-1.38672 -4.863285,-2.07032 -2.402344,-0.68359 -4.824219,-0.68359 -4.492187,0 -6.933594,2.51953 -2.421875,2.5 -2.421875,7.16797 0,4.62891 2.34375,7.14844 2.34375,2.51956 6.660157,2.51956 1.171875,0 2.167968,-0.1368 1.015625,-0.1562 1.816407,-0.4687 l 0,-5.66406 -4.589844,0 0,-5.03907 11.718745,0 0,14.02343 z"
           inkscape:connector-curvature="0" />
      </g>
      <path
         id="rect4217"
         d="m 66.417526,1014.734 13.889597,0 0,12.1218 -13.889597,0 z"
         style="fill:#000000;fill-opacity:1;stroke:none;stroke-opacity:1"
         inkscape:connector-curvature="0" />
      <path
         id="rect4219"
         d="m 84.852814,1014.734 13.889597,0 0,12.1218 -13.889597,0 z"
         style="fill:#000000;fill-opacity:1;stroke:none;stroke-opacity:1"
         inkscape:connector-curvature="0" />
      <path
         id="rect4221"
         d="m 102.27795,1014.734 13.88959,0 0,12.1218 -13.88959,0 z"
         style="fill:#000000;fill-opacity:1;stroke:none;stroke-opacity:1"
         inkscape:connector-curvature="0" />
    </g>
  </g>
</svg>
