<?xml version="1.0" encoding="utf-8"?>
<!-- Generated by IcoMoon.io -->
<!DOCTYPE svg PUBLIC "-//W3C//DTD SVG 1.1//EN" "http://www.w3.org/Graphics/SVG/1.1/DTD/svg11.dtd">
<svg version="1.1" xmlns="http://www.w3.org/2000/svg" xmlns:xlink="http://www.w3.org/1999/xlink" width="384" height="448" viewBox="0 0 384 448">
<g id="icomoon-ignore">
</g>
<path d="M304 240v-32q0-6.5-4.75-11.25t-11.25-4.75h-64v-64q0-6.5-4.75-11.25t-11.25-4.75h-32q-6.5 0-11.25 4.75t-4.75 11.25v64h-64q-6.5 0-11.25 4.75t-4.75 11.25v32q0 6.5 4.75 11.25t11.25 4.75h64v64q0 6.5 4.75 11.25t11.25 4.75h32q6.5 0 11.25-4.75t4.75-11.25v-64h64q6.5 0 11.25-4.75t4.75-11.25zM384 224q0 52.25-25.75 96.375t-69.875 69.875-96.375 25.75-96.375-25.75-69.875-69.875-25.75-96.375 25.75-96.375 69.875-69.875 96.375-25.75 96.375 25.75 69.875 69.875 25.75 96.375z"></path>
</svg>
