<?xml version="1.0" encoding="utf-8"?>
<!-- Generated by IcoMoon.io -->
<!DOCTYPE svg PUBLIC "-//W3C//DTD SVG 1.1//EN" "http://www.w3.org/Graphics/SVG/1.1/DTD/svg11.dtd">
<svg version="1.1" xmlns="http://www.w3.org/2000/svg" xmlns:xlink="http://www.w3.org/1999/xlink" width="416" height="448" viewBox="0 0 416 448">
<g id="icomoon-ignore">
</g>
<path d="M96 384h224v-64h-224v64zM96 224h224v-96h-40q-10 0-17-7t-7-17v-40h-160v160zM384 240q0-6.5-4.75-11.25t-11.25-4.75-11.25 4.75-4.75 11.25 4.75 11.25 11.25 4.75 11.25-4.75 4.75-11.25zM416 240v104q0 3.25-2.375 5.625t-5.625 2.375h-56v40q0 10-7 17t-17 7h-240q-10 0-17-7t-7-17v-40h-56q-3.25 0-5.625-2.375t-2.375-5.625v-104q0-19.75 14.125-33.875t33.875-14.125h16v-136q0-10 7-17t17-7h168q10 0 22 5t19 12l38 38q7 7 12 19t5 22v64h16q19.75 0 33.875 14.125t14.125 33.875z"></path>
</svg>
