<?xml version="1.0" encoding="utf-8"?>
<!-- Generated by IcoMoon.io -->
<!DOCTYPE svg PUBLIC "-//W3C//DTD SVG 1.1//EN" "http://www.w3.org/Graphics/SVG/1.1/DTD/svg11.dtd">
<svg version="1.1" xmlns="http://www.w3.org/2000/svg" xmlns:xlink="http://www.w3.org/1999/xlink" width="384" height="448" viewBox="0 0 384 448">
<g id="icomoon-ignore">
</g>
<path d="M220 300v40q0 3.5-2.25 5.75t-5.75 2.25h-40q-3.5 0-5.75-2.25t-2.25-5.75v-40q0-3.5 2.25-5.75t5.75-2.25h40q3.5 0 5.75 2.25t2.25 5.75zM284 176q0 12.5-3.75 22.5t-11.375 17.25-13 11-14.875 9q-8 4.5-11.625 7t-6.5 6-2.875 7.25v8q0 3.5-2.25 5.75t-5.75 2.25h-40q-3.5 0-5.75-2.25t-2.25-5.75v-17q0-8.75 2.625-16.125t6-11.875 9.75-8.875 10.25-6.375 11.125-5.25q13.25-6.25 18.75-10.75t5.5-12.25q0-10.5-10.875-17.875t-23.875-7.375q-14 0-23.75 6.75-7.25 5-20 20.75-2.25 3-6.25 3-2.75 0-4.75-1.5l-27-20.5q-2.5-1.75-3-5t1.25-5.75q30.5-48 87.25-48 32.25 0 59.625 22.375t27.375 53.625zM192 64q-32.5 0-62.125 12.75t-51 34.125-34.125 51-12.75 62.125 12.75 62.125 34.125 51 51 34.125 62.125 12.75 62.125-12.75 51-34.125 34.125-51 12.75-62.125-12.75-62.125-34.125-51-51-34.125-62.125-12.75zM384 224q0 52.25-25.75 96.375t-69.875 69.875-96.375 25.75-96.375-25.75-69.875-69.875-25.75-96.375 25.75-96.375 69.875-69.875 96.375-25.75 96.375 25.75 69.875 69.875 25.75 96.375z"></path>
</svg>
