<?xml version="1.0" encoding="utf-8"?>
<!-- Generated by IcoMoon.io -->
<!DOCTYPE svg PUBLIC "-//W3C//DTD SVG 1.1//EN" "http://www.w3.org/Graphics/SVG/1.1/DTD/svg11.dtd">
<svg version="1.1" xmlns="http://www.w3.org/2000/svg" xmlns:xlink="http://www.w3.org/1999/xlink" width="448" height="448" viewBox="0 0 448 448">
<g id="icomoon-ignore">
</g>
<path d="M166.5 120.25q-15 23-34.25 68.25-5.5-11.25-9.25-18.125t-10.125-15.875-12.75-14.125-15.75-8.75-20.375-3.625h-56q-3.5 0-5.75-2.25t-2.25-5.75v-48q0-3.5 2.25-5.75t5.75-2.25h56q62.5 0 102.5 56.25zM448 320q0 3.5-2.25 5.75l-80 80q-2.25 2.25-5.75 2.25-3.25 0-5.625-2.375t-2.375-5.625v-48q-8 0-21.25 0.125t-20.25 0.25-18.25-0.25-17.75-1.25-16-2.625-15.75-4.625-14.5-7.125-14.75-10-13.75-13.375-14-17.375q14.75-23.25 34-68.25 5.5 11.25 9.25 18.125t10.125 15.875 12.75 14.125 15.75 8.75 20.375 3.625h64v-48q0-3.5 2.25-5.75t5.75-2.25q3 0 6 2.5l79.75 79.75q2.25 2.25 2.25 5.75zM448 96q0 3.5-2.25 5.75l-80 80q-2.25 2.25-5.75 2.25-3.25 0-5.625-2.375t-2.375-5.625v-48h-64q-12 0-21.75 3.75t-17.25 11.25-12.75 15.375-11.25 19.375q-8 15.5-19.5 42.75-7.25 16.5-12.375 27.75t-13.5 26.25-16 25-18.5 20.75-22.5 17.125-26.625 10.5-32 4.125h-56q-3.5 0-5.75-2.25t-2.25-5.75v-48q0-3.5 2.25-5.75t5.75-2.25h56q12 0 21.75-3.75t17.25-11.25 12.75-15.375 11.25-19.375q8-15.5 19.5-42.75 7.25-16.5 12.375-27.75t13.5-26.25 16-25 18.5-20.75 22.5-17.125 26.625-10.5 32-4.125h64v-48q0-3.5 2.25-5.75t5.75-2.25q3 0 6 2.5l79.75 79.75q2.25 2.25 2.25 5.75z"></path>
</svg>
