<?xml version="1.0" encoding="utf-8"?>
<!-- Generated by IcoMoon.io -->
<!DOCTYPE svg PUBLIC "-//W3C//DTD SVG 1.1//EN" "http://www.w3.org/Graphics/SVG/1.1/DTD/svg11.dtd">
<svg version="1.1" xmlns="http://www.w3.org/2000/svg" xmlns:xlink="http://www.w3.org/1999/xlink" width="384" height="448" viewBox="0 0 384 448">
<g id="icomoon-ignore">
</g>
<path d="M384 64v112q0 6.5-4.75 11.25t-11.25 4.75h-112q-10.5 0-14.75-10-4.25-9.75 3.5-17.25l34.5-34.5q-37-34.25-87.25-34.25-26 0-49.625 10.125t-40.875 27.375-27.375 40.875-10.125 49.625 10.125 49.625 27.375 40.875 40.875 27.375 49.625 10.125q29.75 0 56.25-13t44.75-36.75q1.75-2.5 5.75-3 3.5 0 6.25 2.25l34.25 34.5q2.25 2 2.375 5.125t-1.875 5.625q-27.25 33-66 51.125t-81.75 18.125q-39 0-74.5-15.25t-61.25-41-41-61.25-15.25-74.5 15.25-74.5 41-61.25 61.25-41 74.5-15.25q36.75 0 71.125 13.875t61.125 39.125l32.5-32.25q7.25-7.75 17.5-3.5 9.75 4.25 9.75 14.75z"></path>
</svg>
