<?xml version="1.0" encoding="UTF-8" standalone="no"?>
<svg
   xmlns:dc="http://purl.org/dc/elements/1.1/"
   xmlns:cc="http://creativecommons.org/ns#"
   xmlns:rdf="http://www.w3.org/1999/02/22-rdf-syntax-ns#"
   xmlns:svg="http://www.w3.org/2000/svg"
   xmlns="http://www.w3.org/2000/svg"
   xmlns:sodipodi="http://sodipodi.sourceforge.net/DTD/sodipodi-0.dtd"
   xmlns:inkscape="http://www.inkscape.org/namespaces/inkscape"
   version="1.1"
   width="384"
   height="448"
   viewBox="0 0 384 448"
   id="svg5"
   sodipodi:docname="rock.svg"
   inkscape:version="1.0.2 (e86c870879, 2021-01-15)">
  <metadata
     id="metadata11">
    <rdf:RDF>
      <cc:Work
         rdf:about="">
        <dc:format>image/svg+xml</dc:format>
        <dc:type
           rdf:resource="http://purl.org/dc/dcmitype/StillImage" />
        <dc:title></dc:title>
      </cc:Work>
    </rdf:RDF>
  </metadata>
  <defs
     id="defs9" />
  <sodipodi:namedview
     pagecolor="#ffffff"
     bordercolor="#666666"
     borderopacity="1"
     objecttolerance="10"
     gridtolerance="10"
     guidetolerance="10"
     inkscape:pageopacity="0"
     inkscape:pageshadow="2"
     inkscape:window-width="1522"
     inkscape:window-height="935"
     id="namedview7"
     showgrid="false"
     inkscape:zoom="1.9040179"
     inkscape:cx="192"
     inkscape:cy="224"
     inkscape:window-x="126"
     inkscape:window-y="66"
     inkscape:window-maximized="0"
     inkscape:current-layer="svg5" />
  <g
     id="icomoon-ignore" />
  <path
     d="M 352,416 H 240 q -6.5,0 -11.25,-4.75 Q 224,406.5 224,400 V 288 q 0,-10.5 10,-14.75 9.75,-4.25 17.25,3.5 l 34.5,34.5 Q 320,274.25 320,224 320,198 309.875,174.375 299.75,150.75 282.5,133.5 265.25,116.25 241.625,106.125 218,96 192,96 166,96 142.375,106.125 118.75,116.25 101.5,133.5 84.25,150.75 74.125,174.375 64,198 64,224 q 0,29.75 13,56.25 13,26.5 36.75,44.75 2.5,1.75 3,5.75 0,3.5 -2.25,6.25 L 80,371.25 q -2,2.25 -5.125,2.375 -3.125,0.125 -5.625,-1.875 -33,-27.25 -51.125,-66 Q 0,267 0,224 0,185 15.25,149.5 30.5,114 56.25,88.25 82,62.5 117.5,47.25 153,32 192,32 q 39,0 74.5,15.25 35.5,15.25 61.25,41 25.75,25.75 41,61.25 Q 384,185 384,224 384,260.75 370.125,295.125 356.25,329.5 331,356.25 l 32.25,32.5 q 7.75,7.25 3.5,17.5 Q 362.5,416 352,416 Z"
     id="path3" />
  <g
     inkscape:groupmode="layer"
     id="layer1"
     inkscape:label="Layer 1" />
  <path
     d="m 32,416 h 112 q 6.5,0 11.25,-4.75 Q 160,406.5 160,400 V 288 q 0,-10.5 -10,-14.75 -9.75,-4.25 -17.25,3.5 l -34.5,34.5 Q 64,274.25 64,224 64,198 74.125,174.375 84.25,150.75 101.5,133.5 118.75,116.25 142.375,106.125 166,96 192,96 q 26,0 49.625,10.125 23.625,10.125 40.875,27.375 17.25,17.25 27.375,40.875 Q 320,198 320,224 q 0,29.75 -13,56.25 -13,26.5 -36.75,44.75 -2.5,1.75 -3,5.75 0,3.5 2.25,6.25 l 34.5,34.25 q 2,2.25 5.125,2.375 3.125,0.125 5.625,-1.875 33,-27.25 51.125,-66 Q 384,267 384,224 384,185 368.75,149.5 353.5,114 327.75,88.25 302,62.5 266.5,47.25 231,32 192,32 153,32 117.5,47.25 82,62.5 56.25,88.25 30.5,114 15.25,149.5 0,185 0,224 0,260.75 13.875,295.125 27.75,329.5 53,356.25 l -32.25,32.5 Q 13,396 17.25,406.25 21.5,416 32,416 Z"
     id="path3-3" />
</svg>
