<?xml version="1.0" encoding="utf-8"?>
<!-- Generated by IcoMoon.io -->
<!DOCTYPE svg PUBLIC "-//W3C//DTD SVG 1.1//EN" "http://www.w3.org/Graphics/SVG/1.1/DTD/svg11.dtd">
<svg version="1.1" xmlns="http://www.w3.org/2000/svg" xmlns:xlink="http://www.w3.org/1999/xlink" width="384" height="448" viewBox="0 0 384 448">
<g id="icomoon-ignore">
</g>
<path d="M384 224q0 39-15.25 74.5t-41 61.25-61.25 41-74.5 15.25q-43 0-81.75-18.125t-66-51.125q-1.75-2.5-1.625-5.625t2.125-5.125l34.25-34.5q2.5-2.25 6.25-2.25 4 0.5 5.75 3 18.25 23.75 44.75 36.75t56.25 13q26 0 49.625-10.125t40.875-27.375 27.375-40.875 10.125-49.625-10.125-49.625-27.375-40.875-40.875-27.375-49.625-10.125q-24.5 0-47 8.875t-40 25.375l34.25 34.5q7.75 7.5 3.5 17.25-4.25 10-14.75 10h-112q-6.5 0-11.25-4.75t-4.75-11.25v-112q0-10.5 10-14.75 9.75-4.25 17.25 3.5l32.5 32.25q26.75-25.25 61.125-39.125t71.125-13.875q39 0 74.5 15.25t61.25 41 41 61.25 15.25 74.5z"></path>
</svg>
