<!-- Generated by IcoMoon.io -->
<svg version="1.1" xmlns="http://www.w3.org/2000/svg" width="416" height="448" viewBox="0 0 416 448">
<title></title>
<g id="icomoon-ignore">
</g>
<path d="M288 208q0-46.25-32.875-79.125t-79.125-32.875-79.125 32.875-32.875 79.125 32.875 79.125 79.125 32.875 79.125-32.875 32.875-79.125zM416 416q0 13-9.5 22.5t-22.5 9.5q-13.5 0-22.5-9.5l-85.75-85.5q-44.75 31-99.75 31-35.75 0-68.375-13.875t-56.25-37.5-37.5-56.25-13.875-68.375 13.875-68.375 37.5-56.25 56.25-37.5 68.375-13.875 68.375 13.875 56.25 37.5 37.5 56.25 13.875 68.375q0 55-31 99.75l85.75 85.75q9.25 9.25 9.25 22.5z"></path>
</svg>
