<?xml version="1.0" encoding="utf-8"?>
<!-- Generated by IcoMoon.io -->
<!DOCTYPE svg PUBLIC "-//W3C//DTD SVG 1.1//EN" "http://www.w3.org/Graphics/SVG/1.1/DTD/svg11.dtd">
<svg version="1.1" xmlns="http://www.w3.org/2000/svg" xmlns:xlink="http://www.w3.org/1999/xlink" width="416" height="448" viewBox="0 0 416 448">
<g id="icomoon-ignore">
</g>
<path d="M256 200v16q0 3.25-2.375 5.625t-5.625 2.375h-56v56q0 3.25-2.375 5.625t-5.625 2.375h-16q-3.25 0-5.625-2.375t-2.375-5.625v-56h-56q-3.25 0-5.625-2.375t-2.375-5.625v-16q0-3.25 2.375-5.625t5.625-2.375h56v-56q0-3.25 2.375-5.625t5.625-2.375h16q3.25 0 5.625 2.375t2.375 5.625v56h56q3.25 0 5.625 2.375t2.375 5.625zM288 208q0-46.25-32.875-79.125t-79.125-32.875-79.125 32.875-32.875 79.125 32.875 79.125 79.125 32.875 79.125-32.875 32.875-79.125zM416 416q0 13.25-9.375 22.625t-22.625 9.375q-13.5 0-22.5-9.5l-85.75-85.5q-44.75 31-99.75 31-35.75 0-68.375-13.875t-56.25-37.5-37.5-56.25-13.875-68.375 13.875-68.375 37.5-56.25 56.25-37.5 68.375-13.875 68.375 13.875 56.25 37.5 37.5 56.25 13.875 68.375q0 55-31 99.75l85.75 85.75q9.25 9.25 9.25 22.5z"></path>
</svg>
