<svg xmlns="http://www.w3.org/2000/svg" viewBox="0 0 72 69"><defs><style>.cls-1{fill:#231f20;}</style></defs><title>selection-Genome</title><g id="Square_Base" data-name="Square Base"><polygon class="cls-1" points="4.5 4.5 4.5 18 0 18 0 0 18 0 18 4.5 4.5 4.5"/><polygon class="cls-1" points="67.5 4.5 67.5 18 72 18 72 0 54 0 54 4.5 67.5 4.5"/><polygon class="cls-1" points="67.5 64.5 67.5 51 72 51 72 69 54 69 54 64.5 67.5 64.5"/><polygon class="cls-1" points="4.5 64.5 4.5 51 0 51 0 69 18 69 18 64.5 4.5 64.5"/></g><g id="Genome"><path class="cls-1" d="M50.83,57.68V47H75.44v22a50.42,50.42,0,0,1-12.5,6.56,42.42,42.42,0,0,1-12.88,1.74q-9.18,0-15-3.13a21.41,21.41,0,0,1-9-9.32A30.62,30.62,0,0,1,23,50.58,29.65,29.65,0,0,1,26.43,35.9a22.54,22.54,0,0,1,10.19-9.47q5.24-2.5,14.1-2.5,8.54,0,12.78,1.55a16.6,16.6,0,0,1,7,4.8,21.32,21.32,0,0,1,4.2,8.24L59.37,41.26a8.32,8.32,0,0,0-3.22-4.46,10,10,0,0,0-5.78-1.55A10.43,10.43,0,0,0,42,38.89q-3.11,3.64-3.11,11.51,0,8.37,3.15,12t8.77,3.59a16.68,16.68,0,0,0,5.1-.77,27.54,27.54,0,0,0,5.55-2.64V57.68Z" transform="translate(-14 -15.5)"/></g></svg>