<svg xmlns="http://www.w3.org/2000/svg" viewBox="0 0 72 69"><title>selection-Sequence</title><g id="Square_Base" data-name="Square Base"><polygon points="4.5 4.5 4.5 18 0 18 0 0 18 0 18 4.5 4.5 4.5" style="fill:#231f20"/><polygon points="67.5 4.5 67.5 18 72 18 72 0 54 0 54 4.5 67.5 4.5" style="fill:#231f20"/><polygon points="67.5 64.5 67.5 51 72 51 72 69 54 69 54 64.5 67.5 64.5" style="fill:#231f20"/><polygon points="4.5 64.5 4.5 51 0 51 0 69 18 69 18 64.5 4.5 64.5" style="fill:#231f20"/></g><g id="Layer_15" data-name="Layer 15"><path d="M25.5,58.45l15.15-.95a11.56,11.56,0,0,0,2,5.63,8.42,8.42,0,0,0,7,3.13,7.78,7.78,0,0,0,5.26-1.6,4.79,4.79,0,0,0,1.85-3.71A4.73,4.73,0,0,0,55,57.36q-1.76-1.58-8.16-3Q36.39,52,31.93,48.11a12.58,12.58,0,0,1-4.5-9.95,13.51,13.51,0,0,1,2.3-7.51,15.27,15.27,0,0,1,6.93-5.55q4.62-2,12.67-2,9.88,0,15.06,3.67t6.17,11.69l-15,.88A8.07,8.07,0,0,0,53,34.26a8.07,8.07,0,0,0-5.29-1.58,6.38,6.38,0,0,0-4.18,1.18,3.61,3.61,0,0,0-1.41,2.87,2.87,2.87,0,0,0,1.16,2.21q1.13,1,5.34,1.9,10.44,2.25,15,4.55A15.73,15.73,0,0,1,70.2,51.1a14.48,14.48,0,0,1,2.06,7.63,16.34,16.34,0,0,1-2.74,9.14,17.15,17.15,0,0,1-7.66,6.35,31,31,0,0,1-12.41,2.16q-13.15,0-18.21-5.06A20,20,0,0,1,25.5,58.45Z" transform="translate(-14 -15.5)" style="fill:#231f20"/></g></svg>