<svg xmlns="http://www.w3.org/2000/svg" viewBox="0 0 72 69"><defs><style>.cls-1{fill:#231f20;}.cls-2{fill:#010101;}</style></defs><title>selection-Genome-Alt</title><g id="Square_Base" data-name="Square Base"><polygon class="cls-1" points="4.5 4.5 4.5 18 0 18 0 0 18 0 18 4.5 4.5 4.5"/><polygon class="cls-1" points="67.5 4.5 67.5 18 72 18 72 0 54 0 54 4.5 67.5 4.5"/><polygon class="cls-1" points="67.5 64.5 67.5 51 72 51 72 69 54 69 54 64.5 67.5 64.5"/><polygon class="cls-1" points="4.5 64.5 4.5 51 0 51 0 69 18 69 18 64.5 4.5 64.5"/></g><g id="Genome-Alt"><path class="cls-2" d="M50,25.26l1.19,0,.14-2.4.7,0-.17,2.39,2.82.38.48-2.35c.69.13,1.37.29,2,.47l-.57,2.3,1.18.37.77-2.25.78.27-.8,2.24,1.56.62,1-2.16a26.87,26.87,0,0,1,4,2.19l-1.34,2,1.4,1,1.54-1.8c.57.44,1.12.91,1.66,1.4l-1.58,1.82.79.74,1.69-1.71.41.42-1.63,1.7.45.46,1.71-1.6a27.45,27.45,0,0,1,4.22,6.16l-2.11,1,1.39,3.28,2.21-.69c.08.23.15.47.22.7l-2.23.66.18.73L76.24,43c.06.21.12.42.17.63l-2.25.57.19.95,2.29-.45c.11.52.2,1.05.27,1.58l-2.32.36.17,1.3,2.32-.19c0,.43.05.87.07,1.31l-2.41.13,0,.84h2.69A27.49,27.49,0,0,0,50,22.57h0" transform="translate(-14 -15.5)"/><path class="cls-2" d="M74.76,50.05l0,1.19,2.39.14c0,.24,0,.47,0,.7l-2.39-.17-.38,2.82,2.35.48c-.13.69-.29,1.37-.47,2l-2.3-.58-.37,1.18,2.25.77c-.08.26-.18.52-.27.78l-2.24-.8-.62,1.57,2.16,1a27,27,0,0,1-2.19,4l-2-1.34-1,1.4,1.8,1.53c-.45.58-.91,1.13-1.4,1.66l-1.82-1.58-.74.8,1.71,1.68-.43.41L67.09,68l-.46.44,1.6,1.71a27.41,27.41,0,0,1-6.16,4.22l-1-2.11-3.28,1.39.68,2.21-.7.22-.66-2.23-.73.18L57,76.33l-.63.16-.57-2.24-.95.19.45,2.29c-.53.1-1.05.2-1.58.27l-.36-2.32-1.3.16.19,2.32q-.65.05-1.31.08L50.8,75,50,75v2.56A27.49,27.49,0,0,0,77.44,50h0" transform="translate(-14 -15.5)"/><path class="cls-2" d="M50.08,74.85l-1.2,0-.14,2.4-.71,0,.18-2.39-2.81-.38-.49,2.35c-.68-.13-1.36-.29-2-.47l.58-2.3-1.18-.37-.78,2.25-.78-.27.79-2.24L40,72.74,39,74.9a26.88,26.88,0,0,1-4-2.2l1.33-2-1.4-1-1.53,1.8q-.86-.66-1.67-1.4l1.59-1.82-.8-.74-1.68,1.71-.41-.42,1.62-1.7-.45-.46-1.71,1.6a27.28,27.28,0,0,1-4.22-6.16l2.11-1-1.39-3.27-2.21.69c-.08-.23-.16-.47-.22-.7l2.23-.66-.18-.73-2.27.63c-.05-.21-.11-.42-.16-.63l2.24-.57-.19-1-2.29.46c-.1-.53-.19-1.05-.27-1.59l2.32-.36-.16-1.3L23,52.34c0-.43-.06-.87-.08-1.31l2.42-.13,0-.84H22.59A27.49,27.49,0,0,0,50.08,77.54h0" transform="translate(-14 -15.5)"/><path class="cls-2" d="M25.28,50.06l0-1.2-2.4-.14c0-.24,0-.47,0-.71l2.39.17.38-2.82-2.35-.48c.13-.69.29-1.37.47-2l2.29.58.37-1.18-2.25-.77c.09-.26.18-.52.27-.78l2.24.8.62-1.56-2.17-1a27.48,27.48,0,0,1,2.2-4l2,1.33,1-1.4-1.8-1.53c.44-.57.91-1.13,1.4-1.66l1.82,1.59.74-.8-1.71-1.68.42-.42,1.7,1.63.46-.44-1.59-1.71A27.1,27.1,0,0,1,38,25.7l1,2.17,3.28-1.38-.72-2.28.71-.22.66,2.33.73-.18L43,23.77l.64-.16.58,2.32,1-.19-.47-2.36c.52-.1,1-.2,1.58-.27l.36,2.39,1.3-.17-.19-2.39c.43,0,.87-.06,1.31-.08l.13,2.42.84,0V22.57A27.49,27.49,0,0,0,22.59,50.06h0" transform="translate(-14 -15.5)"/><path class="cls-2" d="M69.29,30.61l.91,1,2-1.76.52.59-2,1.72,1.9,2.49,2.21-1.46c.43.64.84,1.29,1.22,2l-2.24,1.34.63,1.21,2.36-1.15c.14.27.27.54.4.82l-2.38,1.12.74,1.7L78,39.21A30.24,30.24,0,0,1,79.35,44l-2.58.5.33,1.84,2.6-.21c.1.79.18,1.59.21,2.39l-2.66.19,0,1.2,2.64,0c0,.22,0,.43,0,.65l-2.6.05v.71l2.58.09a30.09,30.09,0,0,1-1.52,8.09L76,58.65l-1.47,3.63,2.26,1.19c-.12.24-.25.48-.38.72L74.11,63l-.43.71L75.94,65l-.37.62-2.19-1.31-.59.88,2.14,1.43c-.33.49-.66,1-1,1.45L71.8,66.5l-.89,1.14,2,1.66c-.31.37-.63.73-1,1.08l-2-1.78-.64.68,2.1,2.1a30.33,30.33,0,0,0,0-42.87h0" transform="translate(-14 -15.5)"/><path class="cls-2" d="M69.29,69.28l-1,.91,1.77,2-.59.52-1.72-2-2.49,1.9,1.46,2.21c-.64.43-1.29.84-2,1.22l-1.34-2.24-1.2.63,1.15,2.36-.82.39-1.13-2.37-1.7.74L60.7,78a29.85,29.85,0,0,1-4.81,1.39l-.5-2.58-1.84.33.21,2.6c-.79.1-1.59.17-2.39.2l-.19-2.65-1.2,0v2.64h-.65l-.06-2.6h-.7L48.5,79.9a30.18,30.18,0,0,1-8.09-1.51l.85-2.44-3.63-1.47-1.19,2.26-.72-.37,1.22-2.25-.71-.43L35,75.93l-.62-.36,1.31-2.2-.89-.59-1.43,2.14q-.74-.49-1.45-1L33.4,71.8l-1.14-.89-1.66,2c-.36-.31-.73-.63-1.08-1L31.2,70l-.68-.64-2,2a30.31,30.31,0,0,0,42.87,0h0" transform="translate(-14 -15.5)"/><path class="cls-2" d="M30.71,69.38l-.91-.95-2,1.76c-.18-.19-.35-.39-.52-.58l2-1.73L27.4,65.39l-2.21,1.46c-.43-.64-.83-1.29-1.22-2l2.24-1.34-.64-1.21L23.23,63.5c-.14-.27-.27-.54-.39-.82l2.37-1.12-.74-1.71L22,60.79A29.87,29.87,0,0,1,20.65,56l2.58-.5-.33-1.84-2.6.21c-.1-.79-.17-1.59-.21-2.39l2.66-.18,0-1.2-2.64,0c0-.22,0-.44,0-.65l2.6-.06v-.71l-2.58-.09a30.16,30.16,0,0,1,1.52-8.09l2.44.85,1.47-3.64-2.26-1.18.37-.72L25.89,37l.43-.71L24.06,35l.37-.62,2.19,1.31.59-.89-2.13-1.43c.32-.49.67-1,1-1.44L28.2,33.5l.88-1.15-2-1.66c.31-.37.63-.73,1-1.08l2,1.78.64-.68-2.1-2.1a30.32,30.32,0,0,0,0,42.87h0" transform="translate(-14 -15.5)"/><path class="cls-2" d="M30.7,30.71l1-.91-1.77-2,.59-.52,1.73,2,2.49-1.9-1.46-2.21q1-.65,2-1.21l1.34,2.24,1.2-.63L36.6,23.23l.82-.4,1.12,2.37,1.71-.74L39.3,22a30.5,30.5,0,0,1,4.81-1.39l.5,2.58,1.84-.33-.21-2.6c.79-.1,1.59-.17,2.38-.21l.18,2.66,1.2,0,0-2.64h.65l.05,2.59h.71l.08-2.58a30.06,30.06,0,0,1,8.1,1.52l-.89,2.51,3.63,1.47,1.22-2.33.72.38L63,26l.71.43L65,24.07l.62.37L64.32,26.7l.88.59,1.48-2.21q.73.49,1.44,1l-1.58,2.14,1.14.89,1.71-2c.37.31.73.63,1.08,1l-1.78,2,.68.64,2.1-2.1a30.31,30.31,0,0,0-42.87,0h0" transform="translate(-14 -15.5)"/><path class="cls-2" d="M49.94,68c-10.25,0-17.46-7.2-17.46-17.45s7.2-17.46,17.46-17.46S67.4,40.27,67.4,50.53,60.2,68,49.94,68Zm0-34.08c0,5.11-1.3-4.2-1,.62s-2.51-4.38-1.82-.38-.12,2.58-.58,2.14-1.6-3.44-1.89-2.47c-.13.45,1.42,5.41,0,2s-.29,1.06-1.51-.46c-1.63-2-3-4.93-1.18.59.4,1.2,3.75,7.58.68,2.62s-.25,1.17-.82.79a9.87,9.87,0,0,1-1.94-2.06c-1.74-2.32.07,2.79-1.12.93s-3.68-1.73-1.45,1.49,4.33,4.92-.91,1.16S37.75,43.7,35.7,42s.74,1.38-.41.73-3,.5-.81,1.73a3.45,3.45,0,0,1,1.4,1.18c.31.6-.38.89-1.92.33-2.37-.86-4.83-.57-.23.92s3.38,2-.24,1.27-4.28.73-.13,1.22-4.88,1.15,0,1.19-3,.62,0,.7-4,1.07.06.82-5.11,2.54.2,1.47-9.53,4.56.89,1.87-1.14,1.65,0,1.31c2.58-.72-3.79,2.3.38.87s-2.25,2.34.55,1.07-2.47,2.44.58,1,3.1-.55.61.87c-.93.53,3.88-2.25,4.21-1.64.25.45-1.57,2.36-1,2.57s.06,1.9.54,1.37c1.38-1.54-1.33,4.82.79,1.85a7.82,7.82,0,0,1,1.12-1.31c1.13-1,1.83-1.64.88.12-1.19,2.22,2.53-1.17,1.32,1.8s2.6-2.33,1.52,1.44,2.5-4.3,1.87-1.38,2.16-.44,2.1,1.86,1.2-.56,1.09-2.66,1.59,5.36,1.2,2.51.23,0,.35,0,1,2.28.68-.12,3.2,3.83,1.94-.52,1.82,2.52.72-.26,2.39,3.19.75-.31.6-.28.88-.43-1.05-3.17.62-.34-1.77-5.18,1.13-.71,3.55,3.3,1.06-.79-.7-2.79,1.11-1,1.9.65.59-.6-1.55-2.16.55-.61c.49.36,4,2.47,1.41-.34s2.85,1.1.48-.72,2.15-1,.74-1.78.3-1,.44-1.53c.07-.27-2.08-1.58.19-.81s-1.57-1,.14-.65.13-.7.19-1-2-1,.1-.7,4.56-.87.11-.87,9-.44.1-1,4.93-1.29,0-1.25,6.07-1.33,0-1,5.32-3.21-.23-1.93,3-1.88-.21-1,3.12-3.35-.53-1.74,2.76-2.08-.23-.58,2.94-2.84-.52-1.14-.39-.76-.61-1.12-3.22,1-1-1.42S65,38,62.68,39.85s1.77-3.15-.7-.78,1.15-3.78-1.23-1.17-2.82,3.37-.6-.49.57-2.58-.69-.51,1.52-4.09-.83-.54.77-4-1-.56-2.89,2.59-2.1-.92-.23-2.64-.87-.29.4-3.52-.64-.17-1.59,3.32-1.65-.33-1.1-3.93-1.48-.15S49.9,28.79,49.94,33.9Z" transform="translate(-14 -15.5)"/><path class="cls-2" d="M49.74,58a7.85,7.85,0,1,1,7.85-7.85A7.86,7.86,0,0,1,49.74,58Zm0-14.87c0,2.16-.55-1.77-.43.26s-1.06-1.85-.77-.16-.05,1.09-.24.9-.68-1.45-.8-1c-.05.19.6,2.29,0,.84s-.12.45-.64-.2c-.68-.85-1.28-2.08-.5.25.17.51,1.58,3.2.29,1.11s-.1.5-.35.33a4.16,4.16,0,0,1-.82-.87c-.73-1,0,1.18-.47.4s-1.55-.73-.61.63,1.83,2.08-.39.49.56,1.19-.31.46.32.58-.17.3-1.26.22-.33.73a1.48,1.48,0,0,1,.59.5c.13.26-.16.38-.81.14-1-.36-2-.24-.1.39s1.43.86-.1.53-1.8.31-.05.52-2.07.49,0,.5-1.27.26,0,.3-1.69.45,0,.35-2.16,1.07.08.62-4,1.93.38.79-.49.7,0,.56c1.09-.31-1.6,1,.16.37s-1,1,.23.45-1,1,.24.4,1.31-.23.26.37c-.4.23,1.63-.95,1.78-.69s-.66,1-.45,1.09,0,.8.23.58c.58-.65-.56,2,.33.78a3.72,3.72,0,0,1,.47-.55c.48-.41.78-.69.38,0-.5.94,1.07-.49.55.76s1.1-1,.64.61,1.06-1.82.8-.58.91-.19.88.78.51-.24.46-1.12.67,2.26.51,1.06.1,0,.15,0,.41,1,.28-.05,1.36,1.62.82-.22.77,1.07.3-.11,1,1.35.32-.13.25-.12.37-.18-.45-1.34.26-.14-.75-2.19.48-.3,1.5,1.39.45-.33-.29-1.18.47-.41.8.27.25-.25-.66-.91.23-.26c.21.16,1.67,1,.6-.14s1.2.46.2-.31.91-.44.32-.75.13-.42.18-.64-.88-.67.08-.34-.66-.43.06-.27.06-.29.08-.44-.85-.44,0-.29,1.93-.37,0-.37,3.81-.18,0-.44,2.08-.54,0-.53,2.56-.56,0-.42,2.25-1.36-.09-.81,1.28-.79-.09-.43,1.32-1.42-.22-.73,1.16-.88-.09-.25S57.49,46.3,56,47s-.17-.32-.26-.47-1.36.41-.41-.6.73-1.09-.24-.31.74-1.33-.3-.33.49-1.59-.52-.49-1.19,1.42-.25-.21.24-1.09-.29-.22.64-1.72-.35-.23.33-1.69-.41-.24-1.22,1.1-.89-.39-.1-1.11-.37-.12.17-1.49-.27-.07-.68,1.4-.7-.14-.46-1.66-.62-.06S49.73,41,49.74,43.13Z" transform="translate(-14 -15.5)"/></g></svg>