<svg xmlns="http://www.w3.org/2000/svg" viewBox="0 0 72 69"><defs><style>.cls-1{fill:#231f20;}</style></defs><title>selection-ExperimentList</title><g id="Square_Base" data-name="Square Base"><polygon class="cls-1" points="4.5 4.5 4.5 18 0 18 0 0 18 0 18 4.5 4.5 4.5"/><polygon class="cls-1" points="67.5 4.5 67.5 18 72 18 72 0 54 0 54 4.5 67.5 4.5"/><polygon class="cls-1" points="67.5 64.5 67.5 51 72 51 72 69 54 69 54 64.5 67.5 64.5"/><polygon class="cls-1" points="4.5 64.5 4.5 51 0 51 0 69 18 69 18 64.5 4.5 64.5"/></g><g id="Layer_13" data-name="Layer 13"><path class="cls-1" d="M38.76,34.64H60.1v5.5H46.74v4.1H59.13V49.5H46.74v5.08H60.49v5.84H38.76Z" transform="translate(-14 -15.5)"/><rect class="cls-1" x="9.62" y="7" width="50.77" height="3.55"/><rect class="cls-1" x="9.65" y="15.81" width="7.78" height="3.55"/><rect class="cls-1" x="52.58" y="15.81" width="7.78" height="3.55"/><rect class="cls-1" x="9.65" y="25.62" width="7.78" height="3.55"/><rect class="cls-1" x="52.58" y="25.62" width="7.78" height="3.55"/><rect class="cls-1" x="9.65" y="34.13" width="7.78" height="3.55"/><rect class="cls-1" x="52.58" y="34.13" width="7.78" height="3.55"/><rect class="cls-1" x="9.65" y="41.85" width="7.78" height="3.55"/><rect class="cls-1" x="52.58" y="41.85" width="7.78" height="3.55"/><rect class="cls-1" x="9.65" y="50.37" width="13.33" height="3.55"/><rect class="cls-1" x="46.75" y="50.37" width="13.6" height="3.55"/><rect class="cls-1" x="9.62" y="57.89" width="50.77" height="3.55"/></g></svg>