<svg xmlns="http://www.w3.org/2000/svg" viewBox="0 0 72 69"><title>selection-VirulenceFactor</title><g id="Square_Base" data-name="Square Base"><polygon points="4.5 4.5 4.5 18 0 18 0 0 18 0 18 4.5 4.5 4.5" style="fill:#231f20"/><polygon points="67.5 4.5 67.5 18 72 18 72 0 54 0 54 4.5 67.5 4.5" style="fill:#231f20"/><polygon points="67.5 64.5 67.5 51 72 51 72 69 54 69 54 64.5 67.5 64.5" style="fill:#231f20"/><polygon points="4.5 64.5 4.5 51 0 51 0 69 18 69 18 64.5 4.5 64.5" style="fill:#231f20"/></g><g id="Layer_14" data-name="Layer 14"><path d="M21.12,30.5h9.6l6.69,30.26L44,30.5h9.33l-11,42h-10Z" transform="translate(-14 -15.5)" style="fill:#231f20"/><path d="M56.39,30.5H79.11v9H65.62v7.34H77.14v8.49H65.62V72.54H56.39Z" transform="translate(-14 -15.5)" style="fill:#231f20"/></g></svg>