<svg xmlns="http://www.w3.org/2000/svg" viewBox="0 0 72 69"><defs><style>.cls-1{fill:#231f20;}</style></defs><title>selection-FeatureGroup</title><g id="Square_Base" data-name="Square Base"><polygon class="cls-1" points="4.5 4.5 4.5 18 0 18 0 0 18 0 18 4.5 4.5 4.5"/><polygon class="cls-1" points="67.5 4.5 67.5 18 72 18 72 0 54 0 54 4.5 67.5 4.5"/><polygon class="cls-1" points="67.5 64.5 67.5 51 72 51 72 69 54 69 54 64.5 67.5 64.5"/><polygon class="cls-1" points="4.5 64.5 4.5 51 0 51 0 69 18 69 18 64.5 4.5 64.5"/></g><g id="Layer_10" data-name="Layer 10"><path class="cls-1" d="M27.77,24.23H47.46v5.54H35.77v4.5h10v5.2h-10V50h-8Z" transform="translate(-14 -15.5)"/><path class="cls-1" d="M55.81,24.23H75.5v5.54H63.81v4.5h10v5.2h-10V50h-8Z" transform="translate(-14 -15.5)"/><path class="cls-1" d="M27.77,53.23H47.46v5.54H35.77v4.5h10v5.2h-10V79h-8Z" transform="translate(-14 -15.5)"/><path class="cls-1" d="M55.81,53.23H75.5v5.54H63.81v4.5h10v5.2h-10V79h-8Z" transform="translate(-14 -15.5)"/></g></svg>