<?xml version="1.0" encoding="UTF-8"?>
<!DOCTYPE svg PUBLIC "-//W3C//DTD SVG 1.1//EN" "http://www.w3.org/Graphics/SVG/1.1/DTD/svg11.dtd">
<svg xmlns="http://www.w3.org/2000/svg" version="1.1" width="72px" height="69px" style="shape-rendering:geometricPrecision; text-rendering:geometricPrecision; image-rendering:optimizeQuality; fill-rule:evenodd; clip-rule:evenodd" xmlns:xlink="http://www.w3.org/1999/xlink">
<g><path style="opacity:0.998" fill="#231f20" d="M -0.5,-0.5 C 5.5,-0.5 11.5,-0.5 17.5,-0.5C 17.5,1.16667 17.5,2.83333 17.5,4.5C 13.1667,4.5 8.83333,4.5 4.5,4.5C 4.5,8.83333 4.5,13.1667 4.5,17.5C 2.83333,17.5 1.16667,17.5 -0.5,17.5C -0.5,11.5 -0.5,5.5 -0.5,-0.5 Z"/></g>
<g><path style="opacity:0.998" fill="#231f20" d="M 53.5,-0.5 C 59.5,-0.5 65.5,-0.5 71.5,-0.5C 71.5,5.5 71.5,11.5 71.5,17.5C 69.8333,17.5 68.1667,17.5 66.5,17.5C 66.5,13.1667 66.5,8.83333 66.5,4.5C 62.1667,4.5 57.8333,4.5 53.5,4.5C 53.5,2.83333 53.5,1.16667 53.5,-0.5 Z"/></g>
<g><path style="opacity:0.916" fill="#000000" d="M 10.5,12.5 C 15.2137,12.1734 19.8804,12.5067 24.5,13.5C 28.2766,22.0535 31.7766,30.7202 35,39.5C 38.2234,30.7202 41.7234,22.0535 45.5,13.5C 50.1196,12.5067 54.7863,12.1734 59.5,12.5C 53.6293,27.9144 47.4627,43.2477 41,58.5C 37,59.8333 33,59.8333 29,58.5C 22.5373,43.2477 16.3707,27.9144 10.5,12.5 Z"/></g>
<g><path style="opacity:0.008" fill="#23201f" d="M 60.5,49.5 C 61.8333,50.1667 61.8333,50.1667 60.5,49.5 Z"/></g>
<g><path style="opacity:0.998" fill="#231f20" d="M -0.5,50.5 C 1.16667,50.5 2.83333,50.5 4.5,50.5C 4.5,54.8333 4.5,59.1667 4.5,63.5C 8.83333,63.5 13.1667,63.5 17.5,63.5C 17.5,65.1667 17.5,66.8333 17.5,68.5C 11.5,68.5 5.5,68.5 -0.5,68.5C -0.5,62.5 -0.5,56.5 -0.5,50.5 Z"/></g>
<g><path style="opacity:0.998" fill="#231f20" d="M 71.5,50.5 C 71.5,56.5 71.5,62.5 71.5,68.5C 65.5,68.5 59.5,68.5 53.5,68.5C 53.5,66.8333 53.5,65.1667 53.5,63.5C 57.8333,63.5 62.1667,63.5 66.5,63.5C 66.5,59.1667 66.5,54.8333 66.5,50.5C 68.1667,50.5 69.8333,50.5 71.5,50.5 Z"/></g>
</svg>
