<svg xmlns="http://www.w3.org/2000/svg" viewBox="0 0 72 69"><title>selection-SequenceList</title><g id="Square_Base" data-name="Square Base"><polygon points="4.5 4.5 4.5 18 0 18 0 0 18 0 18 4.5 4.5 4.5" style="fill:#231f20"/><polygon points="67.5 4.5 67.5 18 72 18 72 0 54 0 54 4.5 67.5 4.5" style="fill:#231f20"/><polygon points="67.5 64.5 67.5 51 72 51 72 69 54 69 54 64.5 67.5 64.5" style="fill:#231f20"/><polygon points="4.5 64.5 4.5 51 0 51 0 69 18 69 18 64.5 4.5 64.5" style="fill:#231f20"/></g><g id="Layer_16" data-name="Layer 16"><path d="M38,54.48,45.59,54a5.78,5.78,0,0,0,1,2.81,4.21,4.21,0,0,0,3.52,1.56,3.89,3.89,0,0,0,2.63-.8,2.4,2.4,0,0,0,.92-1.85,2.37,2.37,0,0,0-.88-1.79,10.17,10.17,0,0,0-4.08-1.49q-5.24-1.18-7.47-3.13a6.29,6.29,0,0,1-2.25-5,6.76,6.76,0,0,1,1.15-3.75,7.64,7.64,0,0,1,3.46-2.78,16.17,16.17,0,0,1,6.34-1q4.94,0,7.53,1.84a7.93,7.93,0,0,1,3.08,5.84L53,44.92a3.51,3.51,0,0,0-3.9-3.32,3.19,3.19,0,0,0-2.09.59,1.8,1.8,0,0,0-.7,1.43,1.43,1.43,0,0,0,.58,1.11,6.53,6.53,0,0,0,2.67.95A33.44,33.44,0,0,1,57.08,48a7.86,7.86,0,0,1,3.29,2.86,7.24,7.24,0,0,1,1,3.81A8.17,8.17,0,0,1,60,59.19a8.58,8.58,0,0,1-3.83,3.17A15.48,15.48,0,0,1,50,63.45q-6.57,0-9.1-2.53A10,10,0,0,1,38,54.48Z" transform="translate(-14 -15.5)" style="fill:#231f20"/><rect x="10.61" y="7.28" width="50.77" height="3.55" style="fill:#231f20"/><rect x="10.65" y="25.91" width="7.78" height="3.55" style="fill:#231f20"/><rect x="53.57" y="25.91" width="7.78" height="3.55" style="fill:#231f20"/><rect x="10.65" y="34.41" width="7.78" height="3.55" style="fill:#231f20"/><rect x="53.57" y="34.41" width="7.78" height="3.55" style="fill:#231f20"/><rect x="10.65" y="42.14" width="7.78" height="3.55" style="fill:#231f20"/><rect x="53.57" y="42.14" width="7.78" height="3.55" style="fill:#231f20"/><rect x="10.65" y="50.65" width="13.33" height="3.55" style="fill:#231f20"/><rect x="47.75" y="50.65" width="13.6" height="3.55" style="fill:#231f20"/><rect x="10.61" y="58.17" width="50.77" height="3.55" style="fill:#231f20"/><rect x="10.65" y="16.59" width="13.33" height="3.55" style="fill:#231f20"/><rect x="47.75" y="16.59" width="13.6" height="3.55" style="fill:#231f20"/></g></svg>