<svg xmlns="http://www.w3.org/2000/svg" viewBox="0 0 72 69"><defs><style>.cls-1{fill:#231f20;}</style></defs><title>selection-GenomeList</title><g id="Square_Base" data-name="Square Base"><polygon class="cls-1" points="4.5 4.5 4.5 18 0 18 0 0 18 0 18 4.5 4.5 4.5"/><polygon class="cls-1" points="67.5 4.5 67.5 18 72 18 72 0 54 0 54 4.5 67.5 4.5"/><polygon class="cls-1" points="67.5 64.5 67.5 51 72 51 72 69 54 69 54 64.5 67.5 64.5"/><polygon class="cls-1" points="4.5 64.5 4.5 51 0 51 0 69 18 69 18 64.5 4.5 64.5"/></g><g id="Layer_6" data-name="Layer 6"><path class="cls-1" d="M49.36,53.37V48h12.3V59a25.21,25.21,0,0,1-6.25,3.28,21.22,21.22,0,0,1-6.44.87,15.66,15.66,0,0,1-7.48-1.56A10.71,10.71,0,0,1,37,56.92a15.31,15.31,0,0,1-1.59-7.1,14.83,14.83,0,0,1,1.74-7.34,11.27,11.27,0,0,1,5.1-4.74,16.58,16.58,0,0,1,7-1.25,19.81,19.81,0,0,1,6.39.77,8.29,8.29,0,0,1,3.52,2.4,10.66,10.66,0,0,1,2.1,4.12l-7.68,1.37A4.16,4.16,0,0,0,52,42.93a5,5,0,0,0-2.89-.77A5.21,5.21,0,0,0,45,44q-1.56,1.82-1.56,5.76,0,4.18,1.57,6a5.53,5.53,0,0,0,4.38,1.79,8.34,8.34,0,0,0,2.55-.39,13.77,13.77,0,0,0,2.78-1.32V53.37Z" transform="translate(-14 -15.5)"/><rect class="cls-1" x="10.61" y="6.98" width="50.77" height="3.55"/><rect class="cls-1" x="10.65" y="25.61" width="7.78" height="3.55"/><rect class="cls-1" x="53.57" y="25.61" width="7.78" height="3.55"/><rect class="cls-1" x="10.65" y="34.11" width="7.78" height="3.55"/><rect class="cls-1" x="53.57" y="34.11" width="7.78" height="3.55"/><rect class="cls-1" x="10.65" y="41.83" width="7.78" height="3.55"/><rect class="cls-1" x="53.57" y="41.83" width="7.78" height="3.55"/><rect class="cls-1" x="10.65" y="50.35" width="13.33" height="3.55"/><rect class="cls-1" x="47.75" y="50.35" width="13.6" height="3.55"/><rect class="cls-1" x="10.61" y="57.87" width="50.77" height="3.55"/><rect class="cls-1" x="10.65" y="16.29" width="13.33" height="3.55"/><rect class="cls-1" x="47.75" y="16.29" width="13.6" height="3.55"/></g></svg>