<svg xmlns="http://www.w3.org/2000/svg" viewBox="0 0 72 69"><defs><style>.cls-1{fill:#231f20;}</style></defs><title>selection-FeatureList</title><g id="Square_Base" data-name="Square Base"><polygon class="cls-1" points="4.5 4.5 4.5 18 0 18 0 0 18 0 18 4.5 4.5 4.5"/><polygon class="cls-1" points="67.5 4.5 67.5 18 72 18 72 0 54 0 54 4.5 67.5 4.5"/><polygon class="cls-1" points="67.5 64.5 67.5 51 72 51 72 69 54 69 54 64.5 67.5 64.5"/><polygon class="cls-1" points="4.5 64.5 4.5 51 0 51 0 69 18 69 18 64.5 4.5 64.5"/></g><g id="Layer_8" data-name="Layer 8"><path class="cls-1" d="M41.11,37.25H60.79v5.54H49.11v4.5h10v5.2h-10V63h-8Z" transform="translate(-14 -15.5)"/><rect class="cls-1" x="10.61" y="6.81" width="50.77" height="3.55"/><rect class="cls-1" x="10.65" y="25.44" width="7.78" height="3.55"/><rect class="cls-1" x="53.57" y="25.44" width="7.78" height="3.55"/><rect class="cls-1" x="10.65" y="33.94" width="7.78" height="3.55"/><rect class="cls-1" x="53.57" y="33.94" width="7.78" height="3.55"/><rect class="cls-1" x="10.65" y="41.67" width="7.78" height="3.55"/><rect class="cls-1" x="53.57" y="41.67" width="7.78" height="3.55"/><rect class="cls-1" x="10.65" y="50.18" width="13.33" height="3.55"/><rect class="cls-1" x="47.75" y="50.18" width="13.6" height="3.55"/><rect class="cls-1" x="10.61" y="57.7" width="50.77" height="3.55"/><rect class="cls-1" x="10.65" y="16.13" width="13.33" height="3.55"/><rect class="cls-1" x="47.75" y="16.13" width="13.6" height="3.55"/></g></svg>