<svg xmlns="http://www.w3.org/2000/svg" viewBox="0 0 72 69"><title>selection-AntibioticList</title><g id="Square_Base" data-name="Square Base"><polygon points="4.5 4.5 4.5 18 0 18 0 0 18 0 18 4.5 4.5 4.5" style="fill:#231f20"/><polygon points="67.5 4.5 67.5 18 72 18 72 0 54 0 54 4.5 67.5 4.5" style="fill:#231f20"/><polygon points="67.5 64.5 67.5 51 72 51 72 69 54 69 54 64.5 67.5 64.5" style="fill:#231f20"/><polygon points="4.5 64.5 4.5 51 0 51 0 69 18 69 18 64.5 4.5 64.5" style="fill:#231f20"/></g><g id="Layer_18" data-name="Layer 18"><path d="M54.25,58.47h-9L44,62.72H35.82L45.51,37h8.69l9.68,25.77H55.54ZM52.6,52.9l-2.84-9.26L46.94,52.9Z" transform="translate(-14 -15.5)" style="fill:#231f20"/><rect x="10.61" y="7" width="50.77" height="3.55" style="fill:#231f20"/><rect x="10.65" y="25.62" width="7.78" height="3.55" style="fill:#231f20"/><rect x="53.57" y="25.62" width="7.78" height="3.55" style="fill:#231f20"/><rect x="10.65" y="34.13" width="7.78" height="3.55" style="fill:#231f20"/><rect x="53.57" y="34.13" width="7.78" height="3.55" style="fill:#231f20"/><rect x="10.65" y="41.85" width="7.78" height="3.55" style="fill:#231f20"/><rect x="53.57" y="41.85" width="7.78" height="3.55" style="fill:#231f20"/><rect x="10.65" y="50.37" width="13.33" height="3.55" style="fill:#231f20"/><rect x="47.75" y="50.37" width="13.6" height="3.55" style="fill:#231f20"/><rect x="10.61" y="57.89" width="50.77" height="3.55" style="fill:#231f20"/><rect x="10.65" y="16.31" width="13.33" height="3.55" style="fill:#231f20"/><rect x="47.75" y="16.31" width="13.6" height="3.55" style="fill:#231f20"/></g></svg>