<svg xmlns="http://www.w3.org/2000/svg" viewBox="0 0 72 69"><defs><style>.cls-1{fill:#231f20;}.cls-2,.cls-4,.cls-5,.cls-6{fill:none;}.cls-3{fill:#010101;}.cls-4{stroke:#676767;}.cls-4,.cls-5{stroke-width:0.13px;stroke-dasharray:0.13 0.38;}.cls-5{stroke:#acabab;}.cls-6{stroke:#010101;stroke-width:0.06px;}</style></defs><title>selection-Genome-Alt-2</title><g id="Square_Base" data-name="Square Base"><polygon class="cls-1" points="4.5 4.5 4.5 18 0 18 0 0 18 0 18 4.5 4.5 4.5"/><polygon class="cls-1" points="67.5 4.5 67.5 18 72 18 72 0 54 0 54 4.5 67.5 4.5"/><polygon class="cls-1" points="67.5 64.5 67.5 51 72 51 72 69 54 69 54 64.5 67.5 64.5"/><polygon class="cls-1" points="4.5 64.5 4.5 51 0 51 0 69 18 69 18 64.5 4.5 64.5"/></g><g id="Genome-Alt-2"><path class="cls-2" d="M49.58,20.59A28.93,28.93,0,1,1,20.65,49.52,28.93,28.93,0,0,1,49.58,20.59Zm0,1a27.94,27.94,0,1,1,0,55.88h0a27.94,27.94,0,0,1,0-55.88Z" transform="translate(-14 -15.5)"/><path class="cls-3" d="M49.58,21.58a27.94,27.94,0,0,1,10.13,1.9l.36-.92a28.93,28.93,0,0,0-10.49-2Z" transform="translate(-14 -15.5)"/><path class="cls-3" d="M60.16,23.66A27.94,27.94,0,0,1,77.33,46.23l1-.12A28.93,28.93,0,0,0,60.54,22.74Z" transform="translate(-14 -15.5)"/><path class="cls-3" d="M77.38,46.71A27.94,27.94,0,0,1,76.17,58.1l.94.3a28.93,28.93,0,0,0,1.25-11.79Z" transform="translate(-14 -15.5)"/><path class="cls-3" d="M76,58.57a27.94,27.94,0,0,1-5.88,9.88l.73.67A28.93,28.93,0,0,0,77,58.89Z" transform="translate(-14 -15.5)"/><path class="cls-3" d="M69.8,68.8a27.94,27.94,0,0,1-12.66,7.61l.27,1a28.93,28.93,0,0,0,13.11-7.89Z" transform="translate(-14 -15.5)"/><path class="cls-3" d="M56.67,76.55a27.94,27.94,0,0,1-13.8.1l-.24,1a28.93,28.93,0,0,0,14.29-.1Z" transform="translate(-14 -15.5)"/><path class="cls-3" d="M42.4,76.52A27.94,27.94,0,0,1,31,70.37l-.66.74a28.93,28.93,0,0,0,11.82,6.37Z" transform="translate(-14 -15.5)"/><path class="cls-3" d="M30.62,70a27.94,27.94,0,0,1-6.25-8.48l-.9.43a28.93,28.93,0,0,0,6.47,8.78Z" transform="translate(-14 -15.5)"/><path class="cls-3" d="M24.16,61.12A27.94,27.94,0,0,1,22,53.67l-1,.15a28.93,28.93,0,0,0,2.29,7.72Z" transform="translate(-14 -15.5)"/><path class="cls-3" d="M21.88,53.19a27.94,27.94,0,0,1,.39-9.6l-1-.21a28.93,28.93,0,0,0-.41,9.94Z" transform="translate(-14 -15.5)"/><path class="cls-3" d="M22.38,43.11A27.94,27.94,0,0,1,34.15,26.22l-.55-.83A28.93,28.93,0,0,0,21.42,42.88Z" transform="translate(-14 -15.5)"/><path class="cls-3" d="M34.56,26a27.94,27.94,0,0,1,6.67-3.1l-.3-.95A28.93,28.93,0,0,0,34,25.12Z" transform="translate(-14 -15.5)"/><path class="cls-3" d="M41.7,22.71a27.94,27.94,0,0,1,7.39-1.13l0-1a28.93,28.93,0,0,0-7.65,1.17Z" transform="translate(-14 -15.5)"/><path class="cls-2" d="M49.58,24.64a24.88,24.88,0,0,1,9,1.69l1-2.47a27.52,27.52,0,0,0-10-1.87Z" transform="translate(-14 -15.5)"/><path class="cls-2" d="M59,26.5A24.88,24.88,0,0,1,74.29,46.59l2.63-.31A27.52,27.52,0,0,0,60,24Z" transform="translate(-14 -15.5)"/><path class="cls-2" d="M74.33,47a24.88,24.88,0,0,1-1.08,10.14l2.52.81A27.52,27.52,0,0,0,77,46.75Z" transform="translate(-14 -15.5)"/><path class="cls-2" d="M73.12,57.57a24.88,24.88,0,0,1-5.24,8.8l1.95,1.79a27.52,27.52,0,0,0,5.79-9.73Z" transform="translate(-14 -15.5)"/><path class="cls-2" d="M67.58,66.69a24.88,24.88,0,0,1-11.27,6.78L57,76a27.52,27.52,0,0,0,12.47-7.5Z" transform="translate(-14 -15.5)"/><path class="cls-2" d="M55.89,73.58a24.88,24.88,0,0,1-12.28.09L43,76.24a27.52,27.52,0,0,0,13.59-.09Z" transform="translate(-14 -15.5)"/><path class="cls-2" d="M43.19,73.56A24.88,24.88,0,0,1,33,68.08l-1.76,2A27.52,27.52,0,0,0,42.5,76.12Z" transform="translate(-14 -15.5)"/><path class="cls-2" d="M32.7,67.79a24.88,24.88,0,0,1-5.56-7.55l-2.39,1.14a27.52,27.52,0,0,0,6.16,8.35Z" transform="translate(-14 -15.5)"/><path class="cls-2" d="M27,59.85a24.88,24.88,0,0,1-2-6.63l-2.62.39a27.52,27.52,0,0,0,2.18,7.34Z" transform="translate(-14 -15.5)"/><path class="cls-2" d="M24.92,52.79a24.88,24.88,0,0,1,.35-8.55l-2.59-.56a27.52,27.52,0,0,0-.39,9.46Z" transform="translate(-14 -15.5)"/><path class="cls-2" d="M25.37,43.81a24.88,24.88,0,0,1,10.48-15l-1.46-2.21A27.52,27.52,0,0,0,22.79,43.21Z" transform="translate(-14 -15.5)"/><path class="cls-2" d="M36.21,28.54a24.88,24.88,0,0,1,5.94-2.76l-.79-2.53a27.52,27.52,0,0,0-6.57,3.06Z" transform="translate(-14 -15.5)"/><path class="cls-2" d="M42.57,25.65a24.88,24.88,0,0,1,6.58-1l0-2.65a27.52,27.52,0,0,0-7.28,1.11Z" transform="translate(-14 -15.5)"/><path class="cls-2" d="M49.58,24.64a24.88,24.88,0,0,1,9,1.69l1-2.47a27.52,27.52,0,0,0-10-1.87Z" transform="translate(-14 -15.5)"/><path class="cls-2" d="M59,26.5A24.88,24.88,0,0,1,74.29,46.59l2.63-.31A27.52,27.52,0,0,0,60,24Z" transform="translate(-14 -15.5)"/><path class="cls-2" d="M74.33,47a24.88,24.88,0,0,1-1.08,10.14l2.52.81A27.52,27.52,0,0,0,77,46.75Z" transform="translate(-14 -15.5)"/><path class="cls-2" d="M73.12,57.57a24.88,24.88,0,0,1-5.24,8.8l1.95,1.79a27.52,27.52,0,0,0,5.79-9.73Z" transform="translate(-14 -15.5)"/><path class="cls-2" d="M67.58,66.69a24.88,24.88,0,0,1-11.27,6.78L57,76a27.52,27.52,0,0,0,12.47-7.5Z" transform="translate(-14 -15.5)"/><path class="cls-2" d="M55.89,73.58a24.88,24.88,0,0,1-12.28.09L43,76.24a27.52,27.52,0,0,0,13.59-.09Z" transform="translate(-14 -15.5)"/><path class="cls-2" d="M43.19,73.56A24.88,24.88,0,0,1,33,68.08l-1.76,2A27.52,27.52,0,0,0,42.5,76.12Z" transform="translate(-14 -15.5)"/><path class="cls-2" d="M32.7,67.79a24.88,24.88,0,0,1-5.56-7.55l-2.39,1.14a27.52,27.52,0,0,0,6.16,8.35Z" transform="translate(-14 -15.5)"/><path class="cls-2" d="M27,59.85a24.88,24.88,0,0,1-2-6.63l-2.62.39a27.52,27.52,0,0,0,2.18,7.34Z" transform="translate(-14 -15.5)"/><path class="cls-2" d="M24.92,52.79a24.88,24.88,0,0,1,.35-8.55l-2.59-.56a27.52,27.52,0,0,0-.39,9.46Z" transform="translate(-14 -15.5)"/><path class="cls-2" d="M25.37,43.81a24.88,24.88,0,0,1,10.48-15l-1.46-2.21A27.52,27.52,0,0,0,22.79,43.21Z" transform="translate(-14 -15.5)"/><path class="cls-2" d="M36.21,28.54a24.88,24.88,0,0,1,5.94-2.76l-.79-2.53a27.52,27.52,0,0,0-6.57,3.06Z" transform="translate(-14 -15.5)"/><path class="cls-2" d="M42.57,25.65a24.88,24.88,0,0,1,6.58-1l0-2.65a27.52,27.52,0,0,0-7.28,1.11Z" transform="translate(-14 -15.5)"/><path class="cls-3" d="M28.68,63l-.46-.74-2.27,1.36q.25.41.51.82Z" transform="translate(-14 -15.5)"/><path class="cls-3" d="M30.23,65.16q-.5-.61-1-1.26l-2.16,1.53q.5.71,1.05,1.39Z" transform="translate(-14 -15.5)"/><path class="cls-3" d="M32,67.16q-.48-.47-.93-1l-2,1.77q.5.55,1,1.08Z" transform="translate(-14 -15.5)"/><path class="cls-3" d="M28.21,62.25q-.35-.59-.67-1.21l-2.34,1.23q.35.68.75,1.33Z" transform="translate(-14 -15.5)"/><path class="cls-3" d="M27.53,61q-.21-.39-.4-.8l-2.39,1.14q.21.44.44.88Z" transform="translate(-14 -15.5)"/><path class="cls-3" d="M29.26,63.87l-.51-.74-2.22,1.45q.27.42.56.82Z" transform="translate(-14 -15.5)"/><path class="cls-3" d="M32.7,67.79l-.64-.62L30.19,69l.71.68Z" transform="translate(-14 -15.5)"/><path class="cls-3" d="M61,27.4q1,.51,1.91,1.1l1.42-2.24q-1-.65-2.12-1.21Z" transform="translate(-14 -15.5)"/><path class="cls-3" d="M64.55,29.65l.12.09,1.6-2.1-.14-.1Z" transform="translate(-14 -15.5)"/><path class="cls-3" d="M64.67,29.74a24.88,24.88,0,0,1,1.93,1.64l1.81-1.93a27.52,27.52,0,0,0-2.14-1.81Z" transform="translate(-14 -15.5)"/><path class="cls-3" d="M66.68,31.44l.61.6,1.88-1.86-.67-.66Z" transform="translate(-14 -15.5)"/><path class="cls-3" d="M67.38,32.14l.39.41,1.93-1.81-.43-.45Z" transform="translate(-14 -15.5)"/><path class="cls-3" d="M68.87,33.81,69,34l2.06-1.65-.14-.17Z" transform="translate(-14 -15.5)"/><path class="cls-3" d="M69.62,34.78l.08.1,2.14-1.56-.08-.11Z" transform="translate(-14 -15.5)"/><path class="cls-3" d="M71.24,37.28l.18.33,2.32-1.27-.2-.37Z" transform="translate(-14 -15.5)"/><path class="cls-3" d="M72.84,40.69l0,.13,2.48-.93-.05-.14Z" transform="translate(-14 -15.5)"/><path class="cls-3" d="M63,28.58q.63.41,1.24.85l1.56-2.14q-.67-.49-1.38-.94Z" transform="translate(-14 -15.5)"/><path class="cls-3" d="M54.32,25.1l.51.1.56-2.59-.57-.12Z" transform="translate(-14 -15.5)"/><path class="cls-3" d="M53,24.88l.66.1.43-2.61-.72-.11Z" transform="translate(-14 -15.5)"/><path class="cls-3" d="M56.29,25.56l1.11.34.83-2.51q-.61-.2-1.23-.37Z" transform="translate(-14 -15.5)"/><path class="cls-3" d="M58.15,26.16l.38.14,1-2.47-.42-.16Z" transform="translate(-14 -15.5)"/><path class="cls-3" d="M50.17,24.65l.55,0L50.85,22l-.61,0Z" transform="translate(-14 -15.5)"/><path class="cls-3" d="M54.85,25.21q.72.16,1.44.36L57,23q-.79-.22-1.59-.4Z" transform="translate(-14 -15.5)"/><path class="cls-3" d="M49.58,24.64h.56L50.2,22h-.62Z" transform="translate(-14 -15.5)"/><path class="cls-3" d="M72.79,58.47l-.25.61,2.44,1,.27-.68Z" transform="translate(-14 -15.5)"/><path class="cls-3" d="M72.06,60.18q-.26.56-.56,1.1l2.33,1.25q.32-.6.62-1.22Z" transform="translate(-14 -15.5)"/><path class="cls-3" d="M71.5,61.28q-.31.57-.64,1.12l2.26,1.37q.37-.61.71-1.24Z" transform="translate(-14 -15.5)"/><path class="cls-3" d="M70.77,62.55q-.35.57-.73,1.11l2.18,1.5q.42-.61.8-1.23Z" transform="translate(-14 -15.5)"/><path class="cls-3" d="M70,63.66q-.45.65-.94,1.27l2.08,1.64q.54-.69,1-1.4Z" transform="translate(-14 -15.5)"/><path class="cls-3" d="M69.11,64.93q-.47.59-1,1.16l2,1.76q.56-.63,1.08-1.28Z" transform="translate(-14 -15.5)"/><path class="cls-3" d="M72.56,59.06q-.22.53-.47,1.05l2.39,1.13q.27-.58.52-1.17Z" transform="translate(-14 -15.5)"/><path class="cls-3" d="M73.1,57.63q-.14.4-.29.79l2.47.95q.17-.44.32-.88Z" transform="translate(-14 -15.5)"/><path class="cls-3" d="M74.36,47.29q0,.2,0,.4l2.64-.2q0-.22,0-.44Z" transform="translate(-14 -15.5)"/><path class="cls-3" d="M74.46,49.91q0,.34,0,.68l2.64.11q0-.38,0-.75Z" transform="translate(-14 -15.5)"/><path class="cls-3" d="M73.36,56.83l-.1.33,2.52.81.11-.36Z" transform="translate(-14 -15.5)"/><path class="cls-3" d="M74.45,49q0,.42,0,.84l2.65,0q0-.46,0-.93Z" transform="translate(-14 -15.5)"/><path class="cls-3" d="M74.06,53.93q-.08.43-.17.86l2.59.56q.1-.47.19-1Z" transform="translate(-14 -15.5)"/><path class="cls-3" d="M73.89,54.79q-.21,1-.5,1.92l2.53.77q.32-1.05.55-2.13Z" transform="translate(-14 -15.5)"/><path class="cls-3" d="M74.4,47.78q0,.58.05,1.15l2.65-.06q0-.64-.06-1.28Z" transform="translate(-14 -15.5)"/><path class="cls-3" d="M74.43,50.6q0,.41,0,.81l2.64.2q0-.45.05-.9Z" transform="translate(-14 -15.5)"/><path class="cls-3" d="M46.19,74.16q-.71-.1-1.41-.24l-.51,2.6q.78.15,1.56.26Z" transform="translate(-14 -15.5)"/><path class="cls-3" d="M44.3,73.83l-.45-.1-.61,2.57.5.11Z" transform="translate(-14 -15.5)"/><path class="cls-3" d="M44.68,73.91l-.36-.08-.56,2.59.4.08Z" transform="translate(-14 -15.5)"/><path class="cls-3" d="M49.39,74.4q-.67,0-1.35,0L47.88,77q.74,0,1.49.05Z" transform="translate(-14 -15.5)"/><path class="cls-3" d="M47,74.26l-.73-.09-.35,2.62.81.1Z" transform="translate(-14 -15.5)"/><path class="cls-3" d="M43.14,73.55l-.6-.17-.75,2.54.67.19Z" transform="translate(-14 -15.5)"/><path class="cls-3" d="M25.79,56.78q-.17-.54-.31-1.09l-2.56.66q.16.61.34,1.21Z" transform="translate(-14 -15.5)"/><path class="cls-3" d="M26.49,58.79q-.15-.37-.28-.74L23.72,59q.15.41.31.82Z" transform="translate(-14 -15.5)"/><path class="cls-3" d="M26.21,58q-.19-.51-.35-1l-2.52.8q.18.57.39,1.13Z" transform="translate(-14 -15.5)"/><path class="cls-3" d="M26.94,59.83q-.22-.48-.41-1l-2.45,1q.22.54.46,1.06Z" transform="translate(-14 -15.5)"/><path class="cls-3" d="M25.44,55.55,25.31,55l-2.58.58q.07.31.15.63Z" transform="translate(-14 -15.5)"/><path class="cls-3" d="M25.31,55q-.13-.57-.23-1.15l-2.61.46q.11.64.25,1.27Z" transform="translate(-14 -15.5)"/><path class="cls-3" d="M25.08,53.84q-.05-.31-.1-.62l-2.62.39q.05.34.11.69Z" transform="translate(-14 -15.5)"/><path class="cls-3" d="M24.94,46.09l0-.17-2.62-.38,0,.19Z" transform="translate(-14 -15.5)"/><path class="cls-3" d="M25.41,43.64q.08-.32.17-.65L23,42.3q-.1.36-.18.71Z" transform="translate(-14 -15.5)"/><path class="cls-3" d="M28.66,36.05l.41-.61-2.18-1.5-.45.68Z" transform="translate(-14 -15.5)"/><path class="cls-3" d="M35.21,29.21l.63-.43-1.46-2.21-.7.48Z" transform="translate(-14 -15.5)"/><path class="cls-2" d="M49.58,27.7a21.81,21.81,0,0,1,7.91,1.48l1-2.47a24.46,24.46,0,0,0-8.87-1.66Z" transform="translate(-14 -15.5)"/><path class="cls-2" d="M57.84,29.33a21.81,21.81,0,0,1,13.4,17.62l2.63-.31a24.46,24.46,0,0,0-15-19.76Z" transform="translate(-14 -15.5)"/><path class="cls-2" d="M71.28,47.33a21.81,21.81,0,0,1-.94,8.89l2.52.81a24.46,24.46,0,0,0,1.06-10Z" transform="translate(-14 -15.5)"/><path class="cls-2" d="M70.22,56.58a21.81,21.81,0,0,1-4.59,7.71l1.95,1.79a24.46,24.46,0,0,0,5.15-8.65Z" transform="translate(-14 -15.5)"/><path class="cls-2" d="M65.37,64.57a21.81,21.81,0,0,1-9.88,5.95l.72,2.55A24.46,24.46,0,0,0,67.28,66.4Z" transform="translate(-14 -15.5)"/><path class="cls-2" d="M55.11,70.62a21.81,21.81,0,0,1-10.77.08l-.64,2.57a24.46,24.46,0,0,0,12.08-.08Z" transform="translate(-14 -15.5)"/><path class="cls-2" d="M44,70.6a21.81,21.81,0,0,1-8.91-4.8l-1.76,2a24.46,24.46,0,0,0,10,5.38Z" transform="translate(-14 -15.5)"/><path class="cls-2" d="M34.78,65.54a21.81,21.81,0,0,1-4.88-6.62l-2.39,1.14A24.46,24.46,0,0,0,33,67.48Z" transform="translate(-14 -15.5)"/><path class="cls-2" d="M29.74,58.58A21.81,21.81,0,0,1,28,52.76l-2.62.39a24.46,24.46,0,0,0,1.94,6.52Z" transform="translate(-14 -15.5)"/><path class="cls-2" d="M28,52.38a21.81,21.81,0,0,1,.31-7.49l-2.59-.56a24.46,24.46,0,0,0-.35,8.4Z" transform="translate(-14 -15.5)"/><path class="cls-2" d="M28.35,44.52a21.81,21.81,0,0,1,9.19-13.18l-1.46-2.21a24.46,24.46,0,0,0-10.3,14.78Z" transform="translate(-14 -15.5)"/><path class="cls-2" d="M37.86,31.12a21.81,21.81,0,0,1,5.21-2.42l-.79-2.53a24.46,24.46,0,0,0-5.84,2.72Z" transform="translate(-14 -15.5)"/><path class="cls-2" d="M43.43,28.59a21.81,21.81,0,0,1,5.77-.88l0-2.65a24.46,24.46,0,0,0-6.47,1Z" transform="translate(-14 -15.5)"/><path class="cls-2" d="M49.58,27.7a21.81,21.81,0,0,1,7.91,1.48l1-2.47a24.46,24.46,0,0,0-8.87-1.66Z" transform="translate(-14 -15.5)"/><path class="cls-2" d="M57.84,29.33a21.81,21.81,0,0,1,13.4,17.62l2.63-.31a24.46,24.46,0,0,0-15-19.76Z" transform="translate(-14 -15.5)"/><path class="cls-2" d="M71.28,47.33a21.81,21.81,0,0,1-.94,8.89l2.52.81a24.46,24.46,0,0,0,1.06-10Z" transform="translate(-14 -15.5)"/><path class="cls-2" d="M70.22,56.58a21.81,21.81,0,0,1-4.59,7.71l1.95,1.79a24.46,24.46,0,0,0,5.15-8.65Z" transform="translate(-14 -15.5)"/><path class="cls-2" d="M65.37,64.57a21.81,21.81,0,0,1-9.88,5.95l.72,2.55A24.46,24.46,0,0,0,67.28,66.4Z" transform="translate(-14 -15.5)"/><path class="cls-2" d="M55.11,70.62a21.81,21.81,0,0,1-10.77.08l-.64,2.57a24.46,24.46,0,0,0,12.08-.08Z" transform="translate(-14 -15.5)"/><path class="cls-2" d="M44,70.6a21.81,21.81,0,0,1-8.91-4.8l-1.76,2a24.46,24.46,0,0,0,10,5.38Z" transform="translate(-14 -15.5)"/><path class="cls-2" d="M34.78,65.54a21.81,21.81,0,0,1-4.88-6.62l-2.39,1.14A24.46,24.46,0,0,0,33,67.48Z" transform="translate(-14 -15.5)"/><path class="cls-2" d="M29.74,58.58A21.81,21.81,0,0,1,28,52.76l-2.62.39a24.46,24.46,0,0,0,1.94,6.52Z" transform="translate(-14 -15.5)"/><path class="cls-2" d="M28,52.38a21.81,21.81,0,0,1,.31-7.49l-2.59-.56a24.46,24.46,0,0,0-.35,8.4Z" transform="translate(-14 -15.5)"/><path class="cls-2" d="M28.35,44.52a21.81,21.81,0,0,1,9.19-13.18l-1.46-2.21a24.46,24.46,0,0,0-10.3,14.78Z" transform="translate(-14 -15.5)"/><path class="cls-2" d="M37.86,31.12a21.81,21.81,0,0,1,5.21-2.42l-.79-2.53a24.46,24.46,0,0,0-5.84,2.72Z" transform="translate(-14 -15.5)"/><path class="cls-2" d="M43.43,28.59a21.81,21.81,0,0,1,5.77-.88l0-2.65a24.46,24.46,0,0,0-6.47,1Z" transform="translate(-14 -15.5)"/><path class="cls-3" d="M71.24,52.1q-.07.63-.19,1.25l2.6.46q.12-.7.21-1.4Z" transform="translate(-14 -15.5)"/><path class="cls-3" d="M71.3,51.5q0,.31-.07.62l2.63.32q0-.35.07-.69Z" transform="translate(-14 -15.5)"/><path class="cls-3" d="M58.56,29.64l.18.08,1.11-2.4-.21-.09Z" transform="translate(-14 -15.5)"/><path class="cls-3" d="M62.52,32l.11.08,1.58-2.12-.12-.09Z" transform="translate(-14 -15.5)"/><path class="cls-3" d="M65.78,34.91l.2.22,2-1.75-.22-.25Z" transform="translate(-14 -15.5)"/><path class="cls-3" d="M66.17,35.36l.16.18,2-1.7-.17-.21Z" transform="translate(-14 -15.5)"/><path class="cls-3" d="M66.84,36.17l.23.3,2.12-1.58-.26-.34Z" transform="translate(-14 -15.5)"/><path class="cls-3" d="M67.28,36.76q.57.79,1.07,1.63L70.62,37q-.56-.94-1.19-1.82Z" transform="translate(-14 -15.5)"/><path class="cls-3" d="M68.37,38.44l.08.13,2.29-1.33-.08-.14Z" transform="translate(-14 -15.5)"/><path class="cls-3" d="M68.47,38.61l.07.13,2.3-1.31-.08-.15Z" transform="translate(-14 -15.5)"/><path class="cls-3" d="M68.77,39.14l.26.49,2.36-1.2-.29-.55Z" transform="translate(-14 -15.5)"/><path class="cls-3" d="M69,39.6l.33.67,2.4-1.12q-.18-.38-.37-.75Z" transform="translate(-14 -15.5)"/><path class="cls-3" d="M69.43,40.46q.17.37.33.75l2.45-1q-.17-.42-.36-.84Z" transform="translate(-14 -15.5)"/><path class="cls-3" d="M69.8,41.33l0,.09,2.46-1,0-.1Z" transform="translate(-14 -15.5)"/><path class="cls-3" d="M69.87,41.5l.1.25,2.47-.94-.11-.28Z" transform="translate(-14 -15.5)"/><path class="cls-3" d="M70.08,42.06q.29.81.52,1.64L73.15,43q-.26-.93-.59-1.83Z" transform="translate(-14 -15.5)"/><path class="cls-3" d="M70.6,43.69l0,.12,2.55-.69,0-.13Z" transform="translate(-14 -15.5)"/><path class="cls-3" d="M70.66,43.9a21.81,21.81,0,0,1,.5,2.44L73.78,46a24.46,24.46,0,0,0-.56-2.74Z" transform="translate(-14 -15.5)"/><path class="cls-3" d="M59,29.85l.24.12,1.17-2.37-.27-.13Z" transform="translate(-14 -15.5)"/><path class="cls-3" d="M28,46.1l0-.13-2.61-.43,0,.14Z" transform="translate(-14 -15.5)"/><path class="cls-3" d="M27.83,51.17q0-.2,0-.4l-2.64.15q0,.22,0,.45Z" transform="translate(-14 -15.5)"/><path class="cls-3" d="M27.78,50.2q0-.61,0-1.22l-2.65-.07q0,.69,0,1.37Z" transform="translate(-14 -15.5)"/><path class="cls-3" d="M27.78,48.75A21.81,21.81,0,0,1,28,46.53l-2.62-.36a24.46,24.46,0,0,0-.22,2.49Z" transform="translate(-14 -15.5)"/><path class="cls-3" d="M27.87,51.6v-.15l-2.64.23,0,.17Z" transform="translate(-14 -15.5)"/><path class="cls-3" d="M28.06,45.94l0-.17-2.61-.45,0,.2Z" transform="translate(-14 -15.5)"/><path class="cls-3" d="M28.11,45.64l.08-.41-2.59-.52-.09.46Z" transform="translate(-14 -15.5)"/><path class="cls-3" d="M28.22,45.11l0-.22-2.59-.56-.05.25Z" transform="translate(-14 -15.5)"/><path class="cls-3" d="M27.93,52.2q0-.26-.06-.52l-2.63.26q0,.29.07.59Z" transform="translate(-14 -15.5)"/><path class="cls-3" d="M27.79,50.55v-.16l-2.64.11v.18Z" transform="translate(-14 -15.5)"/><path class="cls-3" d="M28,52.38v-.09l-2.62.34v.1Z" transform="translate(-14 -15.5)"/><path class="cls-3" d="M27.95,52.31l0-.12-2.63.32,0,.14Z" transform="translate(-14 -15.5)"/><path class="cls-3" d="M64.94,65q-.64.63-1.33,1.21l1.7,2q.77-.65,1.49-1.36Z" transform="translate(-14 -15.5)"/><path class="cls-3" d="M60.27,68.53a21.81,21.81,0,0,1-2.93,1.37l.94,2.47a24.46,24.46,0,0,0,3.28-1.54Z" transform="translate(-14 -15.5)"/><path class="cls-3" d="M57.14,70l-.65.23.84,2.51.72-.25Z" transform="translate(-14 -15.5)"/><path class="cls-3" d="M56.37,70.25l-.3.1.79,2.53.34-.11Z" transform="translate(-14 -15.5)"/><path class="cls-3" d="M56,70.36l-.43.13L56.32,73l.48-.14Z" transform="translate(-14 -15.5)"/><path class="cls-3" d="M63.4,66.4a21.81,21.81,0,0,1-3.1,2.12l1.3,2.3a24.46,24.46,0,0,0,3.48-2.38Z" transform="translate(-14 -15.5)"/><path class="cls-3" d="M65.37,64.58l-.33.34,1.87,1.87.37-.38Z" transform="translate(-14 -15.5)"/><path class="cls-3" d="M28.35,44.51l0-.14-2.57-.62,0,.16Z" transform="translate(-14 -15.5)"/><path class="cls-3" d="M30.39,39.14l.24-.43-2.3-1.31-.27.48Z" transform="translate(-14 -15.5)"/><path class="cls-3" d="M32.38,36.1l.24-.3-2.06-1.66-.27.34Z" transform="translate(-14 -15.5)"/><path class="cls-3" d="M34.3,34q.38-.38.78-.73l-1.76-2q-.45.4-.88.82Z" transform="translate(-14 -15.5)"/><path class="cls-3" d="M30.16,39.59l.22-.43L28.06,37.9l-.25.48Z" transform="translate(-14 -15.5)"/><path class="cls-3" d="M30.64,38.69l.18-.31L28.55,37l-.2.35Z" transform="translate(-14 -15.5)"/><path class="cls-3" d="M30.83,38.38,31,38.1l-2.25-1.39-.19.31Z" transform="translate(-14 -15.5)"/><path class="cls-3" d="M31.64,37.12l.37-.53L29.88,35l-.42.59Z" transform="translate(-14 -15.5)"/><path class="cls-3" d="M32.11,36.46l.27-.35-2.09-1.63-.3.4Z" transform="translate(-14 -15.5)"/><path class="cls-3" d="M29.14,41.89l.1-.27-2.47-1-.12.3Z" transform="translate(-14 -15.5)"/><path class="cls-3" d="M32.82,35.55l.14-.16-2-1.71-.15.18Z" transform="translate(-14 -15.5)"/><path class="cls-3" d="M33.23,35.08q.48-.54,1-1l-1.86-1.88q-.57.57-1.11,1.18Z" transform="translate(-14 -15.5)"/><path class="cls-3" d="M28.7,43.2q.2-.66.44-1.31L26.66,41q-.27.72-.49,1.46Z" transform="translate(-14 -15.5)"/><path class="cls-3" d="M35.25,33.07q.8-.7,1.67-1.32L35.38,29.6q-1,.69-1.87,1.48Z" transform="translate(-14 -15.5)"/><path class="cls-3" d="M29.33,41.42q.37-.92.82-1.81l-2.36-1.2q-.51,1-.92,2Z" transform="translate(-14 -15.5)"/><path class="cls-3" d="M53.54,71l-.45.08.43,2.61.51-.09Z" transform="translate(-14 -15.5)"/><path class="cls-3" d="M52.67,71.11l-.82.1.28,2.63.92-.11Z" transform="translate(-14 -15.5)"/><path class="cls-3" d="M51.26,71.27l-.36,0,.16,2.64.41,0Z" transform="translate(-14 -15.5)"/><path class="cls-3" d="M50.81,71.3l-.63,0L50.25,74l.71,0Z" transform="translate(-14 -15.5)"/><path class="cls-3" d="M48.21,71.29l-.6,0-.24,2.64.67.05Z" transform="translate(-14 -15.5)"/><path class="cls-3" d="M52.83,71.09l-.12,0,.38,2.62.14,0Z" transform="translate(-14 -15.5)"/><path class="cls-3" d="M55,70.65l-.14,0,.64,2.57.16,0Z" transform="translate(-14 -15.5)"/><path class="cls-3" d="M54.86,70.68q-.62.15-1.24.27l.49,2.6q.7-.13,1.39-.3Z" transform="translate(-14 -15.5)"/><path class="cls-3" d="M41.77,69.89l-.6-.24-1,2.44.67.27Z" transform="translate(-14 -15.5)"/><path class="cls-3" d="M40.93,69.54q-.74-.32-1.46-.7l-1.23,2.34q.81.42,1.64.78Z" transform="translate(-14 -15.5)"/><path class="cls-3" d="M39.47,68.85q-.48-.25-1-.53L37.18,70.6q.53.31,1.07.59Z" transform="translate(-14 -15.5)"/><path class="cls-3" d="M38.37,68.23q-.6-.36-1.17-.76l-1.5,2.18q.64.44,1.32.85Z" transform="translate(-14 -15.5)"/><path class="cls-3" d="M37.06,67.38q-.82-.57-1.58-1.21l-1.71,2q.85.72,1.77,1.36Z" transform="translate(-14 -15.5)"/><path class="cls-3" d="M35.47,66.16l-.41-.36-1.76,2,.46.4Z" transform="translate(-14 -15.5)"/><path class="cls-3" d="M41.17,69.65l-.25-.11-1,2.43.28.12Z" transform="translate(-14 -15.5)"/><path class="cls-3" d="M43.32,70.42l-.2-.06-.78,2.53.22.07Z" transform="translate(-14 -15.5)"/><path class="cls-3" d="M43.08,70.34l-.44-.14-.84,2.51.49.16Z" transform="translate(-14 -15.5)"/><path class="cls-3" d="M42.62,70.19,42.21,70l-.89,2.49.46.16Z" transform="translate(-14 -15.5)"/><path class="cls-3" d="M56.43,28.81l.51.17.89-2.49-.57-.2Z" transform="translate(-14 -15.5)"/><path class="cls-3" d="M50.63,27.73q.9,0,1.8.16l.35-2.62q-1-.13-2-.18Z" transform="translate(-14 -15.5)"/><path class="cls-3" d="M53.36,28l.31.06.5-2.6-.35-.06Z" transform="translate(-14 -15.5)"/><path class="cls-3" d="M33.39,64.14q-.38-.43-.75-.87l-2.05,1.67q.41.5.84,1Z" transform="translate(-14 -15.5)"/><path class="cls-3" d="M42.46,28.9l.34-.12L42,26.27l-.39.13Z" transform="translate(-14 -15.5)"/><path class="cls-3" d="M39.24,30.31q.48-.26,1-.49l-1.14-2.39q-.55.26-1.09.55Z" transform="translate(-14 -15.5)"/><path class="cls-3" d="M40.65,29.62q.85-.38,1.73-.69l-.87-2.5q-1,.34-1.94.77Z" transform="translate(-14 -15.5)"/><path class="cls-3" d="M38.09,31q.52-.32,1.07-.62L37.89,28q-.61.33-1.2.69Z" transform="translate(-14 -15.5)"/><path class="cls-3" d="M42.81,28.78l.26-.08-.79-2.53-.29.09Z" transform="translate(-14 -15.5)"/><path class="cls-3" d="M40.33,29.76l.32-.15L39.57,27.2l-.36.17Z" transform="translate(-14 -15.5)"/><path class="cls-3" d="M44.59,28.28l.21,0-.58-2.58-.23.05Z" transform="translate(-14 -15.5)"/><path class="cls-3" d="M46,28l.4-.06L46,25.32l-.45.07Z" transform="translate(-14 -15.5)"/><path class="cls-3" d="M43.53,28.56l.3-.09-.7-2.55-.34.1Z" transform="translate(-14 -15.5)"/><path class="cls-3" d="M44.31,28.35l.27-.07L44,25.71l-.3.07Z" transform="translate(-14 -15.5)"/><path class="cls-3" d="M43.43,28.59l.09,0L42.79,26l-.1,0Z" transform="translate(-14 -15.5)"/><path class="cls-3" d="M44.81,28.23l.42-.09-.53-2.59-.47.1Z" transform="translate(-14 -15.5)"/><path class="cls-3" d="M45.33,28.12,46,28l-.43-2.61-.75.14Z" transform="translate(-14 -15.5)"/><path class="cls-3" d="M43.93,28.45l.37-.1-.64-2.57-.41.11Z" transform="translate(-14 -15.5)"/><path class="cls-3" d="M46.43,27.93l.35,0-.34-2.62-.39.05Z" transform="translate(-14 -15.5)"/><path class="cls-3" d="M46.76,27.89l.78-.09-.25-2.63-.88.1Z" transform="translate(-14 -15.5)"/><path class="cls-3" d="M47.56,27.8h.13l-.23-2.64h-.14Z" transform="translate(-14 -15.5)"/><path class="cls-3" d="M47.79,27.78l.44,0-.16-2.64-.49,0Z" transform="translate(-14 -15.5)"/><path class="cls-3" d="M48.24,27.75l.74,0-.07-2.65-.83,0Z" transform="translate(-14 -15.5)"/><path class="cls-3" d="M49,27.71h.18l0-2.65H49Z" transform="translate(-14 -15.5)"/><path class="cls-4" d="M49.58,31.09a18.43,18.43,0,0,1,0,36.86h0a18.43,18.43,0,0,1,0-36.86Z" transform="translate(-14 -15.5)"/><path class="cls-5" d="M49.58,29.3A20.21,20.21,0,1,1,29.37,49.52,20.21,20.21,0,0,1,49.58,29.3Z" transform="translate(-14 -15.5)"/><path class="cls-5" d="M49.58,32.88A16.64,16.64,0,1,1,32.94,49.52,16.64,16.64,0,0,1,49.58,32.88Z" transform="translate(-14 -15.5)"/><path class="cls-6" d="M49.58,31.09a1.55,1.55,0,0,0,.69.14c.34,0,.37-.55.68,0s.33.14.7-.13.31.31.67.2.35,0,.71,0a.68.68,0,0,1,.66.25c.3.27.38-.09.72,0s.27.33.67.19.31.17.59.42" transform="translate(-14 -15.5)"/><path class="cls-6" d="M56.53,32.55a.78.78,0,0,0,.64.26c.39,0,.21.35.61.31s.32.12.74.08.12.5.67.24.31.17.32.79.49-.12.51.46.62-.28.61.32.06.48.59.36.15.36.52.45.15.35.57.4-.32.81.49.49.34.15.51.47-.07.52.19.74.31.18.27.65,0,.4.88.2.07.38.39.57.16.31.14.73-.71.81.3.62.35.2.65.43-.71.73.16.69.4.2-.13.8.41.2.7.46.08.34.54.55-.22.44-.34.83.39.25.4.6a5.51,5.51,0,0,1-.05.72c0,.35.09.33,0,.69s-.1.36.13.67" transform="translate(-14 -15.5)"/><path class="cls-6" d="M68,47.66a.74.74,0,0,0-.05.7c.19.33,0,.35.14.69s.06.35-.41.69-.11.34.3.69,0,.35-.3.67.18.36-.2.66.24.38.15.71a1.9,1.9,0,0,1-.19.66c-.17.32-.19.31,0,.71s-.26.29-.45.59.37.47-.82.45" transform="translate(-14 -15.5)"/><path class="cls-6" d="M67.12,55.52a1.51,1.51,0,0,1-.27.64c-.22.29-.13.32-.21.66s-.25.27-.5.53,0,.4-.16.69a1.79,1.79,0,0,0-.24.66.88.88,0,0,1-.37.59c-.27.24-.34.2-.33.61s-.4.14-.75.32,0,.42-.62.38.09.51.21,1.06-.69-.14-.62.38" transform="translate(-14 -15.5)"/><path class="cls-6" d="M62.72,62.05a.94.94,0,0,0-.2.76c0,.53-.31.17-.75.21s-.09.41-.2.82-.54-.11-.49.51-.44,0-.76.14-.3.17-.5.5-.2.34-.68.22-.29.19-.48.55S58.4,66,58,66s-.32.14-.65.25-.28.22-.69.15-.46-.24-.67.17-.28.22-.69.09-.2.48-.63.25" transform="translate(-14 -15.5)"/><path class="cls-6" d="M54.15,66.95s-.22.52-.61.35-.31.19-.61.47-.43-.49-.7,0-.43-.63-.76-.62-.25,1-.64.34-.3.66-.67.27-.34.11-.69.38-.35-.08-.69-.28a2.31,2.31,0,0,0-.66-.35c-.33-.11-.36.24-.69,0s-.43.59-.7.08-.39.24-.67-.14-.34-.07-.8.41" transform="translate(-14 -15.5)"/><path class="cls-6" d="M44.87,67.24a1,1,0,0,1-.61-.36c-.26-.32-.35,0-.75.08s-.2-.45-.66-.21-.21-.41-.49-.61-.44.15-.76,0a1.25,1.25,0,0,0-.71-.14c-.38,0,0-.71-.49-.55s-.32-.13-.49-.52-.47.1-.51-.46-.63.3-1,.17-.14-.4-.54-.46-.17-.34-.48-.52" transform="translate(-14 -15.5)"/><path class="cls-6" d="M37,63.09a1,1,0,0,0-.39-.59,3.44,3.44,0,0,0-.66-.32c-.35-.14,0-.44-.23-.72s.14-.56-.34-.6-.21-.27-.54-.44-.29-.22-.5-.49.21-.55-.38-.58-.14-.32-.25-.65-.26-.25-.32-.61-.09-.34-.7-.42" transform="translate(-14 -15.5)"/><path class="cls-6" d="M32.85,57.16a1.26,1.26,0,0,1-.27-.63c0-.36-.31-.25-.2-.66s-.2-.29.06-.74-.49-.2-.64-.52.1-.38-.3-.64.2-.4,0-.71.18-.39,0-.7" transform="translate(-14 -15.5)"/><path class="cls-6" d="M31.15,52s-.68-.27.51-.75-.55-.3.32-.69-.93-.29-1.13-.64.09-.35.57-.69-.38-.35-.15-.69-.19-.36-.06-.69-.25-.38.27-.66-.38-.4.15-.67,0-.36.34-.63" transform="translate(-14 -15.5)"/><path class="cls-6" d="M31.77,45.32a1,1,0,0,0-.16-.75c-.26-.43.56-.2.18-.67s.29-.27.59-.53-.07-.39-.24-.83.15-.32.63-.49-.07-.41.37-.58-.1-.44,0-.78.64,0,.43-.55,1.14.29.62-.43.14-.32.13-.74.72.09.45-.53.27-.23.55-.45.4-.12.39-.57-.13-.58.5-.47,0-.44.44-.53.28-.2.64-.32.15-.35.42-.56.22-.27.43-.56.27-.21.48-.52.51.12.83,0" transform="translate(-14 -15.5)"/><path class="cls-6" d="M39.85,34.25a6.16,6.16,0,0,0,.5-.49c.24-.27.11-.5.43-.65s.41,0,.78,0,.23-.31.5-.57.33-.11.64-.27a1.94,1.94,0,0,0,.59-.41c.28-.25.5.38.84.32" transform="translate(-14 -15.5)"/><path class="cls-6" d="M44.48,32.15a2,2,0,0,1,.66-.16c.35,0,.27-.34.61-.38s.26-.47.65-.29.34-.09.65-.34.35,0,.82,1.16.24-1.06.6-.91.33-.37.68-.19" transform="translate(-14 -15.5)"/><path class="cls-4" d="M49.58,37.15a12.37,12.37,0,1,1,0,24.74h0a12.37,12.37,0,0,1,0-24.74Z" transform="translate(-14 -15.5)"/><path class="cls-5" d="M49.58,36.16A13.36,13.36,0,1,1,36.22,49.52,13.36,13.36,0,0,1,49.58,36.16Z" transform="translate(-14 -15.5)"/><path class="cls-5" d="M49.58,38.14A11.38,11.38,0,1,1,38.2,49.52,11.38,11.38,0,0,1,49.58,38.14Z" transform="translate(-14 -15.5)"/><path class="cls-6" d="M49.58,37.25a.75.75,0,0,0,.47-.16c.24-.18.23.06.47-.1s.2.35.44.33.25-.12.49-.17.17.38.4.39.29-.26.47,0,.23,0,.51-.13.18.21.36.44.21.09.39.28" transform="translate(-14 -15.5)"/><path class="cls-6" d="M54.32,37.95s.2.12.39.27.11.3.41.23.15.21.34.34.23.06.5.06.26,0,.25.47.29,0,.63-.1.11.25.24.47,0,.31.38.26.25.07.31.35.13.2.46.19.37,0,.47.19-.18.49.15.5-.37.63.34.33-.12.4.13.49,0,.29.26.38.05.24.26.38a3.31,3.31,0,0,0,.43.28c.24.13-.18.37.25.4s-.16.35.3.37-.1.31,0,.54.1.21,0,.48,0,.24.59.27.12.21,0,.49.3.15,0,.48.05.23.17.44.07.22.25.42.08.23,0,.47-.26.28-.06.48" transform="translate(-14 -15.5)"/><path class="cls-6" d="M62.2,48.24a.37.37,0,0,0,0,.48c.2.22,0,.24,0,.47s-.12.24.13.47,0,.24-.3.46.09.24,0,.46.13.25.12.48-.21.21-.15.46,0,.23.08.5-.15.21-.24.43,0,.25,0,.48-.24.18-1.21.11" transform="translate(-14 -15.5)"/><path class="cls-6" d="M61.18,53.49a.43.43,0,0,0,0,.49c.17.31-.19.17-.26.4s0,.25-.29.37,0,.23-.22.4-.22.14,0,.54-.19.16-.28.38-.17.17-.2.43,0,.27-.5.22.14.39-.19.43-.09.22-.24.4-.26.08-.38.28" transform="translate(-14 -15.5)"/><path class="cls-6" d="M58.28,57.81a1.34,1.34,0,0,0-.2.44c-.06.26-.05.28-.36.28s-.28,0-.28.37-.08.26-.47.14-.08.27-.23.45-.28,0-.27.43-.36-.12-.52,0-.27,0-.45.13-.17.16-.41.19-.16.18-.32.38-.21.09-.49,0-.14.27-.46.05-.12.32-.38.28-.19.15-.45.08" transform="translate(-14 -15.5)"/><path class="cls-6" d="M52.63,61.15s-.16.3-.39.32-.25-.08-.49-.13-.23,0-.41.31-.27-.31-.47-.12-.22.12-.45,0-.21.35-.43.54-.24-.16-.47-.06a1.66,1.66,0,0,0-.48.23c-.24.17-.2-.63-.42-.67s-.24.09-.49.3-.23,0-.44-.19-.23,0-.46,0-.26.11-.43-.19" transform="translate(-14 -15.5)"/><path class="cls-6" d="M46.36,61.62s-.24,0-.34-.49-.24,0-.43-.15-.23,0-.5,0-.26,0-.45-.13-.2-.11-.34-.35-.21-.1-.49-.06-.31.08-.46-.14,0-.4-.31-.39-.06-.34-.4-.24-.25,0-.33-.32-.18-.14-.42-.21-.22-.1-.19-.49" transform="translate(-14 -15.5)"/><path class="cls-6" d="M41,58.77a1.08,1.08,0,0,0-.07-.6c-.13-.19-.26-.07-.54-.13s0-.31-.22-.43-.15-.18-.1-.51-.17-.15-.59-.13.06-.33-.36-.32,0-.31-.26-.4.09-.33-.16-.46,0-.26-.18-.43-.13-.2-.18-.43" transform="translate(-14 -15.5)"/><path class="cls-6" d="M38,54.82a3.35,3.35,0,0,1,.14-.58c.1-.3-.16-.19-.27-.39s-.2-.18.27-.58-.62,0-.49-.33-.24-.18-.11-.45-.12-.21-.19-.44a3.09,3.09,0,0,0-.22-.44" transform="translate(-14 -15.5)"/><path class="cls-6" d="M37.06,51.18a4.19,4.19,0,0,0,.22-.5c.09-.24-.17-.22.31-.48s-.23-.22-.25-.44-.1-.23,0-.46-.09-.23.11-.45-.29-.25.1-.45-.33-.26-.17-.48.05-.22.1-.45-.37-.3-.31-.53" transform="translate(-14 -15.5)"/><path class="cls-6" d="M37.69,46.72a.36.36,0,0,0,0-.46c-.17-.28.1-.21.3-.39s0-.23-.32-.6.49-.07.64-.25-.09-.28,0-.48.25-.14.3-.36.2-.15.14-.44.28-.1.2-.42.22-.13.26-.38-.14-.37.09-.49.31-.06.53-.19,0-.3.07-.52.41,0,.31-.34.13-.19.3-.35a1.44,1.44,0,0,0,.29-.37.76.76,0,0,1,.34-.32,1.17,1.17,0,0,1,.45-.18,1.37,1.37,0,0,0,.44-.18c.2-.11-.08-.48.16-.55s.33.07.46-.15" transform="translate(-14 -15.5)"/><path class="cls-6" d="M42.73,38.77s.48.33.64.15.12-.26.33-.37.3.08.48-.09.31.13.54.09,0-.62.24-.6.3.15.46-.11.2-.13.45-.13" transform="translate(-14 -15.5)"/><path class="cls-6" d="M46.14,37.8a.58.58,0,0,0,.43-.15c.19-.18.29.24.44-.14s.23,0,.43-.22.26.13.5.21.22-.11.43-.29.24.08.45-.26.25.25.48.44" transform="translate(-14 -15.5)"/></g></svg>