<svg xmlns="http://www.w3.org/2000/svg" viewBox="0 0 72 69"><defs><style>.cls-1{fill:#231f20;}</style></defs><title>selection-Filter</title><g id="Square_Base" data-name="Square Base"><polygon class="cls-1" points="4.5 4.5 4.5 18 0 18 0 0 18 0 18 4.5 4.5 4.5"/><polygon class="cls-1" points="67.5 4.5 67.5 18 72 18 72 0 54 0 54 4.5 67.5 4.5"/><polygon class="cls-1" points="67.5 64.5 67.5 51 72 51 72 69 54 69 54 64.5 67.5 64.5"/><polygon class="cls-1" points="4.5 64.5 4.5 51 0 51 0 69 18 69 18 64.5 4.5 64.5"/></g><g id="Layer_11" data-name="Layer 11"><path class="cls-1" d="M50,23.5c-15.55,0-28.16,3.94-28.16,8.8v5.28L43,58.7V76.3c0,1.94,3.15,3.52,7,3.52s7-1.58,7-3.52V58.7L78.16,37.58V32.3C78.16,27.44,65.55,23.5,50,23.5ZM27,31.14a24,24,0,0,1,5.35-2.06A69.42,69.42,0,0,1,50,27a69.42,69.42,0,0,1,17.62,2.05A24,24,0,0,1,73,31.14a6.12,6.12,0,0,1,1.56,1.16A6.13,6.13,0,0,1,73,33.46a24,24,0,0,1-5.35,2.06A69.42,69.42,0,0,1,50,37.58a69.42,69.42,0,0,1-17.62-2.05A24,24,0,0,1,27,33.46a6.13,6.13,0,0,1-1.56-1.16A6.13,6.13,0,0,1,27,31.14Z" transform="translate(-14 -15.5)"/></g></svg>