<svg xmlns="http://www.w3.org/2000/svg" viewBox="0 0 72 69"><title>selection-Antibiotic</title><g id="Square_Base" data-name="Square Base"><polygon points="4.5 4.5 4.5 18 0 18 0 0 18 0 18 4.5 4.5 4.5" style="fill:#231f20"/><polygon points="67.5 4.5 67.5 18 72 18 72 0 54 0 54 4.5 67.5 4.5" style="fill:#231f20"/><polygon points="67.5 64.5 67.5 51 72 51 72 69 54 69 54 64.5 67.5 64.5" style="fill:#231f20"/><polygon points="4.5 64.5 4.5 51 0 51 0 69 18 69 18 64.5 4.5 64.5" style="fill:#231f20"/></g><g id="Layer_17" data-name="Layer 17"><path d="M58.59,66.3H40.51L38,74.81H21.74L41.11,23.27H58.48L77.85,74.81H61.17Zm-3.3-11.14L49.6,36.63,44,55.16Z" transform="translate(-14 -15.5)" style="fill:#231f20"/></g></svg>