<?xml version="1.0" encoding="UTF-8" standalone="no"?>
<svg width="499px" height="473px" viewBox="0 0 499 473" version="1.1" xmlns="http://www.w3.org/2000/svg" xmlns:xlink="http://www.w3.org/1999/xlink">
    <!-- Generator: Sketch 43.2 (39069) - http://www.bohemiancoding.com/sketch -->
    <title>Group 2</title>
    <desc>Created with Sketch.</desc>
    <defs></defs>
    <g id="Page-1" stroke="none" stroke-width="1" fill="none" fill-rule="evenodd">
        <g id="Group-2" transform="translate(1.000000, 0.000000)" fill-rule="nonzero" fill="#000000">
            <path d="M352,432 L352,352 C352,347.75 348.25,344 344,344 L40,344 C35.75,344 32,347.75 32,352 L32,432 C32,436.25 35.75,440 40,440 L344,440 C348.25,440 352,436.25 352,432 Z M44.5,312 L128.695313,312 L94.25,184 C89.75,184 85,187.25 83.75,191.5 L44.5,312 Z M384,352 L384,432 C384,454 366,472 344,472 L40,472 C18,472 0,454 0,432 L0,352 C0,345.25 2,339.5 4,333.25 L53.25,181.75 C59,164.25 75.75,152 94.25,152 C94.25,152 95.8164063,254.910156 157.242188,325.796875 C166.257958,336.201275 380,333.25 380,333.25 C382,339.5 384,345.25 384,352 Z" id="Combined-Shape" stroke="#979797"></path>
            <path d="M292.5,410.5 C179.281626,410.5 87.5,318.718374 87.5,205.5 C87.5,92.2816263 179.281626,0.5 292.5,0.5 C405.718374,0.5 497.5,92.2816263 497.5,205.5 C497.5,318.718374 405.718374,410.5 292.5,410.5 Z M292.5,375.5 C386.388407,375.5 462.5,299.388407 462.5,205.5 C462.5,111.611593 386.388407,35.5 292.5,35.5 C198.611593,35.5 122.5,111.611593 122.5,205.5 C122.5,299.388407 198.611593,375.5 292.5,375.5 Z" id="Oval"></path>
            <g id="group" transform="translate(137.000000, 100.000000)">
                <path d="M92.5834092,139.889999 C75.7217463,140.410397 61.9304685,147.071839 51.2095758,159.874324 L30.2886439,159.874324 C21.7537146,159.874324 14.5718749,157.766593 8.74312496,153.551132 C2.91437499,149.335671 0,143.168671 0,135.050133 C0,98.3082435 6.45324589,79.9372986 19.3597377,79.9372986 C19.9843247,79.9372986 22.2481565,81.0301893 26.1512332,83.2159705 C30.0543099,85.4017517 35.1284189,87.6135802 41.3735602,89.8514559 C47.6187015,92.0893316 53.8117484,93.2082694 59.9527008,93.2082694 C66.9264358,93.2082694 73.8480764,92.011281 80.7176225,89.6173041 C80.1972245,93.4684685 79.9370254,96.9032415 79.9370254,99.9216233 C79.9370254,114.389491 84.1524867,127.712375 92.5834092,139.890273 L92.5834092,139.889999 Z M259.795674,239.343046 C259.795674,251.833146 255.996604,261.695209 248.398464,268.929234 C240.800324,276.163259 230.70411,279.780181 218.10982,279.779999 L81.654503,279.779999 C69.0602137,279.779999 58.963999,276.163077 51.3658592,268.929234 C43.7677193,261.695391 39.9686493,251.833328 39.9686493,239.343046 C39.9686493,233.826498 40.1507978,228.440096 40.5150946,223.183838 C40.8793915,217.927581 41.6079852,212.254932 42.7008759,206.165892 C43.7937665,200.076852 45.1729034,194.43025 46.8382865,189.226087 C48.5036697,184.021924 50.7414543,178.947815 53.5516404,174.00376 C56.3618265,169.059705 59.588495,164.844244 63.2316458,161.357377 C66.8747967,157.870509 71.3244098,155.086279 76.5804851,153.004687 C81.8365604,150.923094 87.6392631,149.882207 93.9885933,149.882025 C95.0293895,149.882025 97.2671741,151.000963 100.701947,153.238839 C104.13672,155.476714 107.93579,157.974789 112.099157,160.733063 C116.262524,163.491337 121.831075,165.989411 128.80481,168.227287 C135.778545,170.465163 142.804283,171.584101 149.882025,171.584101 C156.959767,171.584101 163.985505,170.465163 170.95924,168.227287 C177.932975,165.989411 183.501526,163.491337 187.664893,160.733063 C191.82826,157.974789 195.62733,155.476714 199.062103,153.238839 C202.496876,151.000963 204.734661,149.882025 205.775457,149.882025 C212.124605,149.882025 217.927308,150.922912 223.183565,153.004687 C228.439823,155.086461 232.889436,157.870691 236.532404,161.357377 C240.175373,164.844062 243.402042,169.059523 246.21241,174.00376 C249.022778,178.947998 251.260563,184.022107 252.925764,189.226087 C254.590965,194.430068 255.970102,200.07667 257.063174,206.165892 C258.156247,212.255114 258.884841,217.927763 259.248956,223.183838 C259.61307,228.439914 259.795219,233.826316 259.795401,239.343046 L259.795674,239.343046 Z M99.9213501,39.9686493 C99.9213501,51.0015623 96.0181823,60.4212776 88.2118467,68.2277953 C80.4055112,76.034313 70.9857959,79.9374808 59.9527008,79.9372986 C48.9196056,79.9371165 39.4998903,76.0339487 31.6935548,68.2277953 C23.8872192,60.4216419 19.9840514,51.0019266 19.9840514,39.9686493 C19.9840514,28.9353721 23.8872192,19.5156567 31.6935548,11.7095033 C39.4998903,3.90334992 48.9196056,0.000182148437 59.9527008,0 C70.9857959,-0.000182148437 80.4055112,3.90298563 88.2118467,11.7095033 C96.0181823,19.516021 99.9213501,28.9357364 99.9213501,39.9686493 Z M209.834999,99.9213501 C209.834999,116.470811 203.980202,130.600338 192.270607,142.309932 C180.561013,154.019527 166.431486,159.874324 149.882025,159.874324 C133.332565,159.874324 119.203037,154.019527 107.493443,142.309932 C95.7838483,130.600338 89.9290511,116.470811 89.9290511,99.9213501 C89.9290511,83.3718896 95.7838483,69.2423621 107.493443,57.5327677 C119.203037,45.8231733 133.332565,39.9683761 149.882025,39.9683761 C166.431486,39.9683761 180.561013,45.8231733 192.270607,57.5327677 C203.980202,69.2423621 209.834999,83.3718896 209.834999,99.9213501 L209.834999,99.9213501 Z M299.764323,135.050133 C299.764323,143.168671 296.849948,149.335671 291.021198,153.551132 C285.192449,157.766593 278.010609,159.874324 269.47568,159.874324 L248.554748,159.874324 C237.834037,147.071839 224.042759,140.410397 207.180914,139.889999 C215.611837,127.712101 219.827298,114.389218 219.827298,99.9213501 C219.827298,96.9029683 219.567099,93.4681953 219.046701,89.6170309 C225.916247,92.0110078 232.837888,93.2079962 239.811623,93.2079962 C245.952575,93.2079962 252.145622,92.0890584 258.390763,89.8511827 C264.635905,87.613307 269.710014,85.4014785 273.61309,83.2156973 C277.516167,81.029916 279.779999,79.9370254 280.404586,79.9370254 C293.311078,79.9370254 299.764323,98.3079703 299.764323,135.04986 L299.764323,135.050133 Z M279.779999,39.9686493 C279.779999,51.0015623 275.876831,60.4212776 268.070495,68.2277953 C260.26416,76.034313 250.844445,79.9374808 239.811349,79.9372986 C228.778254,79.9371165 219.358539,76.0339487 211.552203,68.2277953 C203.745868,60.4216419 199.8427,51.0019266 199.8427,39.9686493 C199.8427,28.9353721 203.745868,19.5156567 211.552203,11.7095033 C219.358539,3.90334992 228.778254,0.000182148437 239.811349,0 C250.844445,-0.000182148437 260.26416,3.90298563 268.070495,11.7095033 C275.876831,19.516021 279.779999,28.9357364 279.779999,39.9686493 Z" id="Shape"></path>
            </g>
        </g>
    </g>
</svg>