<?xml version="1.0" encoding="utf-8"?>
<!-- Generated by IcoMoon.io -->
<!DOCTYPE svg PUBLIC "-//W3C//DTD SVG 1.1//EN" "http://www.w3.org/Graphics/SVG/1.1/DTD/svg11.dtd">
<svg version="1.1" xmlns="http://www.w3.org/2000/svg" xmlns:xlink="http://www.w3.org/1999/xlink" width="352" height="448" viewBox="0 0 352 448">
<g id="icomoon-ignore">
</g>
<path d="M280 64h-208q-16.5 0-28.25 11.75t-11.75 28.25v208q0 16.5 11.75 28.25t28.25 11.75h208q16.5 0 28.25-11.75t11.75-28.25v-208q0-16.5-11.75-28.25t-28.25-11.75zM352 104v208q0 29.75-21.125 50.875t-50.875 21.125h-208q-29.75 0-50.875-21.125t-21.125-50.875v-208q0-29.75 21.125-50.875t50.875-21.125h208q29.75 0 50.875 21.125t21.125 50.875z"></path>
</svg>
