<?xml version="1.0" encoding="utf-8"?>
<!-- Generated by IcoMoon.io -->
<!DOCTYPE svg PUBLIC "-//W3C//DTD SVG 1.1//EN" "http://www.w3.org/Graphics/SVG/1.1/DTD/svg11.dtd">
<svg version="1.1" xmlns="http://www.w3.org/2000/svg" xmlns:xlink="http://www.w3.org/1999/xlink" width="416" height="448" viewBox="0 0 416 448">
<g id="icomoon-ignore">
</g>
<path d="M128 344v-48q0-3.5-2.25-5.75t-5.75-2.25h-80q-3.5 0-5.75 2.25t-2.25 5.75v48q0 3.5 2.25 5.75t5.75 2.25h80q3.5 0 5.75-2.25t2.25-5.75zM128 248v-48q0-3.5-2.25-5.75t-5.75-2.25h-80q-3.5 0-5.75 2.25t-2.25 5.75v48q0 3.5 2.25 5.75t5.75 2.25h80q3.5 0 5.75-2.25t2.25-5.75zM256 344v-48q0-3.5-2.25-5.75t-5.75-2.25h-80q-3.5 0-5.75 2.25t-2.25 5.75v48q0 3.5 2.25 5.75t5.75 2.25h80q3.5 0 5.75-2.25t2.25-5.75zM128 152v-48q0-3.5-2.25-5.75t-5.75-2.25h-80q-3.5 0-5.75 2.25t-2.25 5.75v48q0 3.5 2.25 5.75t5.75 2.25h80q3.5 0 5.75-2.25t2.25-5.75zM256 248v-48q0-3.5-2.25-5.75t-5.75-2.25h-80q-3.5 0-5.75 2.25t-2.25 5.75v48q0 3.5 2.25 5.75t5.75 2.25h80q3.5 0 5.75-2.25t2.25-5.75zM384 344v-48q0-3.5-2.25-5.75t-5.75-2.25h-80q-3.5 0-5.75 2.25t-2.25 5.75v48q0 3.5 2.25 5.75t5.75 2.25h80q3.5 0 5.75-2.25t2.25-5.75zM256 152v-48q0-3.5-2.25-5.75t-5.75-2.25h-80q-3.5 0-5.75 2.25t-2.25 5.75v48q0 3.5 2.25 5.75t5.75 2.25h80q3.5 0 5.75-2.25t2.25-5.75zM384 248v-48q0-3.5-2.25-5.75t-5.75-2.25h-80q-3.5 0-5.75 2.25t-2.25 5.75v48q0 3.5 2.25 5.75t5.75 2.25h80q3.5 0 5.75-2.25t2.25-5.75zM384 152v-48q0-3.5-2.25-5.75t-5.75-2.25h-80q-3.5 0-5.75 2.25t-2.25 5.75v48q0 3.5 2.25 5.75t5.75 2.25h80q3.5 0 5.75-2.25t2.25-5.75zM416 72v272q0 16.5-11.75 28.25t-28.25 11.75h-336q-16.5 0-28.25-11.75t-11.75-28.25v-272q0-16.5 11.75-28.25t28.25-11.75h336q16.5 0 28.25 11.75t11.75 28.25z"></path>
</svg>
