<svg xmlns="http://www.w3.org/2000/svg" viewBox="0 0 96.78 98.12"><title>target-Genome</title><g id="Layer_3" data-name="Layer 3"><path d="M50,7.08A42.92,42.92,0,1,0,92.92,50,42.93,42.93,0,0,0,50,7.08Zm0,80.85A37.92,37.92,0,1,1,87.92,50,38,38,0,0,1,50,87.92Z" transform="translate(-1.66 -1.17)" style="fill:#231f20"/><rect x="44.81" width="7.08" height="17.02" style="fill:#231f20"/><rect x="44.81" y="81.72" width="7.08" height="16.4" style="fill:#231f20"/><rect x="86.63" y="41.73" width="7.08" height="16.54" transform="translate(38.51 139) rotate(-90)" style="fill:#231f20"/><rect x="6.66" y="41.46" width="7.08" height="17.08" transform="translate(-41.46 59.03) rotate(-90)" style="fill:#231f20"/></g><g id="Genome"><path d="M50.83,57.68V47H75.44v22a50.42,50.42,0,0,1-12.5,6.56,42.42,42.42,0,0,1-12.88,1.74q-9.18,0-15-3.13a21.41,21.41,0,0,1-9-9.32A30.62,30.62,0,0,1,23,50.58,29.65,29.65,0,0,1,26.43,35.9a22.54,22.54,0,0,1,10.19-9.47q5.24-2.5,14.1-2.5,8.54,0,12.78,1.55a16.6,16.6,0,0,1,7,4.8,21.32,21.32,0,0,1,4.2,8.24L59.37,41.26a8.32,8.32,0,0,0-3.22-4.46,10,10,0,0,0-5.78-1.55A10.43,10.43,0,0,0,42,38.89q-3.11,3.64-3.11,11.51,0,8.37,3.15,12t8.77,3.59a16.68,16.68,0,0,0,5.1-.77,27.54,27.54,0,0,0,5.55-2.64V57.68Z" transform="translate(-1.66 -1.17)" style="fill:#231f20"/></g></svg>