<svg xmlns="http://www.w3.org/2000/svg" viewBox="0 0 96.78 98.12"><title>target-GenomeGroup</title><g id="Layer_3" data-name="Layer 3"><path d="M50,7.08A42.92,42.92,0,1,0,92.92,50,42.93,42.93,0,0,0,50,7.08Zm0,80.85A37.92,37.92,0,1,1,87.92,50,38,38,0,0,1,50,87.92Z" transform="translate(-1.66 -1.17)" style="fill:#231f20"/><rect x="44.81" width="7.08" height="17.02" style="fill:#231f20"/><rect x="44.81" y="81.72" width="7.08" height="16.4" style="fill:#231f20"/><rect x="86.63" y="41.73" width="7.08" height="16.54" transform="translate(38.51 139) rotate(-90)" style="fill:#231f20"/><rect x="6.66" y="41.46" width="7.08" height="17.08" transform="translate(-41.46 59.03) rotate(-90)" style="fill:#231f20"/></g><g id="Layer_7" data-name="Layer 7"><path d="M35.36,38.2V32.84h12.3v11a25.21,25.21,0,0,1-6.25,3.28A21.22,21.22,0,0,1,35,48a15.66,15.66,0,0,1-7.48-1.56A10.71,10.71,0,0,1,23,41.75a15.31,15.31,0,0,1-1.59-7.1,14.83,14.83,0,0,1,1.74-7.34,11.27,11.27,0,0,1,5.1-4.74,16.58,16.58,0,0,1,7-1.25,19.81,19.81,0,0,1,6.39.77,8.29,8.29,0,0,1,3.52,2.4,10.66,10.66,0,0,1,2.1,4.12L39.63,30A4.16,4.16,0,0,0,38,27.76,5,5,0,0,0,35.13,27,5.21,5.21,0,0,0,31,28.81q-1.56,1.82-1.56,5.76,0,4.18,1.57,6a5.53,5.53,0,0,0,4.38,1.79,8.34,8.34,0,0,0,2.55-.39,13.77,13.77,0,0,0,2.78-1.32V38.2Z" transform="translate(-1.66 -1.17)" style="fill:#231f20"/><path d="M64.69,37.13V31.77H77v11A25.21,25.21,0,0,1,70.75,46a21.22,21.22,0,0,1-6.44.87,15.66,15.66,0,0,1-7.48-1.56,10.71,10.71,0,0,1-4.48-4.66,15.31,15.31,0,0,1-1.59-7.1,14.83,14.83,0,0,1,1.74-7.34,11.27,11.27,0,0,1,5.1-4.74,16.59,16.59,0,0,1,7-1.25A19.81,19.81,0,0,1,71,21a8.29,8.29,0,0,1,3.52,2.4,10.66,10.66,0,0,1,2.1,4.12L69,28.92a4.16,4.16,0,0,0-1.61-2.23,5,5,0,0,0-2.89-.77,5.21,5.21,0,0,0-4.17,1.82q-1.56,1.82-1.56,5.76,0,4.18,1.57,6a5.53,5.53,0,0,0,4.38,1.79,8.34,8.34,0,0,0,2.55-.39A13.77,13.77,0,0,0,70,39.55V37.13Z" transform="translate(-1.66 -1.17)" style="fill:#231f20"/><path d="M35.36,69.87V64.51h12.3v11a25.21,25.21,0,0,1-6.25,3.28,21.22,21.22,0,0,1-6.44.87,15.66,15.66,0,0,1-7.48-1.56A10.71,10.71,0,0,1,23,73.42a15.31,15.31,0,0,1-1.59-7.1A14.83,14.83,0,0,1,23.16,59a11.27,11.27,0,0,1,5.1-4.74,16.58,16.58,0,0,1,7-1.25,19.81,19.81,0,0,1,6.39.77,8.29,8.29,0,0,1,3.52,2.4,10.66,10.66,0,0,1,2.1,4.12l-7.68,1.37A4.16,4.16,0,0,0,38,59.43a5,5,0,0,0-2.89-.77A5.21,5.21,0,0,0,31,60.48q-1.56,1.82-1.56,5.76,0,4.18,1.57,6A5.53,5.53,0,0,0,35.36,74a8.34,8.34,0,0,0,2.55-.39,13.77,13.77,0,0,0,2.78-1.32V69.87Z" transform="translate(-1.66 -1.17)" style="fill:#231f20"/><path d="M64.69,69.87V64.51H77v11a25.21,25.21,0,0,1-6.25,3.28,21.22,21.22,0,0,1-6.44.87,15.66,15.66,0,0,1-7.48-1.56,10.71,10.71,0,0,1-4.48-4.66,15.31,15.31,0,0,1-1.59-7.1A14.83,14.83,0,0,1,52.5,59a11.27,11.27,0,0,1,5.1-4.74,16.58,16.58,0,0,1,7-1.25,19.81,19.81,0,0,1,6.39.77,8.29,8.29,0,0,1,3.52,2.4,10.66,10.66,0,0,1,2.1,4.12L69,61.66a4.16,4.16,0,0,0-1.61-2.23,5,5,0,0,0-2.89-.77,5.21,5.21,0,0,0-4.17,1.82q-1.56,1.82-1.56,5.76,0,4.18,1.57,6A5.53,5.53,0,0,0,64.69,74a8.34,8.34,0,0,0,2.55-.39A13.77,13.77,0,0,0,70,72.3V69.87Z" transform="translate(-1.66 -1.17)" style="fill:#231f20"/></g></svg>