<svg xmlns="http://www.w3.org/2000/svg" viewBox="0 0 96.78 98.12"><title>target-FeatureList</title><g id="Layer_3" data-name="Layer 3"><path d="M50,7.08A42.92,42.92,0,1,0,92.92,50,42.93,42.93,0,0,0,50,7.08Zm0,80.85A37.92,37.92,0,1,1,87.92,50,38,38,0,0,1,50,87.92Z" transform="translate(-1.66 -1.17)" style="fill:#231f20"/><rect x="44.81" width="7.08" height="17.02" style="fill:#231f20"/><rect x="44.81" y="81.72" width="7.08" height="16.4" style="fill:#231f20"/><rect x="86.63" y="41.73" width="7.08" height="16.54" transform="translate(38.51 139) rotate(-90)" style="fill:#231f20"/><rect x="6.66" y="41.46" width="7.08" height="17.08" transform="translate(-41.46 59.03) rotate(-90)" style="fill:#231f20"/></g><g id="Layer_8" data-name="Layer 8"><path d="M41.11,37.25H60.79v5.54H49.11v4.5h10v5.2h-10V63h-8Z" transform="translate(-1.66 -1.17)" style="fill:#231f20"/><rect x="22.96" y="21.15" width="50.77" height="3.55" style="fill:#231f20"/><rect x="22.99" y="39.77" width="7.78" height="3.55" style="fill:#231f20"/><rect x="65.92" y="39.77" width="7.78" height="3.55" style="fill:#231f20"/><rect x="22.99" y="48.27" width="7.78" height="3.55" style="fill:#231f20"/><rect x="65.92" y="48.27" width="7.78" height="3.55" style="fill:#231f20"/><rect x="22.99" y="56" width="7.78" height="3.55" style="fill:#231f20"/><rect x="65.92" y="56" width="7.78" height="3.55" style="fill:#231f20"/><rect x="22.99" y="64.52" width="13.33" height="3.55" style="fill:#231f20"/><rect x="60.09" y="64.52" width="13.6" height="3.55" style="fill:#231f20"/><rect x="22.96" y="72.03" width="50.77" height="3.55" style="fill:#231f20"/><rect x="22.99" y="30.46" width="13.33" height="3.55" style="fill:#231f20"/><rect x="60.09" y="30.46" width="13.6" height="3.55" style="fill:#231f20"/></g></svg>