<svg xmlns="http://www.w3.org/2000/svg" viewBox="0 0 96.78 98.12"><title>target-ApplyFilter</title><g id="Layer_3" data-name="Layer 3"><path d="M50,7.08A42.92,42.92,0,1,0,92.92,50,42.93,42.93,0,0,0,50,7.08Zm0,80.85A37.92,37.92,0,1,1,87.92,50,38,38,0,0,1,50,87.92Z" transform="translate(-1.66 -1.17)" style="fill:#231f20"/><rect x="44.81" width="7.08" height="17.02" style="fill:#231f20"/><rect x="44.81" y="81.72" width="7.08" height="16.4" style="fill:#231f20"/><rect x="86.63" y="41.73" width="7.08" height="16.54" transform="translate(38.51 139) rotate(-90)" style="fill:#231f20"/><rect x="6.66" y="41.46" width="7.08" height="17.08" transform="translate(-41.46 59.03) rotate(-90)" style="fill:#231f20"/></g><g id="Layer_11" data-name="Layer 11"><path d="M76.21,28.6a2.16,2.16,0,0,1-.53,2.63L57.2,49.71V77.54a2.24,2.24,0,0,1-1.46,2.21,2.61,2.61,0,0,1-.94.19,2.23,2.23,0,0,1-1.69-.71l-9.6-9.6a2.31,2.31,0,0,1-.71-1.69V49.71L24.31,31.23a2.16,2.16,0,0,1-.52-2.62A2.24,2.24,0,0,1,26,27.14H74A2.24,2.24,0,0,1,76.21,28.6Z" transform="translate(-1.66 -1.17)" style="fill:#010101"/></g></svg>