<svg xmlns="http://www.w3.org/2000/svg" viewBox="0 0 96.78 98.12"><title>target-GenomeList</title><g id="Layer_3" data-name="Layer 3"><path d="M50,7.08A42.92,42.92,0,1,0,92.92,50,42.93,42.93,0,0,0,50,7.08Zm0,80.85A37.92,37.92,0,1,1,87.92,50,38,38,0,0,1,50,87.92Z" transform="translate(-1.66 -1.17)" style="fill:#231f20"/><rect x="44.81" width="7.08" height="17.02" style="fill:#231f20"/><rect x="44.81" y="81.72" width="7.08" height="16.4" style="fill:#231f20"/><rect x="86.63" y="41.73" width="7.08" height="16.54" transform="translate(38.51 139) rotate(-90)" style="fill:#231f20"/><rect x="6.66" y="41.46" width="7.08" height="17.08" transform="translate(-41.46 59.03) rotate(-90)" style="fill:#231f20"/></g><g id="Layer_6" data-name="Layer 6"><path d="M49.36,53.37V48h12.3V59a25.21,25.21,0,0,1-6.25,3.28,21.22,21.22,0,0,1-6.44.87,15.66,15.66,0,0,1-7.48-1.56A10.71,10.71,0,0,1,37,56.92a15.31,15.31,0,0,1-1.59-7.1,14.83,14.83,0,0,1,1.74-7.34,11.27,11.27,0,0,1,5.1-4.74,16.58,16.58,0,0,1,7-1.25,19.81,19.81,0,0,1,6.39.77,8.29,8.29,0,0,1,3.52,2.4,10.66,10.66,0,0,1,2.1,4.12l-7.68,1.37A4.16,4.16,0,0,0,52,42.93a5,5,0,0,0-2.89-.77A5.21,5.21,0,0,0,45,44q-1.56,1.82-1.56,5.76,0,4.18,1.57,6a5.53,5.53,0,0,0,4.38,1.79,8.34,8.34,0,0,0,2.55-.39,13.77,13.77,0,0,0,2.78-1.32V53.37Z" transform="translate(-1.66 -1.17)" style="fill:#231f20"/><rect x="22.96" y="21.31" width="50.77" height="3.55" style="fill:#231f20"/><rect x="22.99" y="39.94" width="7.78" height="3.55" style="fill:#231f20"/><rect x="65.92" y="39.94" width="7.78" height="3.55" style="fill:#231f20"/><rect x="22.99" y="48.44" width="7.78" height="3.55" style="fill:#231f20"/><rect x="65.92" y="48.44" width="7.78" height="3.55" style="fill:#231f20"/><rect x="22.99" y="56.17" width="7.78" height="3.55" style="fill:#231f20"/><rect x="65.92" y="56.17" width="7.78" height="3.55" style="fill:#231f20"/><rect x="22.99" y="64.68" width="13.33" height="3.55" style="fill:#231f20"/><rect x="60.09" y="64.68" width="13.6" height="3.55" style="fill:#231f20"/><rect x="22.96" y="72.2" width="50.77" height="3.55" style="fill:#231f20"/><rect x="22.99" y="30.63" width="13.33" height="3.55" style="fill:#231f20"/><rect x="60.09" y="30.63" width="13.6" height="3.55" style="fill:#231f20"/></g></svg>