<?xml version="1.0" encoding="utf-8"?>
<!-- Generated by IcoMoon.io -->
<!DOCTYPE svg PUBLIC "-//W3C//DTD SVG 1.1//EN" "http://www.w3.org/Graphics/SVG/1.1/DTD/svg11.dtd">
<svg version="1.1" xmlns="http://www.w3.org/2000/svg" xmlns:xlink="http://www.w3.org/1999/xlink" width="448" height="448" viewBox="0 0 448 448">
<g id="icomoon-ignore">
</g>
<path d="M256 352h160v-32h-160v32zM160 224h256v-32h-256v32zM320 96h96v-32h-96v32zM448 304v64q0 6.5-4.75 11.25t-11.25 4.75h-416q-6.5 0-11.25-4.75t-4.75-11.25v-64q0-6.5 4.75-11.25t11.25-4.75h416q6.5 0 11.25 4.75t4.75 11.25zM448 176v64q0 6.5-4.75 11.25t-11.25 4.75h-416q-6.5 0-11.25-4.75t-4.75-11.25v-64q0-6.5 4.75-11.25t11.25-4.75h416q6.5 0 11.25 4.75t4.75 11.25zM448 48v64q0 6.5-4.75 11.25t-11.25 4.75h-416q-6.5 0-11.25-4.75t-4.75-11.25v-64q0-6.5 4.75-11.25t11.25-4.75h416q6.5 0 11.25 4.75t4.75 11.25z"></path>
</svg>
