<?xml version="1.0" encoding="utf-8"?>
<!-- Generated by IcoMoon.io -->
<!DOCTYPE svg PUBLIC "-//W3C//DTD SVG 1.1//EN" "http://www.w3.org/Graphics/SVG/1.1/DTD/svg11.dtd">
<svg version="1.1" xmlns="http://www.w3.org/2000/svg" xmlns:xlink="http://www.w3.org/1999/xlink" width="448" height="448" viewBox="0 0 448 448">
<g id="icomoon-ignore">
</g>
<path d="M128 312v48q0 10-7 17t-17 7h-80q-10 0-17-7t-7-17v-48q0-10 7-17t17-7h80q10 0 17 7t7 17zM128 184v48q0 10-7 17t-17 7h-80q-10 0-17-7t-7-17v-48q0-10 7-17t17-7h80q10 0 17 7t7 17zM448 312v48q0 10-7 17t-17 7h-240q-10 0-17-7t-7-17v-48q0-10 7-17t17-7h240q10 0 17 7t7 17zM128 56v48q0 10-7 17t-17 7h-80q-10 0-17-7t-7-17v-48q0-10 7-17t17-7h80q10 0 17 7t7 17zM448 184v48q0 10-7 17t-17 7h-240q-10 0-17-7t-7-17v-48q0-10 7-17t17-7h240q10 0 17 7t7 17zM448 56v48q0 10-7 17t-17 7h-240q-10 0-17-7t-7-17v-48q0-10 7-17t17-7h240q10 0 17 7t7 17z"></path>
</svg>
