<?xml version="1.0" encoding="utf-8"?>
<!-- Generated by IcoMoon.io -->
<!DOCTYPE svg PUBLIC "-//W3C//DTD SVG 1.1//EN" "http://www.w3.org/Graphics/SVG/1.1/DTD/svg11.dtd">
<svg version="1.1" xmlns="http://www.w3.org/2000/svg" xmlns:xlink="http://www.w3.org/1999/xlink" width="352" height="448" viewBox="0 0 352 448">
<g id="icomoon-ignore">
</g>
<path d="M128 344v-176q0-3.5-2.25-5.75t-5.75-2.25h-16q-3.5 0-5.75 2.25t-2.25 5.75v176q0 3.5 2.25 5.75t5.75 2.25h16q3.5 0 5.75-2.25t2.25-5.75zM192 344v-176q0-3.5-2.25-5.75t-5.75-2.25h-16q-3.5 0-5.75 2.25t-2.25 5.75v176q0 3.5 2.25 5.75t5.75 2.25h16q3.5 0 5.75-2.25t2.25-5.75zM256 344v-176q0-3.5-2.25-5.75t-5.75-2.25h-16q-3.5 0-5.75 2.25t-2.25 5.75v176q0 3.5 2.25 5.75t5.75 2.25h16q3.5 0 5.75-2.25t2.25-5.75zM120 96h112l-12-29.25q-1.75-2.25-4.25-2.75h-79.25q-2.5 0.5-4.25 2.75zM352 104v16q0 3.5-2.25 5.75t-5.75 2.25h-24v237q0 20.75-11.75 35.875t-28.25 15.125h-208q-16.5 0-28.25-14.625t-11.75-35.375v-238h-24q-3.5 0-5.75-2.25t-2.25-5.75v-16q0-3.5 2.25-5.75t5.75-2.25h77.25l17.5-41.75q3.75-9.25 13.5-15.75t19.75-6.5h80q10 0 19.75 6.5t13.5 15.75l17.5 41.75h77.25q3.5 0 5.75 2.25t2.25 5.75z"></path>
</svg>
