<?xml version="1.0" encoding="utf-8"?>
<!-- Generated by IcoMoon.io -->
<!DOCTYPE svg PUBLIC "-//W3C//DTD SVG 1.1//EN" "http://www.w3.org/Graphics/SVG/1.1/DTD/svg11.dtd">
<svg version="1.1" xmlns="http://www.w3.org/2000/svg" xmlns:xlink="http://www.w3.org/1999/xlink" width="416" height="448" viewBox="0 0 416 448">
<g id="icomoon-ignore">
</g>
<path d="M416 144v64q0 6.5-4.75 11.25t-11.25 4.75h-16q-6.5 0-11.25-4.75t-4.75-11.25v-64q0-26.5-18.75-45.25t-45.25-18.75-45.25 18.75-18.75 45.25v48h24q10 0 17 7t7 17v144q0 10-7 17t-17 7h-240q-10 0-17-7t-7-17v-144q0-10 7-17t17-7h168v-48q0-46.25 32.875-79.125t79.125-32.875 79.125 32.875 32.875 79.125z"></path>
</svg>
