<?xml version="1.0" encoding="utf-8"?>
<!-- Generated by IcoMoon.io -->
<!DOCTYPE svg PUBLIC "-//W3C//DTD SVG 1.1//EN" "http://www.w3.org/Graphics/SVG/1.1/DTD/svg11.dtd">
<svg version="1.1" xmlns="http://www.w3.org/2000/svg" xmlns:xlink="http://www.w3.org/1999/xlink" width="416" height="448" viewBox="0 0 416 448">
<g id="icomoon-ignore">
</g>
<path d="M320 368q0-6.5-4.75-11.25t-11.25-4.75-11.25 4.75-4.75 11.25 4.75 11.25 11.25 4.75 11.25-4.75 4.75-11.25zM384 368q0-6.5-4.75-11.25t-11.25-4.75-11.25 4.75-4.75 11.25 4.75 11.25 11.25 4.75 11.25-4.75 4.75-11.25zM416 312v80q0 10-7 17t-17 7h-368q-10 0-17-7t-7-17v-80q0-10 7-17t17-7h106.75q5.25 14 17.625 23t27.625 9h64q15.25 0 27.625-9t17.625-23h106.75q10 0 17 7t7 17zM334.75 150q-4.25 10-14.75 10h-64v112q0 6.5-4.75 11.25t-11.25 4.75h-64q-6.5 0-11.25-4.75t-4.75-11.25v-112h-64q-10.5 0-14.75-10-4.25-9.75 3.5-17.25l112-112q4.5-4.75 11.25-4.75t11.25 4.75l112 112q7.75 7.5 3.5 17.25z"></path>
</svg>
