<?xml version="1.0" encoding="utf-8"?>
<!-- Generated by IcoMoon.io -->
<!DOCTYPE svg PUBLIC "-//W3C//DTD SVG 1.1//EN" "http://www.w3.org/Graphics/SVG/1.1/DTD/svg11.dtd">
<svg version="1.1" xmlns="http://www.w3.org/2000/svg" xmlns:xlink="http://www.w3.org/1999/xlink" width="352" height="448" viewBox="0 0 352 448">
<g id="icomoon-ignore">
</g>
<path d="M352 351.25q0 30-18.25 47.375t-48.5 17.375h-218.5q-30.25 0-48.5-17.375t-18.25-47.375q0-13.25 0.875-25.875t3.5-27.25 6.625-27.125 10.75-24.375 15.5-20.25 21.375-13.375 27.875-5q2.25 0 10.5 5.375t18.625 12 27 12 33.375 5.375 33.375-5.375 27-12 18.625-12 10.5-5.375q15.25 0 27.875 5t21.375 13.375 15.5 20.25 10.75 24.375 6.625 27.125 3.5 27.25 0.875 25.875zM272 128q0 39.75-28.125 67.875t-67.875 28.125-67.875-28.125-28.125-67.875 28.125-67.875 67.875-28.125 67.875 28.125 28.125 67.875z"></path>
</svg>
