<?xml version="1.0" encoding="utf-8"?>
<!-- Generated by IcoMoon.io -->
<!DOCTYPE svg PUBLIC "-//W3C//DTD SVG 1.1//EN" "http://www.w3.org/Graphics/SVG/1.1/DTD/svg11.dtd">
<svg version="1.1" xmlns="http://www.w3.org/2000/svg" xmlns:xlink="http://www.w3.org/1999/xlink" width="37" height="32" viewBox="0 0 37 32">
<path fill="#000" d="M12.571 16q-2.839 0-4.848-2.009t-2.009-4.848 2.009-4.848 4.848-2.009 4.848 2.009 2.009 4.848-2.009 4.848-4.848 2.009zM29.714 18.286h6.286q0.232 0 0.402 0.17t0.17 0.402v3.429q0 0.232-0.17 0.402t-0.402 0.17h-6.286v6.286q0 0.232-0.17 0.402t-0.402 0.17h-3.429q-0.232 0-0.402-0.17t-0.17-0.402v-6.286h-6.286q-0.232 0-0.402-0.17t-0.17-0.402v-3.429q0-0.232 0.17-0.402t0.402-0.17h6.286v-6.286q0-0.232 0.17-0.402t0.402-0.17h3.429q0.232 0 0.402 0.17t0.17 0.402v6.286zM16.571 22.286q0 0.929 0.679 1.607t1.607 0.679h4.571v4.25q-1.214 0.893-3.054 0.893h-15.607q-2.161 0-3.464-1.232t-1.304-3.393q0-0.946 0.063-1.848t0.25-1.946 0.473-1.938 0.768-1.741 1.107-1.446 1.527-0.955 1.991-0.357q0.339 0 0.696 0.304 1.411 1.089 2.759 1.634t2.938 0.545 2.938-0.545 2.759-1.634q0.357-0.304 0.696-0.304 2.357 0 3.875 1.714h-3.982q-0.929 0-1.607 0.679t-0.679 1.607v3.429z"></path>
</svg>
