<svg xmlns="http://www.w3.org/2000/svg" xmlns:xlink="http://www.w3.org/1999/xlink" version="1.1" viewBox="0 0 96 120" x="0px" y="0px"><path d="M32.288 90.856c-16.7 0-30.288-13.584-30.288-30.288 0-16.7 13.584-30.276 30.288-30.276 16.7 0 30.28 13.584 30.28 30.276 0.004 16.7-13.58 30.288-30.28 30.288zM32.288 34.28c-14.496 0-26.288 11.792-26.288 26.284s11.792 26.28 26.288 26.28 26.28-11.788 26.28-26.28-11.788-26.284-26.28-26.284z" fill="#000000"/><path d="M63.72 90.856c-16.704 0-30.292-13.584-30.292-30.288 0-16.7 13.588-30.276 30.292-30.276 16.696 0 30.28 13.584 30.28 30.276 0 16.7-13.584 30.288-30.28 30.288zM63.72 34.28c-14.5 0-26.292 11.792-26.292 26.284s11.792 26.28 26.292 26.28c14.488 0 26.28-11.788 26.28-26.28s-11.792-26.284-26.28-26.284z" fill="#000000"/><path d="M48 65.712c-16.7 0-30.288-13.584-30.288-30.284s13.584-30.28 30.288-30.28c16.7 0 30.28 13.584 30.28 30.28s-13.58 30.284-30.28 30.284zM48 9.136c-14.496 0-26.288 11.788-26.288 26.288 0 14.492 11.792 26.276 26.288 26.276s26.28-11.784 26.28-26.276c0-14.5-11.784-26.288-26.28-26.288z" fill="#000000"/></svg>